M48
; DRILL file {KiCad 7.0.11-rc3} date Tue Jul  2 00:12:01 2024
; FORMAT={-:-/ absolute / inch / decimal}
; #@! TF.CreationDate,2024-07-02T00:12:01+05:30
; #@! TF.GenerationSoftware,Kicad,Pcbnew,7.0.11-rc3
; #@! TF.FileFunction,Plated,1,2,PTH
FMAT,2
INCH
; #@! TA.AperFunction,Plated,PTH,ViaDrill
T1C0.0118
; #@! TA.AperFunction,Plated,PTH,ComponentDrill
T2C0.0394
%
G90
G05
T1
X3.4438Y-2.5732
X3.5232Y-1.8486
X3.5232Y-1.9374
X3.5311Y-2.2287
X3.727Y-1.975
X3.7437Y-2.2209
X3.7437Y-2.276
X3.8559Y-2.4453
X3.8657Y-2.1697
X3.8953Y-2.15
X3.8953Y-2.4551
X3.9248Y-2.2484
X3.9248Y-2.4748
X3.9543Y-2.0024
X3.9543Y-2.1402
X3.9642Y-2.5043
X3.974Y-1.9335
X4.0035Y-2.2484
X4.0082Y-1.9768
X4.0528Y-1.9236
X4.0547Y-2.1874
X4.0626Y-2.2484
X4.0823Y-2.1205
X4.102Y-1.9531
X4.161Y-2.4059
X4.1906Y-2.2091
X4.2004Y-1.9335
X4.2201Y-2.2878
X4.2457Y-2.0398
X4.2496Y-1.9335
X4.2949Y-2.3035
X4.2988Y-2.7209
X4.3185Y-2.2386
X4.348Y-2.2681
X4.4465Y-1.9433
X4.4465Y-1.9433
X4.4819Y-2.4384
X4.4819Y-2.4384
X4.4957Y-2.7209
X4.5843Y-2.2583
X4.5843Y-2.2583
X4.6138Y-1.9335
X4.6728Y-2.1303
T2
X3.15Y-2.15
X3.15Y-2.25
X3.3047Y-2.9
X3.4047Y-2.9
X3.5047Y-2.9
X3.6047Y-2.9
X3.7047Y-2.9
X3.8047Y-2.9
X3.9047Y-2.9
X4.0047Y-2.9
X4.1047Y-2.9
X4.3Y-2.9
X4.4Y-2.9
X4.5Y-2.9
X4.6Y-2.9
X4.7703Y-2.0407
X4.7703Y-2.1407
X4.7703Y-2.2407
X4.8703Y-2.0407
X4.8703Y-2.1407
X4.8703Y-2.2407
X4.8703Y-2.3907
X4.8703Y-2.4907
X4.8703Y-2.5907
X4.8703Y-2.6907
M30
