%TF.GenerationSoftware,KiCad,Pcbnew,7.0.11-rc3*%
%TF.CreationDate,2024-07-02T00:11:53+05:30*%
%TF.ProjectId,MCUdatalogger_V1,4d435564-6174-4616-9c6f-676765725f56,rev?*%
%TF.SameCoordinates,Original*%
%TF.FileFunction,Copper,L2,Bot*%
%TF.FilePolarity,Positive*%
%FSLAX46Y46*%
G04 Gerber Fmt 4.6, Leading zero omitted, Abs format (unit mm)*
G04 Created by KiCad (PCBNEW 7.0.11-rc3) date 2024-07-02 00:11:53*
%MOMM*%
%LPD*%
G01*
G04 APERTURE LIST*
%TA.AperFunction,ComponentPad*%
%ADD10R,1.700000X1.700000*%
%TD*%
%TA.AperFunction,ComponentPad*%
%ADD11O,1.700000X1.700000*%
%TD*%
%TA.AperFunction,ViaPad*%
%ADD12C,0.600000*%
%TD*%
%TA.AperFunction,Conductor*%
%ADD13C,0.200000*%
%TD*%
G04 APERTURE END LIST*
D10*
%TO.P,J1,1,Pin_1*%
%TO.N,GND*%
X123705000Y-60725000D03*
D11*
%TO.P,J1,2,Pin_2*%
%TO.N,/VCC*%
X123705000Y-63265000D03*
%TO.P,J1,3,Pin_3*%
%TO.N,/SDA*%
X123705000Y-65805000D03*
%TO.P,J1,4,Pin_4*%
%TO.N,/SCK*%
X123705000Y-68345000D03*
%TD*%
D10*
%TO.P,BT1,1,+*%
%TO.N,/VCC*%
X80010000Y-54610000D03*
D11*
%TO.P,BT1,2,-*%
%TO.N,GND*%
X80010000Y-57150000D03*
%TD*%
D10*
%TO.P,J3,1,Pin_1*%
%TO.N,GND*%
X109220000Y-73660000D03*
D11*
%TO.P,J3,2,Pin_2*%
%TO.N,/VCC*%
X111760000Y-73660000D03*
%TO.P,J3,3,Pin_3*%
%TO.N,/RX*%
X114300000Y-73660000D03*
%TO.P,J3,4,Pin_4*%
%TO.N,/TX*%
X116840000Y-73660000D03*
%TD*%
D10*
%TO.P,J4,1,Pin_1*%
%TO.N,/MISO*%
X121165000Y-51835000D03*
D11*
%TO.P,J4,2,Pin_2*%
%TO.N,/VCC*%
X123705000Y-51835000D03*
%TO.P,J4,3,Pin_3*%
%TO.N,/SCK*%
X121165000Y-54375000D03*
%TO.P,J4,4,Pin_4*%
%TO.N,/MOSI*%
X123705000Y-54375000D03*
%TO.P,J4,5,Pin_5*%
%TO.N,/RESET*%
X121165000Y-56915000D03*
%TO.P,J4,6,Pin_6*%
%TO.N,GND*%
X123705000Y-56915000D03*
%TD*%
D10*
%TO.P,J2,1,Pin_1*%
%TO.N,/D2*%
X83940000Y-73660000D03*
D11*
%TO.P,J2,2,Pin_2*%
%TO.N,/D3*%
X86480000Y-73660000D03*
%TO.P,J2,3,Pin_3*%
%TO.N,/D4*%
X89020000Y-73660000D03*
%TO.P,J2,4,Pin_4*%
%TO.N,/D5*%
X91560000Y-73660000D03*
%TO.P,J2,5,Pin_5*%
%TO.N,/D6*%
X94100000Y-73660000D03*
%TO.P,J2,6,Pin_6*%
%TO.N,/D7*%
X96640000Y-73660000D03*
%TO.P,J2,7,Pin_7*%
%TO.N,/D8*%
X99180000Y-73660000D03*
%TO.P,J2,8,Pin_8*%
%TO.N,GND*%
X101720000Y-73660000D03*
%TO.P,J2,9,Pin_9*%
%TO.N,/VCC*%
X104260000Y-73660000D03*
%TD*%
D12*
%TO.N,/VCC*%
X106690000Y-49110000D03*
X100440000Y-54360000D03*
X107190000Y-58110000D03*
%TO.N,GND*%
X114190000Y-69110000D03*
X112940000Y-49360000D03*
X112940000Y-49360000D03*
X107940000Y-49110000D03*
X95090000Y-56410000D03*
X95090000Y-57810000D03*
X107840735Y-51810000D03*
X100940000Y-49110000D03*
X117190000Y-49110000D03*
X87472287Y-65360000D03*
X106440000Y-56110000D03*
X89690000Y-56610000D03*
X109090000Y-58510000D03*
%TO.N,/VCC*%
X116440000Y-57360000D03*
X89490000Y-46955000D03*
X116440000Y-57360000D03*
X89490000Y-49210000D03*
%TO.N,Net-(U4-PB7)*%
X103690000Y-53860000D03*
X102940000Y-48860000D03*
X102989265Y-55560735D03*
X101690000Y-57110000D03*
%TO.N,Net-(U4-AREF)*%
X109190000Y-69110000D03*
X103190000Y-57110000D03*
%TO.N,/SCK*%
X109690000Y-56860000D03*
X94665000Y-50165000D03*
X101809187Y-50210000D03*
X118690000Y-54110000D03*
%TO.N,/SDA*%
X110440000Y-57610000D03*
X113840000Y-61935000D03*
X113840000Y-61935000D03*
%TO.N,/RX*%
X99690000Y-57110000D03*
%TO.N,/TX*%
X98940000Y-54610000D03*
%TO.N,/D2*%
X98190000Y-55110000D03*
%TO.N,/D5*%
X97940000Y-62110000D03*
%TO.N,/D6*%
X98940000Y-62360000D03*
%TO.N,/D7*%
X99690000Y-62860000D03*
%TO.N,/D8*%
X100690000Y-63610000D03*
%TO.N,/MISO*%
X105690000Y-61110000D03*
%TO.N,/RESET*%
X100440000Y-50860000D03*
X104190000Y-49610000D03*
%TD*%
D13*
%TO.N,GND*%
X103790000Y-71610000D02*
X103940000Y-71610000D01*
X94890000Y-56610000D02*
X95090000Y-56410000D01*
X89690000Y-56610000D02*
X94890000Y-56610000D01*
%TO.N,/VCC*%
X99990000Y-53160000D02*
X100440000Y-53610000D01*
X81460000Y-53160000D02*
X99990000Y-53160000D01*
X80010000Y-54610000D02*
X81460000Y-53160000D01*
%TO.N,/SDA*%
X110940000Y-58110000D02*
X110440000Y-57610000D01*
X113240000Y-58110000D02*
X110940000Y-58110000D01*
X113840000Y-58710000D02*
X113240000Y-58110000D01*
X113840000Y-61935000D02*
X113840000Y-58710000D01*
%TO.N,/VCC*%
X101940000Y-53610000D02*
X106440000Y-58110000D01*
X100440000Y-54360000D02*
X100440000Y-53610000D01*
X107190000Y-49610000D02*
X107190000Y-58110000D01*
X106440000Y-58110000D02*
X107190000Y-58110000D01*
X100440000Y-53610000D02*
X101940000Y-53610000D01*
X106690000Y-49110000D02*
X107190000Y-49610000D01*
%TO.N,GND*%
X103790000Y-71610000D02*
X106490000Y-71610000D01*
X107840735Y-49209265D02*
X107940000Y-49110000D01*
X109090000Y-58510000D02*
X112190000Y-61610000D01*
X108540000Y-73660000D02*
X109220000Y-73660000D01*
X112190000Y-67110000D02*
X114190000Y-69110000D01*
X107840735Y-51810000D02*
X107840735Y-49209265D01*
X112190000Y-61610000D02*
X112190000Y-67110000D01*
X101720000Y-73660000D02*
X103780000Y-71600000D01*
X103780000Y-71600000D02*
X103790000Y-71610000D01*
X106490000Y-71610000D02*
X108540000Y-73660000D01*
%TO.N,/VCC*%
X122315000Y-55235000D02*
X122315000Y-53225000D01*
X121940000Y-55610000D02*
X122315000Y-55235000D01*
X117316346Y-66083654D02*
X120135000Y-63265000D01*
X122315000Y-53225000D02*
X123705000Y-51835000D01*
X117990000Y-73183654D02*
X117316346Y-72510000D01*
X117990000Y-74136346D02*
X117990000Y-73183654D01*
X116440000Y-57360000D02*
X118190000Y-57360000D01*
X122155000Y-63265000D02*
X123705000Y-63265000D01*
X118190000Y-57360000D02*
X119940000Y-55610000D01*
X117316346Y-72510000D02*
X117316346Y-66083654D01*
X117316346Y-74810000D02*
X117990000Y-74136346D01*
X122345000Y-63265000D02*
X116440000Y-57360000D01*
X120135000Y-63265000D02*
X123705000Y-63265000D01*
X119940000Y-55610000D02*
X121940000Y-55610000D01*
X112910000Y-74810000D02*
X117316346Y-74810000D01*
X123705000Y-63265000D02*
X122345000Y-63265000D01*
X89490000Y-49210000D02*
X89490000Y-46955000D01*
X111760000Y-73660000D02*
X112910000Y-74810000D01*
%TO.N,Net-(U4-PB7)*%
X101690000Y-56860000D02*
X102989265Y-55560735D01*
X105690000Y-51860000D02*
X105690000Y-48860000D01*
X101690000Y-57110000D02*
X101690000Y-56860000D01*
X103690000Y-53860000D02*
X105690000Y-51860000D01*
X105690000Y-48860000D02*
X102940000Y-48860000D01*
%TO.N,Net-(U4-AREF)*%
X109190000Y-69110000D02*
X103190000Y-63110000D01*
X103190000Y-63110000D02*
X103190000Y-57110000D01*
%TO.N,/SCK*%
X109690000Y-56860000D02*
X115940000Y-56860000D01*
X94665000Y-50165000D02*
X94720000Y-50110000D01*
X94720000Y-50110000D02*
X101709187Y-50110000D01*
X101709187Y-50110000D02*
X101809187Y-50210000D01*
X115940000Y-56860000D02*
X118690000Y-54110000D01*
%TO.N,/RX*%
X101690000Y-59360000D02*
X99690000Y-57360000D01*
X99690000Y-57360000D02*
X99690000Y-57110000D01*
X102540000Y-66710000D02*
X102540000Y-64210000D01*
X108340000Y-72510000D02*
X102540000Y-66710000D01*
X114300000Y-73660000D02*
X113150000Y-72510000D01*
X113150000Y-72510000D02*
X108340000Y-72510000D01*
X101690000Y-63360000D02*
X101690000Y-59360000D01*
X102540000Y-64210000D02*
X101690000Y-63360000D01*
%TO.N,/TX*%
X98940000Y-55511471D02*
X98940000Y-54610000D01*
X116840000Y-73660000D02*
X114790000Y-71610000D01*
X114790000Y-71610000D02*
X108940000Y-71610000D01*
X102190000Y-62860000D02*
X102190000Y-58761471D01*
X102190000Y-58761471D02*
X98940000Y-55511471D01*
X102940000Y-65610000D02*
X102940000Y-63610000D01*
X108940000Y-71610000D02*
X102940000Y-65610000D01*
X102940000Y-63610000D02*
X102190000Y-62860000D01*
%TO.N,/D2*%
X83940000Y-68043758D02*
X94973758Y-57010000D01*
X83940000Y-73660000D02*
X83940000Y-68043758D01*
X94973758Y-57010000D02*
X96290000Y-57010000D01*
X96290000Y-57010000D02*
X98190000Y-55110000D01*
%TO.N,/D5*%
X91560000Y-73640000D02*
X91560000Y-73660000D01*
X93290000Y-67444315D02*
X93290000Y-71910000D01*
X97940000Y-62794314D02*
X93290000Y-67444315D01*
X93290000Y-71910000D02*
X91560000Y-73640000D01*
X97940000Y-62110000D02*
X97940000Y-62794314D01*
%TO.N,/D6*%
X93690000Y-73250000D02*
X94100000Y-73660000D01*
X98940000Y-62360000D02*
X93690000Y-67610000D01*
X93690000Y-67610000D02*
X93690000Y-73250000D01*
%TO.N,/D7*%
X94165000Y-67910000D02*
X94165000Y-71185000D01*
X99690000Y-62860000D02*
X99288529Y-62860000D01*
X94165000Y-71185000D02*
X96640000Y-73660000D01*
X99115000Y-62960000D02*
X94165000Y-67910000D01*
X99288529Y-62860000D02*
X99188529Y-62960000D01*
X99188529Y-62960000D02*
X99115000Y-62960000D01*
%TO.N,/D8*%
X94640000Y-69610000D02*
X98690000Y-73660000D01*
X98690000Y-73660000D02*
X99180000Y-73660000D01*
X99030686Y-63610000D02*
X94640000Y-68000686D01*
X100690000Y-63610000D02*
X99030686Y-63610000D01*
X94640000Y-68000686D02*
X94640000Y-69610000D01*
%TO.N,/MISO*%
X105690000Y-61110000D02*
X105940000Y-61110000D01*
X108440000Y-60610000D02*
X107940000Y-61110000D01*
X108440000Y-52610000D02*
X108440000Y-60610000D01*
X109215000Y-51835000D02*
X108440000Y-52610000D01*
X121165000Y-51835000D02*
X109215000Y-51835000D01*
X107940000Y-61110000D02*
X105690000Y-61110000D01*
%TO.N,/RESET*%
X100440000Y-50860000D02*
X100440000Y-51110000D01*
X100540000Y-50960000D02*
X100440000Y-50860000D01*
X102840000Y-50960000D02*
X100540000Y-50960000D01*
X104190000Y-49610000D02*
X102840000Y-50960000D01*
%TD*%
%TA.AperFunction,Conductor*%
%TO.N,GND*%
G36*
X120919562Y-44888399D02*
G01*
X120919615Y-44888003D01*
X120927671Y-44889063D01*
X120927672Y-44889064D01*
X120927673Y-44889064D01*
X120974369Y-44889064D01*
X121041408Y-44908749D01*
X121087163Y-44961553D01*
X121098342Y-45010481D01*
X121189999Y-49410000D01*
X121267538Y-49411520D01*
X125842384Y-49501223D01*
X125909022Y-49522217D01*
X125953733Y-49575908D01*
X125963950Y-49625480D01*
X125915984Y-70706924D01*
X125896147Y-70773919D01*
X125843239Y-70819553D01*
X125797146Y-70830534D01*
X121490001Y-71009999D01*
X121489998Y-71010001D01*
X120953360Y-75124231D01*
X120925170Y-75188161D01*
X120866892Y-75226702D01*
X120830645Y-75232193D01*
X118037526Y-75237658D01*
X117970448Y-75218104D01*
X117924590Y-75165390D01*
X117914511Y-75096251D01*
X117943411Y-75032639D01*
X117949588Y-75025991D01*
X118381043Y-74594536D01*
X118393223Y-74583855D01*
X118418282Y-74564628D01*
X118514536Y-74439187D01*
X118575044Y-74293108D01*
X118590500Y-74175707D01*
X118595682Y-74136346D01*
X118594012Y-74123664D01*
X118591561Y-74105043D01*
X118590500Y-74088858D01*
X118590500Y-73231141D01*
X118591561Y-73214955D01*
X118594013Y-73196335D01*
X118595682Y-73183654D01*
X118575044Y-73026892D01*
X118514536Y-72880813D01*
X118514535Y-72880812D01*
X118514535Y-72880811D01*
X118481084Y-72837217D01*
X118418282Y-72755372D01*
X118418280Y-72755370D01*
X118418279Y-72755369D01*
X118393228Y-72736147D01*
X118381034Y-72725453D01*
X117953165Y-72297584D01*
X117919680Y-72236261D01*
X117916846Y-72209903D01*
X117916846Y-66383751D01*
X117936531Y-66316712D01*
X117953165Y-66296070D01*
X120347416Y-63901819D01*
X120408739Y-63868334D01*
X120435097Y-63865500D01*
X122115639Y-63865500D01*
X122297513Y-63865500D01*
X122313697Y-63866560D01*
X122345000Y-63870682D01*
X122376302Y-63866560D01*
X122392487Y-63865500D01*
X122415909Y-63865500D01*
X122482948Y-63885185D01*
X122528292Y-63937097D01*
X122530965Y-63942830D01*
X122609105Y-64054425D01*
X122666501Y-64136395D01*
X122666506Y-64136402D01*
X122833597Y-64303493D01*
X122833603Y-64303498D01*
X123019158Y-64433425D01*
X123062783Y-64488002D01*
X123069977Y-64557500D01*
X123038454Y-64619855D01*
X123019158Y-64636575D01*
X122833597Y-64766505D01*
X122666505Y-64933597D01*
X122530965Y-65127169D01*
X122530964Y-65127171D01*
X122431098Y-65341335D01*
X122431094Y-65341344D01*
X122369938Y-65569586D01*
X122369936Y-65569596D01*
X122349341Y-65804999D01*
X122349341Y-65805000D01*
X122369936Y-66040403D01*
X122369938Y-66040413D01*
X122431094Y-66268655D01*
X122431096Y-66268659D01*
X122431097Y-66268663D01*
X122453503Y-66316712D01*
X122530965Y-66482830D01*
X122530967Y-66482834D01*
X122666501Y-66676395D01*
X122666506Y-66676402D01*
X122833597Y-66843493D01*
X122833603Y-66843498D01*
X123019158Y-66973425D01*
X123062783Y-67028002D01*
X123069977Y-67097500D01*
X123038454Y-67159855D01*
X123019158Y-67176575D01*
X122833597Y-67306505D01*
X122666505Y-67473597D01*
X122530965Y-67667169D01*
X122530964Y-67667171D01*
X122431098Y-67881335D01*
X122431094Y-67881344D01*
X122369938Y-68109586D01*
X122369936Y-68109596D01*
X122349341Y-68344999D01*
X122349341Y-68345000D01*
X122369936Y-68580403D01*
X122369938Y-68580413D01*
X122431094Y-68808655D01*
X122431096Y-68808659D01*
X122431097Y-68808663D01*
X122488025Y-68930745D01*
X122530965Y-69022830D01*
X122530967Y-69022834D01*
X122591999Y-69109996D01*
X122666505Y-69216401D01*
X122833599Y-69383495D01*
X122930384Y-69451265D01*
X123027165Y-69519032D01*
X123027167Y-69519033D01*
X123027170Y-69519035D01*
X123241337Y-69618903D01*
X123469592Y-69680063D01*
X123657918Y-69696539D01*
X123704999Y-69700659D01*
X123705000Y-69700659D01*
X123705001Y-69700659D01*
X123744234Y-69697226D01*
X123940408Y-69680063D01*
X124168663Y-69618903D01*
X124382830Y-69519035D01*
X124576401Y-69383495D01*
X124743495Y-69216401D01*
X124879035Y-69022830D01*
X124978903Y-68808663D01*
X125040063Y-68580408D01*
X125060659Y-68345000D01*
X125040063Y-68109592D01*
X124978903Y-67881337D01*
X124879035Y-67667171D01*
X124744908Y-67475616D01*
X124743494Y-67473597D01*
X124576402Y-67306506D01*
X124576396Y-67306501D01*
X124390842Y-67176575D01*
X124347217Y-67121998D01*
X124340023Y-67052500D01*
X124371546Y-66990145D01*
X124390842Y-66973425D01*
X124543175Y-66866760D01*
X124576401Y-66843495D01*
X124743495Y-66676401D01*
X124879035Y-66482830D01*
X124978903Y-66268663D01*
X125040063Y-66040408D01*
X125060659Y-65805000D01*
X125040063Y-65569592D01*
X124978903Y-65341337D01*
X124879035Y-65127171D01*
X124743495Y-64933599D01*
X124743494Y-64933597D01*
X124576402Y-64766506D01*
X124576396Y-64766501D01*
X124390842Y-64636575D01*
X124347217Y-64581998D01*
X124340023Y-64512500D01*
X124371546Y-64450145D01*
X124390842Y-64433425D01*
X124530280Y-64335789D01*
X124576401Y-64303495D01*
X124743495Y-64136401D01*
X124879035Y-63942830D01*
X124978903Y-63728663D01*
X125040063Y-63500408D01*
X125060659Y-63265000D01*
X125040063Y-63029592D01*
X124991855Y-62849674D01*
X124978905Y-62801344D01*
X124978904Y-62801343D01*
X124978903Y-62801337D01*
X124879035Y-62587171D01*
X124876698Y-62583834D01*
X124743496Y-62393600D01*
X124707633Y-62357737D01*
X124621179Y-62271283D01*
X124587696Y-62209963D01*
X124592680Y-62140271D01*
X124634551Y-62084337D01*
X124665529Y-62067422D01*
X124797086Y-62018354D01*
X124797093Y-62018350D01*
X124912187Y-61932190D01*
X124912190Y-61932187D01*
X124998350Y-61817093D01*
X124998354Y-61817086D01*
X125048596Y-61682379D01*
X125048598Y-61682372D01*
X125054999Y-61622844D01*
X125055000Y-61622827D01*
X125055000Y-60975000D01*
X124138686Y-60975000D01*
X124164493Y-60934844D01*
X124205000Y-60796889D01*
X124205000Y-60653111D01*
X124164493Y-60515156D01*
X124138686Y-60475000D01*
X125055000Y-60475000D01*
X125055000Y-59827172D01*
X125054999Y-59827155D01*
X125048598Y-59767627D01*
X125048596Y-59767620D01*
X124998354Y-59632913D01*
X124998350Y-59632906D01*
X124912190Y-59517812D01*
X124912187Y-59517809D01*
X124797093Y-59431649D01*
X124797086Y-59431645D01*
X124662379Y-59381403D01*
X124662372Y-59381401D01*
X124602844Y-59375000D01*
X123955000Y-59375000D01*
X123955000Y-60289498D01*
X123847315Y-60240320D01*
X123740763Y-60225000D01*
X123669237Y-60225000D01*
X123562685Y-60240320D01*
X123455000Y-60289498D01*
X123455000Y-59375000D01*
X122807155Y-59375000D01*
X122747627Y-59381401D01*
X122747620Y-59381403D01*
X122612913Y-59431645D01*
X122612906Y-59431649D01*
X122497812Y-59517809D01*
X122497809Y-59517812D01*
X122411649Y-59632906D01*
X122411645Y-59632913D01*
X122361403Y-59767620D01*
X122361401Y-59767627D01*
X122355000Y-59827155D01*
X122355000Y-60475000D01*
X123271314Y-60475000D01*
X123245507Y-60515156D01*
X123205000Y-60653111D01*
X123205000Y-60796889D01*
X123245507Y-60934844D01*
X123271314Y-60975000D01*
X122355000Y-60975000D01*
X122355000Y-61622844D01*
X122361401Y-61682372D01*
X122361403Y-61682379D01*
X122411645Y-61817086D01*
X122411649Y-61817093D01*
X122497809Y-61932187D01*
X122497812Y-61932190D01*
X122612906Y-62018350D01*
X122612913Y-62018354D01*
X122744470Y-62067421D01*
X122800403Y-62109292D01*
X122824821Y-62174756D01*
X122809970Y-62243029D01*
X122788819Y-62271284D01*
X122666505Y-62393598D01*
X122609730Y-62474682D01*
X122555153Y-62518307D01*
X122485654Y-62525499D01*
X122423300Y-62493977D01*
X122420474Y-62491239D01*
X118106598Y-58177363D01*
X118073113Y-58116040D01*
X118078097Y-58046348D01*
X118119969Y-57990415D01*
X118182011Y-57967274D01*
X118181942Y-57966743D01*
X118184250Y-57966439D01*
X118185433Y-57965998D01*
X118188408Y-57965891D01*
X118189997Y-57965681D01*
X118190000Y-57965682D01*
X118346762Y-57945044D01*
X118492836Y-57884538D01*
X118492837Y-57884538D01*
X118492837Y-57884537D01*
X118492841Y-57884536D01*
X118521869Y-57862262D01*
X118618282Y-57788282D01*
X118637509Y-57763223D01*
X118648190Y-57751043D01*
X119599611Y-56799622D01*
X119660932Y-56766139D01*
X119730624Y-56771123D01*
X119786557Y-56812995D01*
X119810974Y-56878459D01*
X119810818Y-56898110D01*
X119809341Y-56914995D01*
X119809341Y-56915000D01*
X119829936Y-57150403D01*
X119829938Y-57150413D01*
X119891094Y-57378655D01*
X119891096Y-57378659D01*
X119891097Y-57378663D01*
X119973148Y-57554622D01*
X119990965Y-57592830D01*
X119990967Y-57592834D01*
X120079285Y-57718964D01*
X120126505Y-57786401D01*
X120293599Y-57953495D01*
X120377687Y-58012374D01*
X120487165Y-58089032D01*
X120487167Y-58089033D01*
X120487170Y-58089035D01*
X120701337Y-58188903D01*
X120701343Y-58188904D01*
X120701344Y-58188905D01*
X120756285Y-58203626D01*
X120929592Y-58250063D01*
X121117918Y-58266539D01*
X121164999Y-58270659D01*
X121165000Y-58270659D01*
X121165001Y-58270659D01*
X121204234Y-58267226D01*
X121400408Y-58250063D01*
X121628663Y-58188903D01*
X121842830Y-58089035D01*
X122036401Y-57953495D01*
X122203495Y-57786401D01*
X122333730Y-57600405D01*
X122388307Y-57556781D01*
X122457805Y-57549587D01*
X122520160Y-57581110D01*
X122536879Y-57600405D01*
X122666890Y-57786078D01*
X122833917Y-57953105D01*
X123027421Y-58088600D01*
X123241507Y-58188429D01*
X123241516Y-58188433D01*
X123455000Y-58245634D01*
X123455000Y-57350501D01*
X123562685Y-57399680D01*
X123669237Y-57415000D01*
X123740763Y-57415000D01*
X123847315Y-57399680D01*
X123955000Y-57350501D01*
X123955000Y-58245633D01*
X124168483Y-58188433D01*
X124168492Y-58188429D01*
X124382578Y-58088600D01*
X124576082Y-57953105D01*
X124743105Y-57786082D01*
X124878600Y-57592578D01*
X124978429Y-57378492D01*
X124978432Y-57378486D01*
X125035636Y-57165000D01*
X124138686Y-57165000D01*
X124164493Y-57124844D01*
X124205000Y-56986889D01*
X124205000Y-56843111D01*
X124164493Y-56705156D01*
X124138686Y-56665000D01*
X125035636Y-56665000D01*
X125035635Y-56664999D01*
X124978432Y-56451513D01*
X124978429Y-56451507D01*
X124878600Y-56237422D01*
X124878599Y-56237420D01*
X124743113Y-56043926D01*
X124743108Y-56043920D01*
X124576078Y-55876890D01*
X124390405Y-55746879D01*
X124346780Y-55692302D01*
X124339588Y-55622804D01*
X124371110Y-55560449D01*
X124390406Y-55543730D01*
X124392591Y-55542200D01*
X124576401Y-55413495D01*
X124743495Y-55246401D01*
X124879035Y-55052830D01*
X124978903Y-54838663D01*
X125040063Y-54610408D01*
X125060659Y-54375000D01*
X125040063Y-54139592D01*
X124978903Y-53911337D01*
X124879035Y-53697171D01*
X124867534Y-53680745D01*
X124743494Y-53503597D01*
X124576402Y-53336506D01*
X124576396Y-53336501D01*
X124390842Y-53206575D01*
X124347217Y-53151998D01*
X124340023Y-53082500D01*
X124371546Y-53020145D01*
X124390842Y-53003425D01*
X124434035Y-52973181D01*
X124576401Y-52873495D01*
X124743495Y-52706401D01*
X124879035Y-52512830D01*
X124978903Y-52298663D01*
X125040063Y-52070408D01*
X125060659Y-51835000D01*
X125059402Y-51820638D01*
X125043120Y-51634535D01*
X125040063Y-51599592D01*
X124978903Y-51371337D01*
X124879035Y-51157171D01*
X124796466Y-51039249D01*
X124743494Y-50963597D01*
X124576402Y-50796506D01*
X124576395Y-50796501D01*
X124382834Y-50660967D01*
X124382830Y-50660965D01*
X124382828Y-50660964D01*
X124168663Y-50561097D01*
X124168659Y-50561096D01*
X124168655Y-50561094D01*
X123940413Y-50499938D01*
X123940403Y-50499936D01*
X123705001Y-50479341D01*
X123704999Y-50479341D01*
X123469596Y-50499936D01*
X123469586Y-50499938D01*
X123241344Y-50561094D01*
X123241335Y-50561098D01*
X123027171Y-50660964D01*
X123027169Y-50660965D01*
X122833600Y-50796503D01*
X122711673Y-50918430D01*
X122650350Y-50951914D01*
X122580658Y-50946930D01*
X122524725Y-50905058D01*
X122507810Y-50874081D01*
X122458797Y-50742671D01*
X122458793Y-50742664D01*
X122372547Y-50627455D01*
X122372544Y-50627452D01*
X122257335Y-50541206D01*
X122257328Y-50541202D01*
X122122482Y-50490908D01*
X122122483Y-50490908D01*
X122062883Y-50484501D01*
X122062881Y-50484500D01*
X122062873Y-50484500D01*
X122062864Y-50484500D01*
X120267129Y-50484500D01*
X120267123Y-50484501D01*
X120207516Y-50490908D01*
X120072671Y-50541202D01*
X120072664Y-50541206D01*
X119957455Y-50627452D01*
X119957452Y-50627455D01*
X119871206Y-50742664D01*
X119871202Y-50742671D01*
X119820908Y-50877517D01*
X119814501Y-50937116D01*
X119814500Y-50937135D01*
X119814500Y-51110500D01*
X119794815Y-51177539D01*
X119742011Y-51223294D01*
X119690500Y-51234500D01*
X109262494Y-51234500D01*
X109246308Y-51233439D01*
X109215001Y-51229317D01*
X109214999Y-51229317D01*
X109058238Y-51249955D01*
X108912157Y-51310464D01*
X108786718Y-51406716D01*
X108767489Y-51431775D01*
X108756798Y-51443965D01*
X108048965Y-52151798D01*
X108036775Y-52162489D01*
X108011718Y-52181717D01*
X108005971Y-52187465D01*
X108004691Y-52186185D01*
X107956445Y-52221413D01*
X107886699Y-52225566D01*
X107825780Y-52191353D01*
X107793028Y-52129635D01*
X107790500Y-52104723D01*
X107790500Y-49657487D01*
X107791561Y-49641301D01*
X107795682Y-49609999D01*
X107795682Y-49609998D01*
X107779949Y-49490493D01*
X107775044Y-49453238D01*
X107714536Y-49307159D01*
X107714535Y-49307158D01*
X107714535Y-49307157D01*
X107679751Y-49261826D01*
X107618282Y-49181718D01*
X107618280Y-49181716D01*
X107618279Y-49181715D01*
X107593228Y-49162493D01*
X107581034Y-49151799D01*
X107520700Y-49091465D01*
X107487215Y-49030142D01*
X107485163Y-49017686D01*
X107475368Y-48930745D01*
X107415789Y-48760478D01*
X107319816Y-48607738D01*
X107192262Y-48480184D01*
X107122692Y-48436470D01*
X107039523Y-48384211D01*
X106869254Y-48324631D01*
X106869249Y-48324630D01*
X106690004Y-48304435D01*
X106689996Y-48304435D01*
X106510750Y-48324630D01*
X106510745Y-48324631D01*
X106340476Y-48384211D01*
X106257308Y-48436470D01*
X106190071Y-48455470D01*
X106123236Y-48435102D01*
X106115850Y-48429852D01*
X105992842Y-48335464D01*
X105846762Y-48274956D01*
X105846760Y-48274955D01*
X105729361Y-48259500D01*
X105690000Y-48254318D01*
X105658697Y-48258439D01*
X105642513Y-48259500D01*
X103522412Y-48259500D01*
X103455373Y-48239815D01*
X103445097Y-48232445D01*
X103442263Y-48230185D01*
X103442262Y-48230184D01*
X103385496Y-48194515D01*
X103289523Y-48134211D01*
X103119254Y-48074631D01*
X103119249Y-48074630D01*
X102940004Y-48054435D01*
X102939996Y-48054435D01*
X102760750Y-48074630D01*
X102760745Y-48074631D01*
X102590476Y-48134211D01*
X102437737Y-48230184D01*
X102310184Y-48357737D01*
X102214211Y-48510476D01*
X102154631Y-48680745D01*
X102154630Y-48680750D01*
X102134435Y-48859996D01*
X102134435Y-48860003D01*
X102154630Y-49039249D01*
X102154631Y-49039254D01*
X102214211Y-49209523D01*
X102262557Y-49286465D01*
X102281557Y-49353702D01*
X102261189Y-49420537D01*
X102207921Y-49465751D01*
X102138665Y-49474988D01*
X102116609Y-49469479D01*
X101988444Y-49424632D01*
X101988436Y-49424630D01*
X101809191Y-49404435D01*
X101809183Y-49404435D01*
X101629937Y-49424630D01*
X101629932Y-49424631D01*
X101459661Y-49484212D01*
X101449664Y-49490494D01*
X101383693Y-49509500D01*
X95162110Y-49509500D01*
X95096138Y-49490493D01*
X95014526Y-49439212D01*
X94844254Y-49379631D01*
X94844249Y-49379630D01*
X94665004Y-49359435D01*
X94664996Y-49359435D01*
X94485750Y-49379630D01*
X94485745Y-49379631D01*
X94315476Y-49439211D01*
X94162737Y-49535184D01*
X94035184Y-49662737D01*
X93939211Y-49815476D01*
X93879631Y-49985745D01*
X93879630Y-49985750D01*
X93859435Y-50164996D01*
X93859435Y-50165003D01*
X93879630Y-50344249D01*
X93879631Y-50344254D01*
X93939211Y-50514523D01*
X94031227Y-50660964D01*
X94035184Y-50667262D01*
X94162738Y-50794816D01*
X94165428Y-50796506D01*
X94294355Y-50877517D01*
X94315478Y-50890789D01*
X94447907Y-50937128D01*
X94485745Y-50950368D01*
X94485750Y-50950369D01*
X94664996Y-50970565D01*
X94665000Y-50970565D01*
X94665004Y-50970565D01*
X94844249Y-50950369D01*
X94844252Y-50950368D01*
X94844255Y-50950368D01*
X95014522Y-50890789D01*
X95167262Y-50794816D01*
X95215259Y-50746819D01*
X95276582Y-50713334D01*
X95302940Y-50710500D01*
X99512524Y-50710500D01*
X99579563Y-50730185D01*
X99625318Y-50782989D01*
X99635744Y-50848386D01*
X99634435Y-50860001D01*
X99634435Y-50860003D01*
X99654630Y-51039249D01*
X99654631Y-51039254D01*
X99714211Y-51209523D01*
X99739617Y-51249956D01*
X99810184Y-51362262D01*
X99937738Y-51489816D01*
X99994560Y-51525520D01*
X100004925Y-51533785D01*
X100005271Y-51533335D01*
X100137157Y-51634535D01*
X100137158Y-51634535D01*
X100137159Y-51634536D01*
X100283238Y-51695044D01*
X100361619Y-51705363D01*
X100439999Y-51715682D01*
X100440000Y-51715682D01*
X100440001Y-51715682D01*
X100492254Y-51708802D01*
X100596762Y-51695044D01*
X100742841Y-51634536D01*
X100805933Y-51586123D01*
X100871102Y-51560930D01*
X100881419Y-51560500D01*
X102792513Y-51560500D01*
X102808697Y-51561560D01*
X102840000Y-51565682D01*
X102840001Y-51565682D01*
X102892254Y-51558802D01*
X102996762Y-51545044D01*
X103142841Y-51484536D01*
X103211675Y-51431718D01*
X103268282Y-51388282D01*
X103287509Y-51363223D01*
X103298190Y-51351043D01*
X104208535Y-50440698D01*
X104269856Y-50407215D01*
X104282311Y-50405163D01*
X104369255Y-50395368D01*
X104539522Y-50335789D01*
X104692262Y-50239816D01*
X104819816Y-50112262D01*
X104860506Y-50047503D01*
X104912841Y-50001213D01*
X104981894Y-49990565D01*
X105045743Y-50018940D01*
X105084115Y-50077330D01*
X105089500Y-50113476D01*
X105089500Y-51559902D01*
X105069815Y-51626941D01*
X105053181Y-51647583D01*
X103671465Y-53029298D01*
X103610142Y-53062783D01*
X103597668Y-53064837D01*
X103510750Y-53074630D01*
X103340478Y-53134210D01*
X103187737Y-53230184D01*
X103060184Y-53357737D01*
X102964210Y-53510478D01*
X102958235Y-53527554D01*
X102917512Y-53584329D01*
X102852559Y-53610075D01*
X102783997Y-53596618D01*
X102753513Y-53574278D01*
X102398199Y-53218964D01*
X102387503Y-53206767D01*
X102368286Y-53181722D01*
X102368283Y-53181720D01*
X102368282Y-53181718D01*
X102242841Y-53085464D01*
X102235685Y-53082500D01*
X102096762Y-53024956D01*
X102096760Y-53024955D01*
X101940001Y-53004318D01*
X101940000Y-53004318D01*
X101908697Y-53008439D01*
X101892513Y-53009500D01*
X100740097Y-53009500D01*
X100673058Y-52989815D01*
X100652416Y-52973181D01*
X100448199Y-52768964D01*
X100437504Y-52756769D01*
X100418283Y-52731719D01*
X100385280Y-52706395D01*
X100292841Y-52635464D01*
X100146762Y-52574956D01*
X100146760Y-52574955D01*
X100029361Y-52559500D01*
X99990000Y-52554318D01*
X99958697Y-52558439D01*
X99942513Y-52559500D01*
X81507487Y-52559500D01*
X81491302Y-52558439D01*
X81460000Y-52554318D01*
X81420639Y-52559500D01*
X81303239Y-52574955D01*
X81303237Y-52574956D01*
X81157157Y-52635464D01*
X81031718Y-52731716D01*
X81012489Y-52756775D01*
X81001798Y-52768965D01*
X80547582Y-53223181D01*
X80486259Y-53256666D01*
X80459901Y-53259500D01*
X79112129Y-53259500D01*
X79112123Y-53259501D01*
X79052516Y-53265908D01*
X78917671Y-53316202D01*
X78917664Y-53316206D01*
X78802455Y-53402452D01*
X78802452Y-53402455D01*
X78716206Y-53517664D01*
X78716202Y-53517671D01*
X78665908Y-53652517D01*
X78659501Y-53712116D01*
X78659500Y-53712135D01*
X78659500Y-55507870D01*
X78659501Y-55507876D01*
X78665908Y-55567483D01*
X78716202Y-55702328D01*
X78716206Y-55702335D01*
X78802452Y-55817544D01*
X78802455Y-55817547D01*
X78917664Y-55903793D01*
X78917671Y-55903797D01*
X78977887Y-55926256D01*
X79049598Y-55953002D01*
X79105531Y-55994873D01*
X79129949Y-56060337D01*
X79115098Y-56128610D01*
X79093947Y-56156865D01*
X78971886Y-56278926D01*
X78836400Y-56472420D01*
X78836399Y-56472422D01*
X78736570Y-56686507D01*
X78736567Y-56686513D01*
X78679364Y-56899999D01*
X78679364Y-56900000D01*
X79576314Y-56900000D01*
X79550507Y-56940156D01*
X79510000Y-57078111D01*
X79510000Y-57221889D01*
X79550507Y-57359844D01*
X79576314Y-57400000D01*
X78679364Y-57400000D01*
X78736567Y-57613486D01*
X78736570Y-57613492D01*
X78836399Y-57827578D01*
X78971894Y-58021082D01*
X79138917Y-58188105D01*
X79332421Y-58323600D01*
X79546507Y-58423429D01*
X79546516Y-58423433D01*
X79760000Y-58480634D01*
X79760000Y-57585501D01*
X79867685Y-57634680D01*
X79974237Y-57650000D01*
X80045763Y-57650000D01*
X80152315Y-57634680D01*
X80260000Y-57585501D01*
X80260000Y-58480633D01*
X80473483Y-58423433D01*
X80473492Y-58423429D01*
X80687578Y-58323600D01*
X80881082Y-58188105D01*
X81048105Y-58021082D01*
X81183600Y-57827578D01*
X81283429Y-57613492D01*
X81283432Y-57613486D01*
X81340636Y-57400000D01*
X80443686Y-57400000D01*
X80469493Y-57359844D01*
X80510000Y-57221889D01*
X80510000Y-57078111D01*
X80469493Y-56940156D01*
X80443686Y-56900000D01*
X81340636Y-56900000D01*
X81340635Y-56899999D01*
X81283432Y-56686513D01*
X81283429Y-56686507D01*
X81183600Y-56472422D01*
X81183599Y-56472420D01*
X81048113Y-56278926D01*
X81048108Y-56278920D01*
X80926053Y-56156865D01*
X80892568Y-56095542D01*
X80897552Y-56025850D01*
X80939424Y-55969917D01*
X80970400Y-55953002D01*
X81102331Y-55903796D01*
X81217546Y-55817546D01*
X81303796Y-55702331D01*
X81354091Y-55567483D01*
X81360500Y-55507873D01*
X81360499Y-54160096D01*
X81380184Y-54093058D01*
X81396818Y-54072416D01*
X81672416Y-53796819D01*
X81733739Y-53763334D01*
X81760097Y-53760500D01*
X98358842Y-53760500D01*
X98425881Y-53780185D01*
X98471636Y-53832989D01*
X98481580Y-53902147D01*
X98452555Y-53965703D01*
X98442631Y-53975229D01*
X98442662Y-53975260D01*
X98310184Y-54107737D01*
X98218102Y-54254285D01*
X98165767Y-54300576D01*
X98126992Y-54311533D01*
X98010749Y-54324630D01*
X98010745Y-54324631D01*
X97840476Y-54384211D01*
X97687737Y-54480184D01*
X97560184Y-54607737D01*
X97464210Y-54760478D01*
X97404630Y-54930750D01*
X97394837Y-55017668D01*
X97367770Y-55082082D01*
X97359298Y-55091465D01*
X96077584Y-56373181D01*
X96016261Y-56406666D01*
X95989903Y-56409500D01*
X95021245Y-56409500D01*
X95005060Y-56408439D01*
X94973758Y-56404318D01*
X94934397Y-56409500D01*
X94816997Y-56424955D01*
X94816995Y-56424956D01*
X94670918Y-56485463D01*
X94545472Y-56581721D01*
X94526253Y-56606769D01*
X94515558Y-56618964D01*
X83548965Y-67585556D01*
X83536775Y-67596247D01*
X83511720Y-67615473D01*
X83511718Y-67615476D01*
X83472051Y-67667171D01*
X83472050Y-67667171D01*
X83415464Y-67740915D01*
X83354956Y-67886995D01*
X83354955Y-67886997D01*
X83334318Y-68043756D01*
X83334318Y-68043757D01*
X83338439Y-68075059D01*
X83339500Y-68091245D01*
X83339500Y-72185500D01*
X83319815Y-72252539D01*
X83267011Y-72298294D01*
X83215501Y-72309500D01*
X83042130Y-72309500D01*
X83042123Y-72309501D01*
X82982516Y-72315908D01*
X82847671Y-72366202D01*
X82847664Y-72366206D01*
X82732455Y-72452452D01*
X82732452Y-72452455D01*
X82646206Y-72567664D01*
X82646202Y-72567671D01*
X82595908Y-72702517D01*
X82589501Y-72762116D01*
X82589500Y-72762135D01*
X82589500Y-74557870D01*
X82589501Y-74557876D01*
X82595908Y-74617483D01*
X82646202Y-74752328D01*
X82646206Y-74752335D01*
X82732452Y-74867544D01*
X82732455Y-74867547D01*
X82847664Y-74953793D01*
X82847671Y-74953797D01*
X82982517Y-75004091D01*
X82982516Y-75004091D01*
X82989444Y-75004835D01*
X83042127Y-75010500D01*
X84837872Y-75010499D01*
X84897483Y-75004091D01*
X85032331Y-74953796D01*
X85147546Y-74867546D01*
X85233796Y-74752331D01*
X85282810Y-74620916D01*
X85324681Y-74564984D01*
X85390145Y-74540566D01*
X85458418Y-74555417D01*
X85486673Y-74576569D01*
X85608599Y-74698495D01*
X85705384Y-74766265D01*
X85802165Y-74834032D01*
X85802167Y-74834033D01*
X85802170Y-74834035D01*
X86016337Y-74933903D01*
X86244592Y-74995063D01*
X86421034Y-75010500D01*
X86479999Y-75015659D01*
X86480000Y-75015659D01*
X86480001Y-75015659D01*
X86538966Y-75010500D01*
X86715408Y-74995063D01*
X86943663Y-74933903D01*
X87157830Y-74834035D01*
X87351401Y-74698495D01*
X87518495Y-74531401D01*
X87648425Y-74345842D01*
X87703002Y-74302217D01*
X87772500Y-74295023D01*
X87834855Y-74326546D01*
X87851575Y-74345842D01*
X87981500Y-74531395D01*
X87981505Y-74531401D01*
X88148599Y-74698495D01*
X88245384Y-74766265D01*
X88342165Y-74834032D01*
X88342167Y-74834033D01*
X88342170Y-74834035D01*
X88556337Y-74933903D01*
X88784592Y-74995063D01*
X88961034Y-75010500D01*
X89019999Y-75015659D01*
X89020000Y-75015659D01*
X89020001Y-75015659D01*
X89078966Y-75010500D01*
X89255408Y-74995063D01*
X89483663Y-74933903D01*
X89697830Y-74834035D01*
X89891401Y-74698495D01*
X90058495Y-74531401D01*
X90188425Y-74345842D01*
X90243002Y-74302217D01*
X90312500Y-74295023D01*
X90374855Y-74326546D01*
X90391575Y-74345842D01*
X90521500Y-74531395D01*
X90521505Y-74531401D01*
X90688599Y-74698495D01*
X90785384Y-74766265D01*
X90882165Y-74834032D01*
X90882167Y-74834033D01*
X90882170Y-74834035D01*
X91096337Y-74933903D01*
X91324592Y-74995063D01*
X91501034Y-75010500D01*
X91559999Y-75015659D01*
X91560000Y-75015659D01*
X91560001Y-75015659D01*
X91618966Y-75010500D01*
X91795408Y-74995063D01*
X92023663Y-74933903D01*
X92237830Y-74834035D01*
X92431401Y-74698495D01*
X92598495Y-74531401D01*
X92728425Y-74345842D01*
X92783002Y-74302217D01*
X92852500Y-74295023D01*
X92914855Y-74326546D01*
X92931575Y-74345842D01*
X93061500Y-74531395D01*
X93061505Y-74531401D01*
X93228599Y-74698495D01*
X93325384Y-74766265D01*
X93422165Y-74834032D01*
X93422167Y-74834033D01*
X93422170Y-74834035D01*
X93636337Y-74933903D01*
X93864592Y-74995063D01*
X94041034Y-75010500D01*
X94099999Y-75015659D01*
X94100000Y-75015659D01*
X94100001Y-75015659D01*
X94158966Y-75010500D01*
X94335408Y-74995063D01*
X94563663Y-74933903D01*
X94777830Y-74834035D01*
X94971401Y-74698495D01*
X95138495Y-74531401D01*
X95268425Y-74345842D01*
X95323002Y-74302217D01*
X95392500Y-74295023D01*
X95454855Y-74326546D01*
X95471575Y-74345842D01*
X95601500Y-74531395D01*
X95601505Y-74531401D01*
X95768599Y-74698495D01*
X95865384Y-74766265D01*
X95962165Y-74834032D01*
X95962167Y-74834033D01*
X95962170Y-74834035D01*
X96176337Y-74933903D01*
X96404592Y-74995063D01*
X96581034Y-75010500D01*
X96639999Y-75015659D01*
X96640000Y-75015659D01*
X96640001Y-75015659D01*
X96698966Y-75010500D01*
X96875408Y-74995063D01*
X97103663Y-74933903D01*
X97317830Y-74834035D01*
X97511401Y-74698495D01*
X97678495Y-74531401D01*
X97808425Y-74345842D01*
X97863002Y-74302217D01*
X97932500Y-74295023D01*
X97994855Y-74326546D01*
X98011575Y-74345842D01*
X98141500Y-74531395D01*
X98141505Y-74531401D01*
X98308599Y-74698495D01*
X98405384Y-74766265D01*
X98502165Y-74834032D01*
X98502167Y-74834033D01*
X98502170Y-74834035D01*
X98716337Y-74933903D01*
X98944592Y-74995063D01*
X99121034Y-75010500D01*
X99179999Y-75015659D01*
X99180000Y-75015659D01*
X99180001Y-75015659D01*
X99238966Y-75010500D01*
X99415408Y-74995063D01*
X99643663Y-74933903D01*
X99857830Y-74834035D01*
X100051401Y-74698495D01*
X100218495Y-74531401D01*
X100348730Y-74345405D01*
X100403307Y-74301781D01*
X100472805Y-74294587D01*
X100535160Y-74326110D01*
X100551879Y-74345405D01*
X100681890Y-74531078D01*
X100848917Y-74698105D01*
X101042421Y-74833600D01*
X101256507Y-74933429D01*
X101256516Y-74933433D01*
X101470000Y-74990634D01*
X101470000Y-74095501D01*
X101577685Y-74144680D01*
X101684237Y-74160000D01*
X101755763Y-74160000D01*
X101862315Y-74144680D01*
X101970000Y-74095501D01*
X101970000Y-74990633D01*
X102183483Y-74933433D01*
X102183492Y-74933429D01*
X102397578Y-74833600D01*
X102591082Y-74698105D01*
X102758105Y-74531082D01*
X102888119Y-74345405D01*
X102942696Y-74301781D01*
X103012195Y-74294588D01*
X103074549Y-74326110D01*
X103091269Y-74345405D01*
X103221505Y-74531401D01*
X103388599Y-74698495D01*
X103485384Y-74766265D01*
X103582165Y-74834032D01*
X103582167Y-74834033D01*
X103582170Y-74834035D01*
X103796337Y-74933903D01*
X104024592Y-74995063D01*
X104201034Y-75010500D01*
X104259999Y-75015659D01*
X104260000Y-75015659D01*
X104260001Y-75015659D01*
X104318966Y-75010500D01*
X104495408Y-74995063D01*
X104723663Y-74933903D01*
X104937830Y-74834035D01*
X105131401Y-74698495D01*
X105298495Y-74531401D01*
X105434035Y-74337830D01*
X105533903Y-74123663D01*
X105595063Y-73895408D01*
X105615659Y-73660000D01*
X105595063Y-73424592D01*
X105533903Y-73196337D01*
X105434035Y-72982171D01*
X105431468Y-72978504D01*
X105298494Y-72788597D01*
X105131402Y-72621506D01*
X105131395Y-72621501D01*
X104937834Y-72485967D01*
X104937830Y-72485965D01*
X104901060Y-72468819D01*
X104723663Y-72386097D01*
X104723659Y-72386096D01*
X104723655Y-72386094D01*
X104495413Y-72324938D01*
X104495403Y-72324936D01*
X104260001Y-72304341D01*
X104259999Y-72304341D01*
X104024596Y-72324936D01*
X104024586Y-72324938D01*
X103796344Y-72386094D01*
X103796335Y-72386098D01*
X103582171Y-72485964D01*
X103582169Y-72485965D01*
X103388597Y-72621505D01*
X103221508Y-72788594D01*
X103091269Y-72974595D01*
X103036692Y-73018219D01*
X102967193Y-73025412D01*
X102904839Y-72993890D01*
X102888119Y-72974594D01*
X102758113Y-72788926D01*
X102758108Y-72788920D01*
X102591082Y-72621894D01*
X102397578Y-72486399D01*
X102183492Y-72386570D01*
X102183486Y-72386567D01*
X101970000Y-72329364D01*
X101970000Y-73224498D01*
X101862315Y-73175320D01*
X101755763Y-73160000D01*
X101684237Y-73160000D01*
X101577685Y-73175320D01*
X101470000Y-73224498D01*
X101470000Y-72329364D01*
X101469999Y-72329364D01*
X101256513Y-72386567D01*
X101256507Y-72386570D01*
X101042422Y-72486399D01*
X101042420Y-72486400D01*
X100848926Y-72621886D01*
X100848920Y-72621891D01*
X100681891Y-72788920D01*
X100681890Y-72788922D01*
X100551880Y-72974595D01*
X100497303Y-73018219D01*
X100427804Y-73025412D01*
X100365450Y-72993890D01*
X100348730Y-72974594D01*
X100218494Y-72788597D01*
X100051402Y-72621506D01*
X100051395Y-72621501D01*
X99857834Y-72485967D01*
X99857830Y-72485965D01*
X99821060Y-72468819D01*
X99643663Y-72386097D01*
X99643659Y-72386096D01*
X99643655Y-72386094D01*
X99415413Y-72324938D01*
X99415403Y-72324936D01*
X99180001Y-72304341D01*
X99179999Y-72304341D01*
X98944596Y-72324936D01*
X98944586Y-72324938D01*
X98716344Y-72386094D01*
X98716335Y-72386097D01*
X98502164Y-72485968D01*
X98497723Y-72488532D01*
X98429821Y-72504997D01*
X98363797Y-72482138D01*
X98348054Y-72468819D01*
X95276819Y-69397584D01*
X95243334Y-69336261D01*
X95240500Y-69309903D01*
X95240500Y-68300783D01*
X95260185Y-68233744D01*
X95276819Y-68213102D01*
X99243102Y-64246819D01*
X99304425Y-64213334D01*
X99330783Y-64210500D01*
X100107588Y-64210500D01*
X100174627Y-64230185D01*
X100184903Y-64237555D01*
X100187736Y-64239814D01*
X100187738Y-64239816D01*
X100340478Y-64335789D01*
X100510745Y-64395368D01*
X100510750Y-64395369D01*
X100689996Y-64415565D01*
X100690000Y-64415565D01*
X100690004Y-64415565D01*
X100869249Y-64395369D01*
X100869252Y-64395368D01*
X100869255Y-64395368D01*
X101039522Y-64335789D01*
X101192262Y-64239816D01*
X101319816Y-64112262D01*
X101342515Y-64076135D01*
X101394847Y-64029844D01*
X101463900Y-64019194D01*
X101527749Y-64047568D01*
X101535190Y-64054425D01*
X101903181Y-64422416D01*
X101936666Y-64483739D01*
X101939500Y-64510097D01*
X101939500Y-66662512D01*
X101938439Y-66678697D01*
X101934318Y-66709998D01*
X101934318Y-66710000D01*
X101939500Y-66749360D01*
X101939500Y-66749361D01*
X101954955Y-66866760D01*
X101954956Y-66866762D01*
X102006774Y-66991863D01*
X102015464Y-67012841D01*
X102080425Y-67097500D01*
X102111719Y-67138283D01*
X102136769Y-67157504D01*
X102148964Y-67168199D01*
X107833681Y-72852916D01*
X107867166Y-72914239D01*
X107870000Y-72940597D01*
X107870000Y-73410000D01*
X108786314Y-73410000D01*
X108760507Y-73450156D01*
X108720000Y-73588111D01*
X108720000Y-73731889D01*
X108760507Y-73869844D01*
X108786314Y-73910000D01*
X107870000Y-73910000D01*
X107870000Y-74557844D01*
X107876401Y-74617372D01*
X107876403Y-74617379D01*
X107926645Y-74752086D01*
X107926649Y-74752093D01*
X108012809Y-74867187D01*
X108012812Y-74867190D01*
X108127906Y-74953350D01*
X108127913Y-74953354D01*
X108262620Y-75003596D01*
X108262627Y-75003598D01*
X108316690Y-75009411D01*
X108381241Y-75036149D01*
X108421090Y-75093541D01*
X108423583Y-75163366D01*
X108387931Y-75223455D01*
X108325451Y-75254730D01*
X108303678Y-75256700D01*
X81370293Y-75309390D01*
X81348124Y-75307436D01*
X81338662Y-75305736D01*
X81338656Y-75305735D01*
X81324403Y-75306936D01*
X81255948Y-75292945D01*
X81205925Y-75244166D01*
X81190000Y-75183373D01*
X81190000Y-72609999D01*
X80523267Y-71609901D01*
X80190000Y-71110000D01*
X80189999Y-71109999D01*
X77270289Y-70639078D01*
X77207239Y-70608970D01*
X77170476Y-70549554D01*
X77166035Y-70516531D01*
X77189073Y-50378373D01*
X77208834Y-50311358D01*
X77261691Y-50265664D01*
X77268086Y-50262966D01*
X79975706Y-49210003D01*
X88684435Y-49210003D01*
X88704630Y-49389249D01*
X88704631Y-49389254D01*
X88764211Y-49559523D01*
X88846333Y-49690219D01*
X88860184Y-49712262D01*
X88987738Y-49839816D01*
X89036291Y-49870324D01*
X89124935Y-49926023D01*
X89140478Y-49935789D01*
X89237859Y-49969864D01*
X89310745Y-49995368D01*
X89310750Y-49995369D01*
X89489996Y-50015565D01*
X89490000Y-50015565D01*
X89490004Y-50015565D01*
X89669249Y-49995369D01*
X89669252Y-49995368D01*
X89669255Y-49995368D01*
X89839522Y-49935789D01*
X89992262Y-49839816D01*
X90119816Y-49712262D01*
X90215789Y-49559522D01*
X90275368Y-49389255D01*
X90275369Y-49389249D01*
X90295565Y-49210003D01*
X90295565Y-49209996D01*
X90275369Y-49030750D01*
X90275368Y-49030745D01*
X90240376Y-48930743D01*
X90215789Y-48860478D01*
X90119816Y-48707738D01*
X90119814Y-48707736D01*
X90119813Y-48707734D01*
X90117550Y-48704896D01*
X90116659Y-48702715D01*
X90116111Y-48701842D01*
X90116264Y-48701745D01*
X90091144Y-48640209D01*
X90090500Y-48627587D01*
X90090500Y-47537412D01*
X90110185Y-47470373D01*
X90117555Y-47460097D01*
X90119810Y-47457267D01*
X90119816Y-47457262D01*
X90215789Y-47304522D01*
X90275368Y-47134255D01*
X90277618Y-47114288D01*
X90295565Y-46955003D01*
X90295565Y-46954996D01*
X90275369Y-46775750D01*
X90275368Y-46775745D01*
X90215788Y-46605476D01*
X90119815Y-46452737D01*
X89992262Y-46325184D01*
X89839523Y-46229211D01*
X89669254Y-46169631D01*
X89669249Y-46169630D01*
X89490004Y-46149435D01*
X89489996Y-46149435D01*
X89310750Y-46169630D01*
X89310745Y-46169631D01*
X89140476Y-46229211D01*
X88987737Y-46325184D01*
X88860184Y-46452737D01*
X88764211Y-46605476D01*
X88704631Y-46775745D01*
X88704630Y-46775750D01*
X88684435Y-46954996D01*
X88684435Y-46955003D01*
X88704630Y-47134249D01*
X88704631Y-47134254D01*
X88764211Y-47304523D01*
X88775759Y-47322901D01*
X88859558Y-47456266D01*
X88860185Y-47457263D01*
X88862445Y-47460097D01*
X88863334Y-47462275D01*
X88863889Y-47463158D01*
X88863734Y-47463255D01*
X88888855Y-47524783D01*
X88889500Y-47537412D01*
X88889500Y-48627587D01*
X88869815Y-48694626D01*
X88862450Y-48704896D01*
X88860186Y-48707734D01*
X88764211Y-48860476D01*
X88704631Y-49030745D01*
X88704630Y-49030750D01*
X88684435Y-49209996D01*
X88684435Y-49210003D01*
X79975706Y-49210003D01*
X80490000Y-49010000D01*
X80575443Y-48860476D01*
X81561855Y-47134254D01*
X82783633Y-44996141D01*
X82833983Y-44947704D01*
X82891134Y-44933665D01*
X120898325Y-44885615D01*
X120919562Y-44888399D01*
G37*
%TD.AperFunction*%
%TA.AperFunction,Conductor*%
G36*
X98500407Y-55926256D02*
G01*
X98509334Y-55936646D01*
X98511718Y-55939753D01*
X98511720Y-55939754D01*
X98511722Y-55939757D01*
X98536767Y-55958974D01*
X98548964Y-55969670D01*
X99039208Y-56459914D01*
X99072693Y-56521237D01*
X99067709Y-56590929D01*
X99056521Y-56613567D01*
X98964211Y-56760476D01*
X98904631Y-56930745D01*
X98904630Y-56930750D01*
X98884435Y-57109996D01*
X98884435Y-57110003D01*
X98904630Y-57289249D01*
X98904631Y-57289254D01*
X98964211Y-57459523D01*
X99049365Y-57595043D01*
X99060184Y-57612262D01*
X99187738Y-57739816D01*
X99244560Y-57775520D01*
X99254925Y-57783785D01*
X99255271Y-57783335D01*
X99286769Y-57807504D01*
X99298964Y-57818199D01*
X101053181Y-59572416D01*
X101086666Y-59633739D01*
X101089500Y-59660097D01*
X101089500Y-62726936D01*
X101069815Y-62793975D01*
X101017011Y-62839730D01*
X100947853Y-62849674D01*
X100924547Y-62843978D01*
X100869260Y-62824633D01*
X100869249Y-62824630D01*
X100690004Y-62804435D01*
X100689996Y-62804435D01*
X100615040Y-62812880D01*
X100546218Y-62800825D01*
X100494839Y-62753476D01*
X100477936Y-62703542D01*
X100475368Y-62680745D01*
X100415789Y-62510478D01*
X100319816Y-62357738D01*
X100192262Y-62230184D01*
X100186407Y-62226505D01*
X100039523Y-62134211D01*
X99869254Y-62074631D01*
X99869250Y-62074630D01*
X99753008Y-62061533D01*
X99688594Y-62034466D01*
X99661898Y-62004285D01*
X99593461Y-61895369D01*
X99569816Y-61857738D01*
X99442262Y-61730184D01*
X99386337Y-61695044D01*
X99289523Y-61634211D01*
X99119254Y-61574631D01*
X99119249Y-61574630D01*
X98940004Y-61554435D01*
X98939996Y-61554435D01*
X98760750Y-61574630D01*
X98760742Y-61574632D01*
X98668323Y-61606971D01*
X98598544Y-61610532D01*
X98539688Y-61577610D01*
X98442262Y-61480184D01*
X98289523Y-61384211D01*
X98119254Y-61324631D01*
X98119249Y-61324630D01*
X97940004Y-61304435D01*
X97939996Y-61304435D01*
X97760750Y-61324630D01*
X97760745Y-61324631D01*
X97590476Y-61384211D01*
X97437737Y-61480184D01*
X97310184Y-61607737D01*
X97214211Y-61760476D01*
X97154631Y-61930745D01*
X97154630Y-61930750D01*
X97134435Y-62109996D01*
X97134435Y-62110003D01*
X97154630Y-62289249D01*
X97154633Y-62289262D01*
X97214208Y-62459517D01*
X97243154Y-62505585D01*
X97262153Y-62572822D01*
X97241784Y-62639657D01*
X97225840Y-62659237D01*
X92898965Y-66986113D01*
X92886775Y-66996804D01*
X92861716Y-67016033D01*
X92808442Y-67085464D01*
X92765464Y-67141473D01*
X92765461Y-67141478D01*
X92704957Y-67287549D01*
X92704955Y-67287554D01*
X92684318Y-67444313D01*
X92684318Y-67444314D01*
X92688439Y-67475616D01*
X92689500Y-67491802D01*
X92689500Y-71609901D01*
X92669815Y-71676940D01*
X92653181Y-71697582D01*
X92027756Y-72323006D01*
X91966433Y-72356491D01*
X91907983Y-72355100D01*
X91795416Y-72324939D01*
X91795412Y-72324938D01*
X91795408Y-72324937D01*
X91795406Y-72324936D01*
X91795403Y-72324936D01*
X91560001Y-72304341D01*
X91559999Y-72304341D01*
X91324596Y-72324936D01*
X91324586Y-72324938D01*
X91096344Y-72386094D01*
X91096335Y-72386098D01*
X90882171Y-72485964D01*
X90882169Y-72485965D01*
X90688597Y-72621505D01*
X90521505Y-72788597D01*
X90391575Y-72974158D01*
X90336998Y-73017783D01*
X90267500Y-73024977D01*
X90205145Y-72993454D01*
X90188425Y-72974158D01*
X90058494Y-72788597D01*
X89891402Y-72621506D01*
X89891395Y-72621501D01*
X89697834Y-72485967D01*
X89697830Y-72485965D01*
X89661060Y-72468819D01*
X89483663Y-72386097D01*
X89483659Y-72386096D01*
X89483655Y-72386094D01*
X89255413Y-72324938D01*
X89255403Y-72324936D01*
X89020001Y-72304341D01*
X89019999Y-72304341D01*
X88784596Y-72324936D01*
X88784586Y-72324938D01*
X88556344Y-72386094D01*
X88556335Y-72386098D01*
X88342171Y-72485964D01*
X88342169Y-72485965D01*
X88148597Y-72621505D01*
X87981505Y-72788597D01*
X87851575Y-72974158D01*
X87796998Y-73017783D01*
X87727500Y-73024977D01*
X87665145Y-72993454D01*
X87648425Y-72974158D01*
X87518494Y-72788597D01*
X87351402Y-72621506D01*
X87351395Y-72621501D01*
X87157834Y-72485967D01*
X87157830Y-72485965D01*
X87121060Y-72468819D01*
X86943663Y-72386097D01*
X86943659Y-72386096D01*
X86943655Y-72386094D01*
X86715413Y-72324938D01*
X86715403Y-72324936D01*
X86480001Y-72304341D01*
X86479999Y-72304341D01*
X86244596Y-72324936D01*
X86244586Y-72324938D01*
X86016344Y-72386094D01*
X86016335Y-72386098D01*
X85802171Y-72485964D01*
X85802169Y-72485965D01*
X85608600Y-72621503D01*
X85486673Y-72743430D01*
X85425350Y-72776914D01*
X85355658Y-72771930D01*
X85299725Y-72730058D01*
X85282810Y-72699081D01*
X85233797Y-72567671D01*
X85233793Y-72567664D01*
X85147547Y-72452455D01*
X85147544Y-72452452D01*
X85032335Y-72366206D01*
X85032328Y-72366202D01*
X84897482Y-72315908D01*
X84897483Y-72315908D01*
X84837883Y-72309501D01*
X84837881Y-72309500D01*
X84837873Y-72309500D01*
X84837865Y-72309500D01*
X84664500Y-72309500D01*
X84597461Y-72289815D01*
X84551706Y-72237011D01*
X84540500Y-72185500D01*
X84540500Y-68343855D01*
X84560185Y-68276816D01*
X84576819Y-68256174D01*
X95186174Y-57646819D01*
X95247497Y-57613334D01*
X95273855Y-57610500D01*
X96242513Y-57610500D01*
X96258697Y-57611560D01*
X96290000Y-57615682D01*
X96290001Y-57615682D01*
X96350341Y-57607738D01*
X96446762Y-57595044D01*
X96592841Y-57534536D01*
X96605326Y-57524956D01*
X96718282Y-57438282D01*
X96737509Y-57413223D01*
X96748190Y-57401043D01*
X98208535Y-55940698D01*
X98269856Y-55907215D01*
X98282311Y-55905163D01*
X98369255Y-55895368D01*
X98370001Y-55895106D01*
X98370513Y-55895080D01*
X98376039Y-55893819D01*
X98376259Y-55894786D01*
X98439775Y-55891536D01*
X98500407Y-55926256D01*
G37*
%TD.AperFunction*%
%TA.AperFunction,Conductor*%
G36*
X104082779Y-56616408D02*
G01*
X104124766Y-56644001D01*
X105981799Y-58501034D01*
X105992493Y-58513228D01*
X106011718Y-58538282D01*
X106031211Y-58553239D01*
X106098287Y-58604708D01*
X106098288Y-58604710D01*
X106129821Y-58628905D01*
X106137159Y-58634536D01*
X106137161Y-58634536D01*
X106137163Y-58634538D01*
X106210198Y-58664790D01*
X106283238Y-58695044D01*
X106361619Y-58705363D01*
X106439999Y-58715682D01*
X106440000Y-58715682D01*
X106471302Y-58711560D01*
X106487487Y-58710500D01*
X106607588Y-58710500D01*
X106674627Y-58730185D01*
X106684903Y-58737555D01*
X106687736Y-58739814D01*
X106687738Y-58739816D01*
X106840478Y-58835789D01*
X107010745Y-58895368D01*
X107010750Y-58895369D01*
X107189996Y-58915565D01*
X107190000Y-58915565D01*
X107190004Y-58915565D01*
X107369249Y-58895369D01*
X107369252Y-58895368D01*
X107369255Y-58895368D01*
X107539522Y-58835789D01*
X107649527Y-58766667D01*
X107716764Y-58747667D01*
X107783599Y-58768034D01*
X107828814Y-58821302D01*
X107839500Y-58871661D01*
X107839500Y-60309903D01*
X107819815Y-60376942D01*
X107803181Y-60397584D01*
X107727584Y-60473181D01*
X107666261Y-60506666D01*
X107639903Y-60509500D01*
X106272412Y-60509500D01*
X106205373Y-60489815D01*
X106195097Y-60482445D01*
X106192263Y-60480185D01*
X106192262Y-60480184D01*
X106135496Y-60444515D01*
X106039523Y-60384211D01*
X105869254Y-60324631D01*
X105869249Y-60324630D01*
X105690004Y-60304435D01*
X105689996Y-60304435D01*
X105510750Y-60324630D01*
X105510745Y-60324631D01*
X105340476Y-60384211D01*
X105187737Y-60480184D01*
X105060184Y-60607737D01*
X104964211Y-60760476D01*
X104904631Y-60930745D01*
X104904630Y-60930750D01*
X104884435Y-61109996D01*
X104884435Y-61110003D01*
X104904630Y-61289249D01*
X104904631Y-61289254D01*
X104964211Y-61459523D01*
X105013699Y-61538282D01*
X105060184Y-61612262D01*
X105187738Y-61739816D01*
X105278080Y-61796582D01*
X105310723Y-61817093D01*
X105340478Y-61835789D01*
X105403202Y-61857737D01*
X105510745Y-61895368D01*
X105510750Y-61895369D01*
X105689996Y-61915565D01*
X105690000Y-61915565D01*
X105690004Y-61915565D01*
X105869249Y-61895369D01*
X105869252Y-61895368D01*
X105869255Y-61895368D01*
X106039522Y-61835789D01*
X106192262Y-61739816D01*
X106192267Y-61739810D01*
X106195097Y-61737555D01*
X106197275Y-61736665D01*
X106198158Y-61736111D01*
X106198255Y-61736265D01*
X106259783Y-61711145D01*
X106272412Y-61710500D01*
X107892513Y-61710500D01*
X107908697Y-61711560D01*
X107940000Y-61715682D01*
X107940001Y-61715682D01*
X107992254Y-61708802D01*
X108096762Y-61695044D01*
X108242841Y-61634536D01*
X108277765Y-61607738D01*
X108368282Y-61538282D01*
X108387509Y-61513223D01*
X108398190Y-61501043D01*
X108831043Y-61068190D01*
X108843223Y-61057509D01*
X108868282Y-61038282D01*
X108964536Y-60912841D01*
X109025044Y-60766762D01*
X109040500Y-60649361D01*
X109045682Y-60610000D01*
X109041561Y-60578697D01*
X109040500Y-60562512D01*
X109040500Y-57621661D01*
X109060185Y-57554622D01*
X109112989Y-57508867D01*
X109182147Y-57498923D01*
X109230473Y-57516668D01*
X109340475Y-57585788D01*
X109340478Y-57585789D01*
X109510745Y-57645368D01*
X109541795Y-57648866D01*
X109606207Y-57675930D01*
X109645763Y-57733524D01*
X109651132Y-57758201D01*
X109654630Y-57789249D01*
X109714210Y-57959521D01*
X109718213Y-57965891D01*
X109810184Y-58112262D01*
X109937738Y-58239816D01*
X110090478Y-58335789D01*
X110260745Y-58395368D01*
X110347669Y-58405161D01*
X110412080Y-58432226D01*
X110421465Y-58440700D01*
X110481799Y-58501034D01*
X110492493Y-58513228D01*
X110511718Y-58538282D01*
X110531211Y-58553239D01*
X110598287Y-58604708D01*
X110598288Y-58604710D01*
X110629821Y-58628905D01*
X110637159Y-58634536D01*
X110637161Y-58634536D01*
X110637163Y-58634538D01*
X110710198Y-58664790D01*
X110783238Y-58695044D01*
X110861619Y-58705363D01*
X110939999Y-58715682D01*
X110940000Y-58715682D01*
X110971302Y-58711560D01*
X110987487Y-58710500D01*
X112939903Y-58710500D01*
X113006942Y-58730185D01*
X113027584Y-58746819D01*
X113203181Y-58922416D01*
X113236666Y-58983739D01*
X113239500Y-59010097D01*
X113239500Y-61352587D01*
X113219815Y-61419626D01*
X113212450Y-61429896D01*
X113210186Y-61432734D01*
X113114211Y-61585476D01*
X113054631Y-61755745D01*
X113054630Y-61755750D01*
X113034435Y-61934996D01*
X113034435Y-61935003D01*
X113054630Y-62114249D01*
X113054631Y-62114254D01*
X113114211Y-62284523D01*
X113182748Y-62393598D01*
X113210184Y-62437262D01*
X113337738Y-62564816D01*
X113389116Y-62597099D01*
X113456846Y-62639657D01*
X113490478Y-62660789D01*
X113612659Y-62703542D01*
X113660745Y-62720368D01*
X113660750Y-62720369D01*
X113839996Y-62740565D01*
X113840000Y-62740565D01*
X113840004Y-62740565D01*
X114019249Y-62720369D01*
X114019252Y-62720368D01*
X114019255Y-62720368D01*
X114189522Y-62660789D01*
X114342262Y-62564816D01*
X114469816Y-62437262D01*
X114565789Y-62284522D01*
X114625368Y-62114255D01*
X114625847Y-62110003D01*
X114645565Y-61935003D01*
X114645565Y-61934996D01*
X114625369Y-61755750D01*
X114625368Y-61755745D01*
X114619794Y-61739815D01*
X114565789Y-61585478D01*
X114558973Y-61574631D01*
X114520395Y-61513234D01*
X114469816Y-61432738D01*
X114469814Y-61432736D01*
X114469813Y-61432734D01*
X114467550Y-61429896D01*
X114466659Y-61427715D01*
X114466111Y-61426842D01*
X114466264Y-61426745D01*
X114441144Y-61365209D01*
X114440500Y-61352587D01*
X114440500Y-58757487D01*
X114441561Y-58741301D01*
X114445682Y-58710000D01*
X114445682Y-58709998D01*
X114425044Y-58553239D01*
X114425042Y-58553234D01*
X114418848Y-58538281D01*
X114371277Y-58423433D01*
X114364538Y-58407163D01*
X114364535Y-58407158D01*
X114355487Y-58395367D01*
X114292450Y-58313215D01*
X114278761Y-58295375D01*
X114268281Y-58281716D01*
X114243229Y-58262494D01*
X114231034Y-58251799D01*
X113698199Y-57718964D01*
X113687503Y-57706767D01*
X113668284Y-57681720D01*
X113662539Y-57675975D01*
X113663817Y-57674696D01*
X113628587Y-57626445D01*
X113624434Y-57556699D01*
X113658647Y-57495780D01*
X113720365Y-57463028D01*
X113745277Y-57460500D01*
X115539091Y-57460500D01*
X115606130Y-57480185D01*
X115651885Y-57532989D01*
X115656133Y-57543545D01*
X115692270Y-57646819D01*
X115714211Y-57709522D01*
X115810184Y-57862262D01*
X115937738Y-57989816D01*
X116090478Y-58085789D01*
X116260745Y-58145368D01*
X116347669Y-58155161D01*
X116412080Y-58182226D01*
X116421465Y-58190700D01*
X120683584Y-62452819D01*
X120717069Y-62514142D01*
X120712085Y-62583834D01*
X120670213Y-62639767D01*
X120604749Y-62664184D01*
X120595903Y-62664500D01*
X120182487Y-62664500D01*
X120166302Y-62663439D01*
X120135000Y-62659318D01*
X120095639Y-62664500D01*
X119978239Y-62679955D01*
X119978237Y-62679956D01*
X119832160Y-62740463D01*
X119706714Y-62836721D01*
X119687495Y-62861769D01*
X119676800Y-62873964D01*
X116925311Y-65625452D01*
X116913120Y-65636144D01*
X116888064Y-65655371D01*
X116863895Y-65686867D01*
X116863896Y-65686868D01*
X116791810Y-65780812D01*
X116791807Y-65780817D01*
X116731303Y-65926888D01*
X116731301Y-65926893D01*
X116710664Y-66083652D01*
X116710664Y-66083654D01*
X116714785Y-66114955D01*
X116715846Y-66131141D01*
X116715846Y-72201578D01*
X116696161Y-72268617D01*
X116643357Y-72314372D01*
X116609785Y-72323229D01*
X116609921Y-72323998D01*
X116604596Y-72324936D01*
X116604592Y-72324937D01*
X116604587Y-72324938D01*
X116604583Y-72324939D01*
X116476241Y-72359327D01*
X116406392Y-72357664D01*
X116356468Y-72327233D01*
X115248199Y-71218964D01*
X115237503Y-71206767D01*
X115218286Y-71181722D01*
X115218283Y-71181720D01*
X115218282Y-71181718D01*
X115092841Y-71085464D01*
X114946762Y-71024956D01*
X114946760Y-71024955D01*
X114829361Y-71009500D01*
X114790000Y-71004318D01*
X114758697Y-71008439D01*
X114742513Y-71009500D01*
X109240097Y-71009500D01*
X109173058Y-70989815D01*
X109152416Y-70973181D01*
X103576819Y-65397584D01*
X103543334Y-65336261D01*
X103540500Y-65309903D01*
X103540500Y-64609097D01*
X103560185Y-64542058D01*
X103612989Y-64496303D01*
X103682147Y-64486359D01*
X103745703Y-64515384D01*
X103752181Y-64521416D01*
X108359298Y-69128533D01*
X108392783Y-69189856D01*
X108394837Y-69202330D01*
X108404630Y-69289249D01*
X108464210Y-69459521D01*
X108560184Y-69612262D01*
X108687738Y-69739816D01*
X108840478Y-69835789D01*
X109010745Y-69895368D01*
X109010750Y-69895369D01*
X109189996Y-69915565D01*
X109190000Y-69915565D01*
X109190004Y-69915565D01*
X109369249Y-69895369D01*
X109369252Y-69895368D01*
X109369255Y-69895368D01*
X109539522Y-69835789D01*
X109692262Y-69739816D01*
X109819816Y-69612262D01*
X109915789Y-69459522D01*
X109975368Y-69289255D01*
X109975369Y-69289249D01*
X109995565Y-69110003D01*
X109995565Y-69109996D01*
X109975369Y-68930750D01*
X109975368Y-68930745D01*
X109932650Y-68808664D01*
X109915789Y-68760478D01*
X109819816Y-68607738D01*
X109692262Y-68480184D01*
X109539521Y-68384210D01*
X109369249Y-68324630D01*
X109282330Y-68314837D01*
X109217916Y-68287770D01*
X109208533Y-68279298D01*
X103826819Y-62897584D01*
X103793334Y-62836261D01*
X103790500Y-62809903D01*
X103790500Y-57692412D01*
X103810185Y-57625373D01*
X103817555Y-57615097D01*
X103819812Y-57612266D01*
X103819816Y-57612262D01*
X103915789Y-57459522D01*
X103975368Y-57289255D01*
X103975369Y-57289249D01*
X103995565Y-57110003D01*
X103995565Y-57109996D01*
X103975369Y-56930750D01*
X103975366Y-56930737D01*
X103920044Y-56772637D01*
X103916482Y-56702858D01*
X103951210Y-56642231D01*
X104013204Y-56610003D01*
X104082779Y-56616408D01*
G37*
%TD.AperFunction*%
%TA.AperFunction,Conductor*%
G36*
X106455453Y-49876020D02*
G01*
X106467592Y-49880268D01*
X106506455Y-49893867D01*
X106563231Y-49934589D01*
X106588978Y-49999542D01*
X106589500Y-50010908D01*
X106589500Y-57110903D01*
X106569815Y-57177942D01*
X106517011Y-57223697D01*
X106447853Y-57233641D01*
X106384297Y-57204616D01*
X106377819Y-57198584D01*
X103975721Y-54796486D01*
X103942236Y-54735163D01*
X103947220Y-54665471D01*
X103989092Y-54609538D01*
X104022448Y-54591763D01*
X104039522Y-54585789D01*
X104192262Y-54489816D01*
X104319816Y-54362262D01*
X104415789Y-54209522D01*
X104475368Y-54039255D01*
X104485161Y-53952329D01*
X104512226Y-53887918D01*
X104520690Y-53878543D01*
X106081043Y-52318190D01*
X106093223Y-52307509D01*
X106118282Y-52288282D01*
X106214536Y-52162841D01*
X106275044Y-52016762D01*
X106290500Y-51899361D01*
X106295682Y-51860000D01*
X106291561Y-51828697D01*
X106290500Y-51812512D01*
X106290500Y-49993062D01*
X106310185Y-49926023D01*
X106362989Y-49880268D01*
X106432147Y-49870324D01*
X106455453Y-49876020D01*
G37*
%TD.AperFunction*%
%TD*%
M02*
