%TF.GenerationSoftware,KiCad,Pcbnew,7.0.11-rc3*%
%TF.CreationDate,2024-07-02T00:11:53+05:30*%
%TF.ProjectId,MCUdatalogger_V1,4d435564-6174-4616-9c6f-676765725f56,rev?*%
%TF.SameCoordinates,Original*%
%TF.FileFunction,Legend,Top*%
%TF.FilePolarity,Positive*%
%FSLAX46Y46*%
G04 Gerber Fmt 4.6, Leading zero omitted, Abs format (unit mm)*
G04 Created by KiCad (PCBNEW 7.0.11-rc3) date 2024-07-02 00:11:53*
%MOMM*%
%LPD*%
G01*
G04 APERTURE LIST*
%ADD10C,0.125000*%
%ADD11C,0.100000*%
%ADD12C,0.150000*%
%ADD13C,0.062500*%
%ADD14C,0.120000*%
%ADD15C,0.127000*%
%ADD16C,0.200000*%
G04 APERTURE END LIST*
D10*
X82073690Y-57718240D02*
X82035595Y-57794430D01*
X82035595Y-57794430D02*
X82035595Y-57908716D01*
X82035595Y-57908716D02*
X82073690Y-58023002D01*
X82073690Y-58023002D02*
X82149880Y-58099192D01*
X82149880Y-58099192D02*
X82226071Y-58137287D01*
X82226071Y-58137287D02*
X82378452Y-58175383D01*
X82378452Y-58175383D02*
X82492738Y-58175383D01*
X82492738Y-58175383D02*
X82645119Y-58137287D01*
X82645119Y-58137287D02*
X82721309Y-58099192D01*
X82721309Y-58099192D02*
X82797500Y-58023002D01*
X82797500Y-58023002D02*
X82835595Y-57908716D01*
X82835595Y-57908716D02*
X82835595Y-57832525D01*
X82835595Y-57832525D02*
X82797500Y-57718240D01*
X82797500Y-57718240D02*
X82759404Y-57680144D01*
X82759404Y-57680144D02*
X82492738Y-57680144D01*
X82492738Y-57680144D02*
X82492738Y-57832525D01*
X82835595Y-57337287D02*
X82035595Y-57337287D01*
X82035595Y-57337287D02*
X82835595Y-56880144D01*
X82835595Y-56880144D02*
X82035595Y-56880144D01*
X82835595Y-56499192D02*
X82035595Y-56499192D01*
X82035595Y-56499192D02*
X82035595Y-56308716D01*
X82035595Y-56308716D02*
X82073690Y-56194430D01*
X82073690Y-56194430D02*
X82149880Y-56118240D01*
X82149880Y-56118240D02*
X82226071Y-56080145D01*
X82226071Y-56080145D02*
X82378452Y-56042049D01*
X82378452Y-56042049D02*
X82492738Y-56042049D01*
X82492738Y-56042049D02*
X82645119Y-56080145D01*
X82645119Y-56080145D02*
X82721309Y-56118240D01*
X82721309Y-56118240D02*
X82797500Y-56194430D01*
X82797500Y-56194430D02*
X82835595Y-56308716D01*
X82835595Y-56308716D02*
X82835595Y-56499192D01*
X82085595Y-55576573D02*
X82885595Y-55309906D01*
X82885595Y-55309906D02*
X82085595Y-55043240D01*
X82809404Y-54319430D02*
X82847500Y-54357526D01*
X82847500Y-54357526D02*
X82885595Y-54471811D01*
X82885595Y-54471811D02*
X82885595Y-54548002D01*
X82885595Y-54548002D02*
X82847500Y-54662288D01*
X82847500Y-54662288D02*
X82771309Y-54738478D01*
X82771309Y-54738478D02*
X82695119Y-54776573D01*
X82695119Y-54776573D02*
X82542738Y-54814669D01*
X82542738Y-54814669D02*
X82428452Y-54814669D01*
X82428452Y-54814669D02*
X82276071Y-54776573D01*
X82276071Y-54776573D02*
X82199880Y-54738478D01*
X82199880Y-54738478D02*
X82123690Y-54662288D01*
X82123690Y-54662288D02*
X82085595Y-54548002D01*
X82085595Y-54548002D02*
X82085595Y-54471811D01*
X82085595Y-54471811D02*
X82123690Y-54357526D01*
X82123690Y-54357526D02*
X82161785Y-54319430D01*
X82809404Y-53519430D02*
X82847500Y-53557526D01*
X82847500Y-53557526D02*
X82885595Y-53671811D01*
X82885595Y-53671811D02*
X82885595Y-53748002D01*
X82885595Y-53748002D02*
X82847500Y-53862288D01*
X82847500Y-53862288D02*
X82771309Y-53938478D01*
X82771309Y-53938478D02*
X82695119Y-53976573D01*
X82695119Y-53976573D02*
X82542738Y-54014669D01*
X82542738Y-54014669D02*
X82428452Y-54014669D01*
X82428452Y-54014669D02*
X82276071Y-53976573D01*
X82276071Y-53976573D02*
X82199880Y-53938478D01*
X82199880Y-53938478D02*
X82123690Y-53862288D01*
X82123690Y-53862288D02*
X82085595Y-53748002D01*
X82085595Y-53748002D02*
X82085595Y-53671811D01*
X82085595Y-53671811D02*
X82123690Y-53557526D01*
X82123690Y-53557526D02*
X82161785Y-53519430D01*
D11*
X113927500Y-57835000D02*
X118952500Y-57835000D01*
X118952500Y-61110000D01*
X113927500Y-61110000D01*
X113927500Y-57835000D01*
X114924240Y-58503609D02*
X114924240Y-58003609D01*
X115448049Y-58455990D02*
X115424240Y-58479800D01*
X115424240Y-58479800D02*
X115352811Y-58503609D01*
X115352811Y-58503609D02*
X115305192Y-58503609D01*
X115305192Y-58503609D02*
X115233764Y-58479800D01*
X115233764Y-58479800D02*
X115186145Y-58432180D01*
X115186145Y-58432180D02*
X115162335Y-58384561D01*
X115162335Y-58384561D02*
X115138526Y-58289323D01*
X115138526Y-58289323D02*
X115138526Y-58217895D01*
X115138526Y-58217895D02*
X115162335Y-58122657D01*
X115162335Y-58122657D02*
X115186145Y-58075038D01*
X115186145Y-58075038D02*
X115233764Y-58027419D01*
X115233764Y-58027419D02*
X115305192Y-58003609D01*
X115305192Y-58003609D02*
X115352811Y-58003609D01*
X115352811Y-58003609D02*
X115424240Y-58027419D01*
X115424240Y-58027419D02*
X115448049Y-58051228D01*
X115638526Y-58479800D02*
X115709954Y-58503609D01*
X115709954Y-58503609D02*
X115829002Y-58503609D01*
X115829002Y-58503609D02*
X115876621Y-58479800D01*
X115876621Y-58479800D02*
X115900430Y-58455990D01*
X115900430Y-58455990D02*
X115924240Y-58408371D01*
X115924240Y-58408371D02*
X115924240Y-58360752D01*
X115924240Y-58360752D02*
X115900430Y-58313133D01*
X115900430Y-58313133D02*
X115876621Y-58289323D01*
X115876621Y-58289323D02*
X115829002Y-58265514D01*
X115829002Y-58265514D02*
X115733764Y-58241704D01*
X115733764Y-58241704D02*
X115686145Y-58217895D01*
X115686145Y-58217895D02*
X115662335Y-58194085D01*
X115662335Y-58194085D02*
X115638526Y-58146466D01*
X115638526Y-58146466D02*
X115638526Y-58098847D01*
X115638526Y-58098847D02*
X115662335Y-58051228D01*
X115662335Y-58051228D02*
X115686145Y-58027419D01*
X115686145Y-58027419D02*
X115733764Y-58003609D01*
X115733764Y-58003609D02*
X115852811Y-58003609D01*
X115852811Y-58003609D02*
X115924240Y-58027419D01*
X116138525Y-58503609D02*
X116138525Y-58003609D01*
X116138525Y-58003609D02*
X116329001Y-58003609D01*
X116329001Y-58003609D02*
X116376620Y-58027419D01*
X116376620Y-58027419D02*
X116400430Y-58051228D01*
X116400430Y-58051228D02*
X116424239Y-58098847D01*
X116424239Y-58098847D02*
X116424239Y-58170276D01*
X116424239Y-58170276D02*
X116400430Y-58217895D01*
X116400430Y-58217895D02*
X116376620Y-58241704D01*
X116376620Y-58241704D02*
X116329001Y-58265514D01*
X116329001Y-58265514D02*
X116138525Y-58265514D01*
X114162336Y-59308609D02*
X114162336Y-58808609D01*
X114162336Y-58808609D02*
X114329003Y-59165752D01*
X114329003Y-59165752D02*
X114495669Y-58808609D01*
X114495669Y-58808609D02*
X114495669Y-59308609D01*
X114733765Y-59308609D02*
X114733765Y-58808609D01*
X114948051Y-59284800D02*
X115019479Y-59308609D01*
X115019479Y-59308609D02*
X115138527Y-59308609D01*
X115138527Y-59308609D02*
X115186146Y-59284800D01*
X115186146Y-59284800D02*
X115209955Y-59260990D01*
X115209955Y-59260990D02*
X115233765Y-59213371D01*
X115233765Y-59213371D02*
X115233765Y-59165752D01*
X115233765Y-59165752D02*
X115209955Y-59118133D01*
X115209955Y-59118133D02*
X115186146Y-59094323D01*
X115186146Y-59094323D02*
X115138527Y-59070514D01*
X115138527Y-59070514D02*
X115043289Y-59046704D01*
X115043289Y-59046704D02*
X114995670Y-59022895D01*
X114995670Y-59022895D02*
X114971860Y-58999085D01*
X114971860Y-58999085D02*
X114948051Y-58951466D01*
X114948051Y-58951466D02*
X114948051Y-58903847D01*
X114948051Y-58903847D02*
X114971860Y-58856228D01*
X114971860Y-58856228D02*
X114995670Y-58832419D01*
X114995670Y-58832419D02*
X115043289Y-58808609D01*
X115043289Y-58808609D02*
X115162336Y-58808609D01*
X115162336Y-58808609D02*
X115233765Y-58832419D01*
X115543288Y-58808609D02*
X115638526Y-58808609D01*
X115638526Y-58808609D02*
X115686145Y-58832419D01*
X115686145Y-58832419D02*
X115733764Y-58880038D01*
X115733764Y-58880038D02*
X115757574Y-58975276D01*
X115757574Y-58975276D02*
X115757574Y-59141942D01*
X115757574Y-59141942D02*
X115733764Y-59237180D01*
X115733764Y-59237180D02*
X115686145Y-59284800D01*
X115686145Y-59284800D02*
X115638526Y-59308609D01*
X115638526Y-59308609D02*
X115543288Y-59308609D01*
X115543288Y-59308609D02*
X115495669Y-59284800D01*
X115495669Y-59284800D02*
X115448050Y-59237180D01*
X115448050Y-59237180D02*
X115424241Y-59141942D01*
X115424241Y-59141942D02*
X115424241Y-58975276D01*
X115424241Y-58975276D02*
X115448050Y-58880038D01*
X115448050Y-58880038D02*
X115495669Y-58832419D01*
X115495669Y-58832419D02*
X115543288Y-58808609D01*
X116471860Y-59475276D02*
X116471860Y-58760990D01*
X117138526Y-58808609D02*
X117305192Y-59308609D01*
X117305192Y-59308609D02*
X117471859Y-58808609D01*
X117924239Y-59260990D02*
X117900430Y-59284800D01*
X117900430Y-59284800D02*
X117829001Y-59308609D01*
X117829001Y-59308609D02*
X117781382Y-59308609D01*
X117781382Y-59308609D02*
X117709954Y-59284800D01*
X117709954Y-59284800D02*
X117662335Y-59237180D01*
X117662335Y-59237180D02*
X117638525Y-59189561D01*
X117638525Y-59189561D02*
X117614716Y-59094323D01*
X117614716Y-59094323D02*
X117614716Y-59022895D01*
X117614716Y-59022895D02*
X117638525Y-58927657D01*
X117638525Y-58927657D02*
X117662335Y-58880038D01*
X117662335Y-58880038D02*
X117709954Y-58832419D01*
X117709954Y-58832419D02*
X117781382Y-58808609D01*
X117781382Y-58808609D02*
X117829001Y-58808609D01*
X117829001Y-58808609D02*
X117900430Y-58832419D01*
X117900430Y-58832419D02*
X117924239Y-58856228D01*
X118424239Y-59260990D02*
X118400430Y-59284800D01*
X118400430Y-59284800D02*
X118329001Y-59308609D01*
X118329001Y-59308609D02*
X118281382Y-59308609D01*
X118281382Y-59308609D02*
X118209954Y-59284800D01*
X118209954Y-59284800D02*
X118162335Y-59237180D01*
X118162335Y-59237180D02*
X118138525Y-59189561D01*
X118138525Y-59189561D02*
X118114716Y-59094323D01*
X118114716Y-59094323D02*
X118114716Y-59022895D01*
X118114716Y-59022895D02*
X118138525Y-58927657D01*
X118138525Y-58927657D02*
X118162335Y-58880038D01*
X118162335Y-58880038D02*
X118209954Y-58832419D01*
X118209954Y-58832419D02*
X118281382Y-58808609D01*
X118281382Y-58808609D02*
X118329001Y-58808609D01*
X118329001Y-58808609D02*
X118400430Y-58832419D01*
X118400430Y-58832419D02*
X118424239Y-58856228D01*
X114138527Y-60089800D02*
X114209955Y-60113609D01*
X114209955Y-60113609D02*
X114329003Y-60113609D01*
X114329003Y-60113609D02*
X114376622Y-60089800D01*
X114376622Y-60089800D02*
X114400431Y-60065990D01*
X114400431Y-60065990D02*
X114424241Y-60018371D01*
X114424241Y-60018371D02*
X114424241Y-59970752D01*
X114424241Y-59970752D02*
X114400431Y-59923133D01*
X114400431Y-59923133D02*
X114376622Y-59899323D01*
X114376622Y-59899323D02*
X114329003Y-59875514D01*
X114329003Y-59875514D02*
X114233765Y-59851704D01*
X114233765Y-59851704D02*
X114186146Y-59827895D01*
X114186146Y-59827895D02*
X114162336Y-59804085D01*
X114162336Y-59804085D02*
X114138527Y-59756466D01*
X114138527Y-59756466D02*
X114138527Y-59708847D01*
X114138527Y-59708847D02*
X114162336Y-59661228D01*
X114162336Y-59661228D02*
X114186146Y-59637419D01*
X114186146Y-59637419D02*
X114233765Y-59613609D01*
X114233765Y-59613609D02*
X114352812Y-59613609D01*
X114352812Y-59613609D02*
X114424241Y-59637419D01*
X114924240Y-60065990D02*
X114900431Y-60089800D01*
X114900431Y-60089800D02*
X114829002Y-60113609D01*
X114829002Y-60113609D02*
X114781383Y-60113609D01*
X114781383Y-60113609D02*
X114709955Y-60089800D01*
X114709955Y-60089800D02*
X114662336Y-60042180D01*
X114662336Y-60042180D02*
X114638526Y-59994561D01*
X114638526Y-59994561D02*
X114614717Y-59899323D01*
X114614717Y-59899323D02*
X114614717Y-59827895D01*
X114614717Y-59827895D02*
X114638526Y-59732657D01*
X114638526Y-59732657D02*
X114662336Y-59685038D01*
X114662336Y-59685038D02*
X114709955Y-59637419D01*
X114709955Y-59637419D02*
X114781383Y-59613609D01*
X114781383Y-59613609D02*
X114829002Y-59613609D01*
X114829002Y-59613609D02*
X114900431Y-59637419D01*
X114900431Y-59637419D02*
X114924240Y-59661228D01*
X115138526Y-60113609D02*
X115138526Y-59613609D01*
X115424240Y-60113609D02*
X115209955Y-59827895D01*
X115424240Y-59613609D02*
X115138526Y-59899323D01*
X116519478Y-60280276D02*
X116519478Y-59565990D01*
X117257572Y-60113609D02*
X117257572Y-59613609D01*
X117257572Y-59613609D02*
X117424239Y-59970752D01*
X117424239Y-59970752D02*
X117590905Y-59613609D01*
X117590905Y-59613609D02*
X117590905Y-60113609D01*
X117924239Y-59613609D02*
X118019477Y-59613609D01*
X118019477Y-59613609D02*
X118067096Y-59637419D01*
X118067096Y-59637419D02*
X118114715Y-59685038D01*
X118114715Y-59685038D02*
X118138525Y-59780276D01*
X118138525Y-59780276D02*
X118138525Y-59946942D01*
X118138525Y-59946942D02*
X118114715Y-60042180D01*
X118114715Y-60042180D02*
X118067096Y-60089800D01*
X118067096Y-60089800D02*
X118019477Y-60113609D01*
X118019477Y-60113609D02*
X117924239Y-60113609D01*
X117924239Y-60113609D02*
X117876620Y-60089800D01*
X117876620Y-60089800D02*
X117829001Y-60042180D01*
X117829001Y-60042180D02*
X117805192Y-59946942D01*
X117805192Y-59946942D02*
X117805192Y-59780276D01*
X117805192Y-59780276D02*
X117829001Y-59685038D01*
X117829001Y-59685038D02*
X117876620Y-59637419D01*
X117876620Y-59637419D02*
X117924239Y-59613609D01*
X118329002Y-60089800D02*
X118400430Y-60113609D01*
X118400430Y-60113609D02*
X118519478Y-60113609D01*
X118519478Y-60113609D02*
X118567097Y-60089800D01*
X118567097Y-60089800D02*
X118590906Y-60065990D01*
X118590906Y-60065990D02*
X118614716Y-60018371D01*
X118614716Y-60018371D02*
X118614716Y-59970752D01*
X118614716Y-59970752D02*
X118590906Y-59923133D01*
X118590906Y-59923133D02*
X118567097Y-59899323D01*
X118567097Y-59899323D02*
X118519478Y-59875514D01*
X118519478Y-59875514D02*
X118424240Y-59851704D01*
X118424240Y-59851704D02*
X118376621Y-59827895D01*
X118376621Y-59827895D02*
X118352811Y-59804085D01*
X118352811Y-59804085D02*
X118329002Y-59756466D01*
X118329002Y-59756466D02*
X118329002Y-59708847D01*
X118329002Y-59708847D02*
X118352811Y-59661228D01*
X118352811Y-59661228D02*
X118376621Y-59637419D01*
X118376621Y-59637419D02*
X118424240Y-59613609D01*
X118424240Y-59613609D02*
X118543287Y-59613609D01*
X118543287Y-59613609D02*
X118614716Y-59637419D01*
X118829001Y-60113609D02*
X118829001Y-59613609D01*
X114448050Y-60918609D02*
X114281384Y-60680514D01*
X114162336Y-60918609D02*
X114162336Y-60418609D01*
X114162336Y-60418609D02*
X114352812Y-60418609D01*
X114352812Y-60418609D02*
X114400431Y-60442419D01*
X114400431Y-60442419D02*
X114424241Y-60466228D01*
X114424241Y-60466228D02*
X114448050Y-60513847D01*
X114448050Y-60513847D02*
X114448050Y-60585276D01*
X114448050Y-60585276D02*
X114424241Y-60632895D01*
X114424241Y-60632895D02*
X114400431Y-60656704D01*
X114400431Y-60656704D02*
X114352812Y-60680514D01*
X114352812Y-60680514D02*
X114162336Y-60680514D01*
X114662336Y-60656704D02*
X114829003Y-60656704D01*
X114900431Y-60918609D02*
X114662336Y-60918609D01*
X114662336Y-60918609D02*
X114662336Y-60418609D01*
X114662336Y-60418609D02*
X114900431Y-60418609D01*
X115090908Y-60894800D02*
X115162336Y-60918609D01*
X115162336Y-60918609D02*
X115281384Y-60918609D01*
X115281384Y-60918609D02*
X115329003Y-60894800D01*
X115329003Y-60894800D02*
X115352812Y-60870990D01*
X115352812Y-60870990D02*
X115376622Y-60823371D01*
X115376622Y-60823371D02*
X115376622Y-60775752D01*
X115376622Y-60775752D02*
X115352812Y-60728133D01*
X115352812Y-60728133D02*
X115329003Y-60704323D01*
X115329003Y-60704323D02*
X115281384Y-60680514D01*
X115281384Y-60680514D02*
X115186146Y-60656704D01*
X115186146Y-60656704D02*
X115138527Y-60632895D01*
X115138527Y-60632895D02*
X115114717Y-60609085D01*
X115114717Y-60609085D02*
X115090908Y-60561466D01*
X115090908Y-60561466D02*
X115090908Y-60513847D01*
X115090908Y-60513847D02*
X115114717Y-60466228D01*
X115114717Y-60466228D02*
X115138527Y-60442419D01*
X115138527Y-60442419D02*
X115186146Y-60418609D01*
X115186146Y-60418609D02*
X115305193Y-60418609D01*
X115305193Y-60418609D02*
X115376622Y-60442419D01*
X115590907Y-60656704D02*
X115757574Y-60656704D01*
X115829002Y-60918609D02*
X115590907Y-60918609D01*
X115590907Y-60918609D02*
X115590907Y-60418609D01*
X115590907Y-60418609D02*
X115829002Y-60418609D01*
X115971860Y-60418609D02*
X116257574Y-60418609D01*
X116114717Y-60918609D02*
X116114717Y-60418609D01*
X116543288Y-61085276D02*
X116543288Y-60370990D01*
X117543287Y-60442419D02*
X117495668Y-60418609D01*
X117495668Y-60418609D02*
X117424239Y-60418609D01*
X117424239Y-60418609D02*
X117352811Y-60442419D01*
X117352811Y-60442419D02*
X117305192Y-60490038D01*
X117305192Y-60490038D02*
X117281382Y-60537657D01*
X117281382Y-60537657D02*
X117257573Y-60632895D01*
X117257573Y-60632895D02*
X117257573Y-60704323D01*
X117257573Y-60704323D02*
X117281382Y-60799561D01*
X117281382Y-60799561D02*
X117305192Y-60847180D01*
X117305192Y-60847180D02*
X117352811Y-60894800D01*
X117352811Y-60894800D02*
X117424239Y-60918609D01*
X117424239Y-60918609D02*
X117471858Y-60918609D01*
X117471858Y-60918609D02*
X117543287Y-60894800D01*
X117543287Y-60894800D02*
X117567096Y-60870990D01*
X117567096Y-60870990D02*
X117567096Y-60704323D01*
X117567096Y-60704323D02*
X117471858Y-60704323D01*
X117781382Y-60918609D02*
X117781382Y-60418609D01*
X117781382Y-60418609D02*
X118067096Y-60918609D01*
X118067096Y-60918609D02*
X118067096Y-60418609D01*
X118305192Y-60918609D02*
X118305192Y-60418609D01*
X118305192Y-60418609D02*
X118424240Y-60418609D01*
X118424240Y-60418609D02*
X118495668Y-60442419D01*
X118495668Y-60442419D02*
X118543287Y-60490038D01*
X118543287Y-60490038D02*
X118567097Y-60537657D01*
X118567097Y-60537657D02*
X118590906Y-60632895D01*
X118590906Y-60632895D02*
X118590906Y-60704323D01*
X118590906Y-60704323D02*
X118567097Y-60799561D01*
X118567097Y-60799561D02*
X118543287Y-60847180D01*
X118543287Y-60847180D02*
X118495668Y-60894800D01*
X118495668Y-60894800D02*
X118424240Y-60918609D01*
X118424240Y-60918609D02*
X118305192Y-60918609D01*
D10*
X119912712Y-69980595D02*
X119912712Y-69180595D01*
X120255568Y-69256785D02*
X120293664Y-69218690D01*
X120293664Y-69218690D02*
X120369854Y-69180595D01*
X120369854Y-69180595D02*
X120560330Y-69180595D01*
X120560330Y-69180595D02*
X120636521Y-69218690D01*
X120636521Y-69218690D02*
X120674616Y-69256785D01*
X120674616Y-69256785D02*
X120712711Y-69332976D01*
X120712711Y-69332976D02*
X120712711Y-69409166D01*
X120712711Y-69409166D02*
X120674616Y-69523452D01*
X120674616Y-69523452D02*
X120217473Y-69980595D01*
X120217473Y-69980595D02*
X120712711Y-69980595D01*
X121512712Y-69904404D02*
X121474616Y-69942500D01*
X121474616Y-69942500D02*
X121360331Y-69980595D01*
X121360331Y-69980595D02*
X121284140Y-69980595D01*
X121284140Y-69980595D02*
X121169854Y-69942500D01*
X121169854Y-69942500D02*
X121093664Y-69866309D01*
X121093664Y-69866309D02*
X121055569Y-69790119D01*
X121055569Y-69790119D02*
X121017473Y-69637738D01*
X121017473Y-69637738D02*
X121017473Y-69523452D01*
X121017473Y-69523452D02*
X121055569Y-69371071D01*
X121055569Y-69371071D02*
X121093664Y-69294880D01*
X121093664Y-69294880D02*
X121169854Y-69218690D01*
X121169854Y-69218690D02*
X121284140Y-69180595D01*
X121284140Y-69180595D02*
X121360331Y-69180595D01*
X121360331Y-69180595D02*
X121474616Y-69218690D01*
X121474616Y-69218690D02*
X121512712Y-69256785D01*
X118992474Y-62756119D02*
X119325807Y-63756119D01*
X119325807Y-63756119D02*
X119659140Y-62756119D01*
X120563902Y-63660880D02*
X120516283Y-63708500D01*
X120516283Y-63708500D02*
X120373426Y-63756119D01*
X120373426Y-63756119D02*
X120278188Y-63756119D01*
X120278188Y-63756119D02*
X120135331Y-63708500D01*
X120135331Y-63708500D02*
X120040093Y-63613261D01*
X120040093Y-63613261D02*
X119992474Y-63518023D01*
X119992474Y-63518023D02*
X119944855Y-63327547D01*
X119944855Y-63327547D02*
X119944855Y-63184690D01*
X119944855Y-63184690D02*
X119992474Y-62994214D01*
X119992474Y-62994214D02*
X120040093Y-62898976D01*
X120040093Y-62898976D02*
X120135331Y-62803738D01*
X120135331Y-62803738D02*
X120278188Y-62756119D01*
X120278188Y-62756119D02*
X120373426Y-62756119D01*
X120373426Y-62756119D02*
X120516283Y-62803738D01*
X120516283Y-62803738D02*
X120563902Y-62851357D01*
X121563902Y-63660880D02*
X121516283Y-63708500D01*
X121516283Y-63708500D02*
X121373426Y-63756119D01*
X121373426Y-63756119D02*
X121278188Y-63756119D01*
X121278188Y-63756119D02*
X121135331Y-63708500D01*
X121135331Y-63708500D02*
X121040093Y-63613261D01*
X121040093Y-63613261D02*
X120992474Y-63518023D01*
X120992474Y-63518023D02*
X120944855Y-63327547D01*
X120944855Y-63327547D02*
X120944855Y-63184690D01*
X120944855Y-63184690D02*
X120992474Y-62994214D01*
X120992474Y-62994214D02*
X121040093Y-62898976D01*
X121040093Y-62898976D02*
X121135331Y-62803738D01*
X121135331Y-62803738D02*
X121278188Y-62756119D01*
X121278188Y-62756119D02*
X121373426Y-62756119D01*
X121373426Y-62756119D02*
X121516283Y-62803738D01*
X121516283Y-62803738D02*
X121563902Y-62851357D01*
X119572500Y-75400383D02*
X119610595Y-75286097D01*
X119610595Y-75286097D02*
X119610595Y-75095621D01*
X119610595Y-75095621D02*
X119572500Y-75019430D01*
X119572500Y-75019430D02*
X119534404Y-74981335D01*
X119534404Y-74981335D02*
X119458214Y-74943240D01*
X119458214Y-74943240D02*
X119382023Y-74943240D01*
X119382023Y-74943240D02*
X119305833Y-74981335D01*
X119305833Y-74981335D02*
X119267738Y-75019430D01*
X119267738Y-75019430D02*
X119229642Y-75095621D01*
X119229642Y-75095621D02*
X119191547Y-75248002D01*
X119191547Y-75248002D02*
X119153452Y-75324192D01*
X119153452Y-75324192D02*
X119115357Y-75362287D01*
X119115357Y-75362287D02*
X119039166Y-75400383D01*
X119039166Y-75400383D02*
X118962976Y-75400383D01*
X118962976Y-75400383D02*
X118886785Y-75362287D01*
X118886785Y-75362287D02*
X118848690Y-75324192D01*
X118848690Y-75324192D02*
X118810595Y-75248002D01*
X118810595Y-75248002D02*
X118810595Y-75057525D01*
X118810595Y-75057525D02*
X118848690Y-74943240D01*
X119191547Y-74600382D02*
X119191547Y-74333716D01*
X119610595Y-74219430D02*
X119610595Y-74600382D01*
X119610595Y-74600382D02*
X118810595Y-74600382D01*
X118810595Y-74600382D02*
X118810595Y-74219430D01*
X119610595Y-73419429D02*
X119229642Y-73686096D01*
X119610595Y-73876572D02*
X118810595Y-73876572D01*
X118810595Y-73876572D02*
X118810595Y-73571810D01*
X118810595Y-73571810D02*
X118848690Y-73495620D01*
X118848690Y-73495620D02*
X118886785Y-73457525D01*
X118886785Y-73457525D02*
X118962976Y-73419429D01*
X118962976Y-73419429D02*
X119077261Y-73419429D01*
X119077261Y-73419429D02*
X119153452Y-73457525D01*
X119153452Y-73457525D02*
X119191547Y-73495620D01*
X119191547Y-73495620D02*
X119229642Y-73571810D01*
X119229642Y-73571810D02*
X119229642Y-73876572D01*
X119610595Y-73076572D02*
X118810595Y-73076572D01*
X119382023Y-72733716D02*
X119382023Y-72352763D01*
X119610595Y-72809906D02*
X118810595Y-72543239D01*
X118810595Y-72543239D02*
X119610595Y-72276573D01*
X119610595Y-71628954D02*
X119610595Y-72009906D01*
X119610595Y-72009906D02*
X118810595Y-72009906D01*
X100859140Y-70678738D02*
X100763902Y-70631119D01*
X100763902Y-70631119D02*
X100621045Y-70631119D01*
X100621045Y-70631119D02*
X100478188Y-70678738D01*
X100478188Y-70678738D02*
X100382950Y-70773976D01*
X100382950Y-70773976D02*
X100335331Y-70869214D01*
X100335331Y-70869214D02*
X100287712Y-71059690D01*
X100287712Y-71059690D02*
X100287712Y-71202547D01*
X100287712Y-71202547D02*
X100335331Y-71393023D01*
X100335331Y-71393023D02*
X100382950Y-71488261D01*
X100382950Y-71488261D02*
X100478188Y-71583500D01*
X100478188Y-71583500D02*
X100621045Y-71631119D01*
X100621045Y-71631119D02*
X100716283Y-71631119D01*
X100716283Y-71631119D02*
X100859140Y-71583500D01*
X100859140Y-71583500D02*
X100906759Y-71535880D01*
X100906759Y-71535880D02*
X100906759Y-71202547D01*
X100906759Y-71202547D02*
X100716283Y-71202547D01*
X101335331Y-71631119D02*
X101335331Y-70631119D01*
X101335331Y-70631119D02*
X101906759Y-71631119D01*
X101906759Y-71631119D02*
X101906759Y-70631119D01*
X102382950Y-71631119D02*
X102382950Y-70631119D01*
X102382950Y-70631119D02*
X102621045Y-70631119D01*
X102621045Y-70631119D02*
X102763902Y-70678738D01*
X102763902Y-70678738D02*
X102859140Y-70773976D01*
X102859140Y-70773976D02*
X102906759Y-70869214D01*
X102906759Y-70869214D02*
X102954378Y-71059690D01*
X102954378Y-71059690D02*
X102954378Y-71202547D01*
X102954378Y-71202547D02*
X102906759Y-71393023D01*
X102906759Y-71393023D02*
X102859140Y-71488261D01*
X102859140Y-71488261D02*
X102763902Y-71583500D01*
X102763902Y-71583500D02*
X102621045Y-71631119D01*
X102621045Y-71631119D02*
X102382950Y-71631119D01*
X89313902Y-70964452D02*
X89313902Y-71631119D01*
X89075807Y-70583500D02*
X88837712Y-71297785D01*
X88837712Y-71297785D02*
X89456759Y-71297785D01*
X108034140Y-70653738D02*
X107938902Y-70606119D01*
X107938902Y-70606119D02*
X107796045Y-70606119D01*
X107796045Y-70606119D02*
X107653188Y-70653738D01*
X107653188Y-70653738D02*
X107557950Y-70748976D01*
X107557950Y-70748976D02*
X107510331Y-70844214D01*
X107510331Y-70844214D02*
X107462712Y-71034690D01*
X107462712Y-71034690D02*
X107462712Y-71177547D01*
X107462712Y-71177547D02*
X107510331Y-71368023D01*
X107510331Y-71368023D02*
X107557950Y-71463261D01*
X107557950Y-71463261D02*
X107653188Y-71558500D01*
X107653188Y-71558500D02*
X107796045Y-71606119D01*
X107796045Y-71606119D02*
X107891283Y-71606119D01*
X107891283Y-71606119D02*
X108034140Y-71558500D01*
X108034140Y-71558500D02*
X108081759Y-71510880D01*
X108081759Y-71510880D02*
X108081759Y-71177547D01*
X108081759Y-71177547D02*
X107891283Y-71177547D01*
X108510331Y-71606119D02*
X108510331Y-70606119D01*
X108510331Y-70606119D02*
X109081759Y-71606119D01*
X109081759Y-71606119D02*
X109081759Y-70606119D01*
X109557950Y-71606119D02*
X109557950Y-70606119D01*
X109557950Y-70606119D02*
X109796045Y-70606119D01*
X109796045Y-70606119D02*
X109938902Y-70653738D01*
X109938902Y-70653738D02*
X110034140Y-70748976D01*
X110034140Y-70748976D02*
X110081759Y-70844214D01*
X110081759Y-70844214D02*
X110129378Y-71034690D01*
X110129378Y-71034690D02*
X110129378Y-71177547D01*
X110129378Y-71177547D02*
X110081759Y-71368023D01*
X110081759Y-71368023D02*
X110034140Y-71463261D01*
X110034140Y-71463261D02*
X109938902Y-71558500D01*
X109938902Y-71558500D02*
X109796045Y-71606119D01*
X109796045Y-71606119D02*
X109557950Y-71606119D01*
X83487712Y-70676357D02*
X83535331Y-70628738D01*
X83535331Y-70628738D02*
X83630569Y-70581119D01*
X83630569Y-70581119D02*
X83868664Y-70581119D01*
X83868664Y-70581119D02*
X83963902Y-70628738D01*
X83963902Y-70628738D02*
X84011521Y-70676357D01*
X84011521Y-70676357D02*
X84059140Y-70771595D01*
X84059140Y-70771595D02*
X84059140Y-70866833D01*
X84059140Y-70866833D02*
X84011521Y-71009690D01*
X84011521Y-71009690D02*
X83440093Y-71581119D01*
X83440093Y-71581119D02*
X84059140Y-71581119D01*
X94238902Y-70631119D02*
X94048426Y-70631119D01*
X94048426Y-70631119D02*
X93953188Y-70678738D01*
X93953188Y-70678738D02*
X93905569Y-70726357D01*
X93905569Y-70726357D02*
X93810331Y-70869214D01*
X93810331Y-70869214D02*
X93762712Y-71059690D01*
X93762712Y-71059690D02*
X93762712Y-71440642D01*
X93762712Y-71440642D02*
X93810331Y-71535880D01*
X93810331Y-71535880D02*
X93857950Y-71583500D01*
X93857950Y-71583500D02*
X93953188Y-71631119D01*
X93953188Y-71631119D02*
X94143664Y-71631119D01*
X94143664Y-71631119D02*
X94238902Y-71583500D01*
X94238902Y-71583500D02*
X94286521Y-71535880D01*
X94286521Y-71535880D02*
X94334140Y-71440642D01*
X94334140Y-71440642D02*
X94334140Y-71202547D01*
X94334140Y-71202547D02*
X94286521Y-71107309D01*
X94286521Y-71107309D02*
X94238902Y-71059690D01*
X94238902Y-71059690D02*
X94143664Y-71012071D01*
X94143664Y-71012071D02*
X93953188Y-71012071D01*
X93953188Y-71012071D02*
X93857950Y-71059690D01*
X93857950Y-71059690D02*
X93810331Y-71107309D01*
X93810331Y-71107309D02*
X93762712Y-71202547D01*
X91761521Y-70631119D02*
X91285331Y-70631119D01*
X91285331Y-70631119D02*
X91237712Y-71107309D01*
X91237712Y-71107309D02*
X91285331Y-71059690D01*
X91285331Y-71059690D02*
X91380569Y-71012071D01*
X91380569Y-71012071D02*
X91618664Y-71012071D01*
X91618664Y-71012071D02*
X91713902Y-71059690D01*
X91713902Y-71059690D02*
X91761521Y-71107309D01*
X91761521Y-71107309D02*
X91809140Y-71202547D01*
X91809140Y-71202547D02*
X91809140Y-71440642D01*
X91809140Y-71440642D02*
X91761521Y-71535880D01*
X91761521Y-71535880D02*
X91713902Y-71583500D01*
X91713902Y-71583500D02*
X91618664Y-71631119D01*
X91618664Y-71631119D02*
X91380569Y-71631119D01*
X91380569Y-71631119D02*
X91285331Y-71583500D01*
X91285331Y-71583500D02*
X91237712Y-71535880D01*
X119162712Y-66183500D02*
X119305569Y-66231119D01*
X119305569Y-66231119D02*
X119543664Y-66231119D01*
X119543664Y-66231119D02*
X119638902Y-66183500D01*
X119638902Y-66183500D02*
X119686521Y-66135880D01*
X119686521Y-66135880D02*
X119734140Y-66040642D01*
X119734140Y-66040642D02*
X119734140Y-65945404D01*
X119734140Y-65945404D02*
X119686521Y-65850166D01*
X119686521Y-65850166D02*
X119638902Y-65802547D01*
X119638902Y-65802547D02*
X119543664Y-65754928D01*
X119543664Y-65754928D02*
X119353188Y-65707309D01*
X119353188Y-65707309D02*
X119257950Y-65659690D01*
X119257950Y-65659690D02*
X119210331Y-65612071D01*
X119210331Y-65612071D02*
X119162712Y-65516833D01*
X119162712Y-65516833D02*
X119162712Y-65421595D01*
X119162712Y-65421595D02*
X119210331Y-65326357D01*
X119210331Y-65326357D02*
X119257950Y-65278738D01*
X119257950Y-65278738D02*
X119353188Y-65231119D01*
X119353188Y-65231119D02*
X119591283Y-65231119D01*
X119591283Y-65231119D02*
X119734140Y-65278738D01*
X120162712Y-66231119D02*
X120162712Y-65231119D01*
X120162712Y-65231119D02*
X120400807Y-65231119D01*
X120400807Y-65231119D02*
X120543664Y-65278738D01*
X120543664Y-65278738D02*
X120638902Y-65373976D01*
X120638902Y-65373976D02*
X120686521Y-65469214D01*
X120686521Y-65469214D02*
X120734140Y-65659690D01*
X120734140Y-65659690D02*
X120734140Y-65802547D01*
X120734140Y-65802547D02*
X120686521Y-65993023D01*
X120686521Y-65993023D02*
X120638902Y-66088261D01*
X120638902Y-66088261D02*
X120543664Y-66183500D01*
X120543664Y-66183500D02*
X120400807Y-66231119D01*
X120400807Y-66231119D02*
X120162712Y-66231119D01*
X121115093Y-65945404D02*
X121591283Y-65945404D01*
X121019855Y-66231119D02*
X121353188Y-65231119D01*
X121353188Y-65231119D02*
X121686521Y-66231119D01*
X99053188Y-71034690D02*
X98957950Y-70987071D01*
X98957950Y-70987071D02*
X98910331Y-70939452D01*
X98910331Y-70939452D02*
X98862712Y-70844214D01*
X98862712Y-70844214D02*
X98862712Y-70796595D01*
X98862712Y-70796595D02*
X98910331Y-70701357D01*
X98910331Y-70701357D02*
X98957950Y-70653738D01*
X98957950Y-70653738D02*
X99053188Y-70606119D01*
X99053188Y-70606119D02*
X99243664Y-70606119D01*
X99243664Y-70606119D02*
X99338902Y-70653738D01*
X99338902Y-70653738D02*
X99386521Y-70701357D01*
X99386521Y-70701357D02*
X99434140Y-70796595D01*
X99434140Y-70796595D02*
X99434140Y-70844214D01*
X99434140Y-70844214D02*
X99386521Y-70939452D01*
X99386521Y-70939452D02*
X99338902Y-70987071D01*
X99338902Y-70987071D02*
X99243664Y-71034690D01*
X99243664Y-71034690D02*
X99053188Y-71034690D01*
X99053188Y-71034690D02*
X98957950Y-71082309D01*
X98957950Y-71082309D02*
X98910331Y-71129928D01*
X98910331Y-71129928D02*
X98862712Y-71225166D01*
X98862712Y-71225166D02*
X98862712Y-71415642D01*
X98862712Y-71415642D02*
X98910331Y-71510880D01*
X98910331Y-71510880D02*
X98957950Y-71558500D01*
X98957950Y-71558500D02*
X99053188Y-71606119D01*
X99053188Y-71606119D02*
X99243664Y-71606119D01*
X99243664Y-71606119D02*
X99338902Y-71558500D01*
X99338902Y-71558500D02*
X99386521Y-71510880D01*
X99386521Y-71510880D02*
X99434140Y-71415642D01*
X99434140Y-71415642D02*
X99434140Y-71225166D01*
X99434140Y-71225166D02*
X99386521Y-71129928D01*
X99386521Y-71129928D02*
X99338902Y-71082309D01*
X99338902Y-71082309D02*
X99243664Y-71034690D01*
X110392474Y-70631119D02*
X110725807Y-71631119D01*
X110725807Y-71631119D02*
X111059140Y-70631119D01*
X111963902Y-71535880D02*
X111916283Y-71583500D01*
X111916283Y-71583500D02*
X111773426Y-71631119D01*
X111773426Y-71631119D02*
X111678188Y-71631119D01*
X111678188Y-71631119D02*
X111535331Y-71583500D01*
X111535331Y-71583500D02*
X111440093Y-71488261D01*
X111440093Y-71488261D02*
X111392474Y-71393023D01*
X111392474Y-71393023D02*
X111344855Y-71202547D01*
X111344855Y-71202547D02*
X111344855Y-71059690D01*
X111344855Y-71059690D02*
X111392474Y-70869214D01*
X111392474Y-70869214D02*
X111440093Y-70773976D01*
X111440093Y-70773976D02*
X111535331Y-70678738D01*
X111535331Y-70678738D02*
X111678188Y-70631119D01*
X111678188Y-70631119D02*
X111773426Y-70631119D01*
X111773426Y-70631119D02*
X111916283Y-70678738D01*
X111916283Y-70678738D02*
X111963902Y-70726357D01*
X112963902Y-71535880D02*
X112916283Y-71583500D01*
X112916283Y-71583500D02*
X112773426Y-71631119D01*
X112773426Y-71631119D02*
X112678188Y-71631119D01*
X112678188Y-71631119D02*
X112535331Y-71583500D01*
X112535331Y-71583500D02*
X112440093Y-71488261D01*
X112440093Y-71488261D02*
X112392474Y-71393023D01*
X112392474Y-71393023D02*
X112344855Y-71202547D01*
X112344855Y-71202547D02*
X112344855Y-71059690D01*
X112344855Y-71059690D02*
X112392474Y-70869214D01*
X112392474Y-70869214D02*
X112440093Y-70773976D01*
X112440093Y-70773976D02*
X112535331Y-70678738D01*
X112535331Y-70678738D02*
X112678188Y-70631119D01*
X112678188Y-70631119D02*
X112773426Y-70631119D01*
X112773426Y-70631119D02*
X112916283Y-70678738D01*
X112916283Y-70678738D02*
X112963902Y-70726357D01*
X119684140Y-60378738D02*
X119588902Y-60331119D01*
X119588902Y-60331119D02*
X119446045Y-60331119D01*
X119446045Y-60331119D02*
X119303188Y-60378738D01*
X119303188Y-60378738D02*
X119207950Y-60473976D01*
X119207950Y-60473976D02*
X119160331Y-60569214D01*
X119160331Y-60569214D02*
X119112712Y-60759690D01*
X119112712Y-60759690D02*
X119112712Y-60902547D01*
X119112712Y-60902547D02*
X119160331Y-61093023D01*
X119160331Y-61093023D02*
X119207950Y-61188261D01*
X119207950Y-61188261D02*
X119303188Y-61283500D01*
X119303188Y-61283500D02*
X119446045Y-61331119D01*
X119446045Y-61331119D02*
X119541283Y-61331119D01*
X119541283Y-61331119D02*
X119684140Y-61283500D01*
X119684140Y-61283500D02*
X119731759Y-61235880D01*
X119731759Y-61235880D02*
X119731759Y-60902547D01*
X119731759Y-60902547D02*
X119541283Y-60902547D01*
X120160331Y-61331119D02*
X120160331Y-60331119D01*
X120160331Y-60331119D02*
X120731759Y-61331119D01*
X120731759Y-61331119D02*
X120731759Y-60331119D01*
X121207950Y-61331119D02*
X121207950Y-60331119D01*
X121207950Y-60331119D02*
X121446045Y-60331119D01*
X121446045Y-60331119D02*
X121588902Y-60378738D01*
X121588902Y-60378738D02*
X121684140Y-60473976D01*
X121684140Y-60473976D02*
X121731759Y-60569214D01*
X121731759Y-60569214D02*
X121779378Y-60759690D01*
X121779378Y-60759690D02*
X121779378Y-60902547D01*
X121779378Y-60902547D02*
X121731759Y-61093023D01*
X121731759Y-61093023D02*
X121684140Y-61188261D01*
X121684140Y-61188261D02*
X121588902Y-61283500D01*
X121588902Y-61283500D02*
X121446045Y-61331119D01*
X121446045Y-61331119D02*
X121207950Y-61331119D01*
X119112712Y-68708500D02*
X119255569Y-68756119D01*
X119255569Y-68756119D02*
X119493664Y-68756119D01*
X119493664Y-68756119D02*
X119588902Y-68708500D01*
X119588902Y-68708500D02*
X119636521Y-68660880D01*
X119636521Y-68660880D02*
X119684140Y-68565642D01*
X119684140Y-68565642D02*
X119684140Y-68470404D01*
X119684140Y-68470404D02*
X119636521Y-68375166D01*
X119636521Y-68375166D02*
X119588902Y-68327547D01*
X119588902Y-68327547D02*
X119493664Y-68279928D01*
X119493664Y-68279928D02*
X119303188Y-68232309D01*
X119303188Y-68232309D02*
X119207950Y-68184690D01*
X119207950Y-68184690D02*
X119160331Y-68137071D01*
X119160331Y-68137071D02*
X119112712Y-68041833D01*
X119112712Y-68041833D02*
X119112712Y-67946595D01*
X119112712Y-67946595D02*
X119160331Y-67851357D01*
X119160331Y-67851357D02*
X119207950Y-67803738D01*
X119207950Y-67803738D02*
X119303188Y-67756119D01*
X119303188Y-67756119D02*
X119541283Y-67756119D01*
X119541283Y-67756119D02*
X119684140Y-67803738D01*
X120684140Y-68660880D02*
X120636521Y-68708500D01*
X120636521Y-68708500D02*
X120493664Y-68756119D01*
X120493664Y-68756119D02*
X120398426Y-68756119D01*
X120398426Y-68756119D02*
X120255569Y-68708500D01*
X120255569Y-68708500D02*
X120160331Y-68613261D01*
X120160331Y-68613261D02*
X120112712Y-68518023D01*
X120112712Y-68518023D02*
X120065093Y-68327547D01*
X120065093Y-68327547D02*
X120065093Y-68184690D01*
X120065093Y-68184690D02*
X120112712Y-67994214D01*
X120112712Y-67994214D02*
X120160331Y-67898976D01*
X120160331Y-67898976D02*
X120255569Y-67803738D01*
X120255569Y-67803738D02*
X120398426Y-67756119D01*
X120398426Y-67756119D02*
X120493664Y-67756119D01*
X120493664Y-67756119D02*
X120636521Y-67803738D01*
X120636521Y-67803738D02*
X120684140Y-67851357D01*
X121112712Y-68756119D02*
X121112712Y-67756119D01*
X121684140Y-68756119D02*
X121255569Y-68184690D01*
X121684140Y-67756119D02*
X121112712Y-68327547D01*
X116017474Y-70631119D02*
X116588902Y-70631119D01*
X116303188Y-71631119D02*
X116303188Y-70631119D01*
X116826998Y-70631119D02*
X117493664Y-71631119D01*
X117493664Y-70631119D02*
X116826998Y-71631119D01*
X114181759Y-71631119D02*
X113848426Y-71154928D01*
X113610331Y-71631119D02*
X113610331Y-70631119D01*
X113610331Y-70631119D02*
X113991283Y-70631119D01*
X113991283Y-70631119D02*
X114086521Y-70678738D01*
X114086521Y-70678738D02*
X114134140Y-70726357D01*
X114134140Y-70726357D02*
X114181759Y-70821595D01*
X114181759Y-70821595D02*
X114181759Y-70964452D01*
X114181759Y-70964452D02*
X114134140Y-71059690D01*
X114134140Y-71059690D02*
X114086521Y-71107309D01*
X114086521Y-71107309D02*
X113991283Y-71154928D01*
X113991283Y-71154928D02*
X113610331Y-71154928D01*
X114515093Y-70631119D02*
X115181759Y-71631119D01*
X115181759Y-70631119D02*
X114515093Y-71631119D01*
X103417474Y-70681119D02*
X103750807Y-71681119D01*
X103750807Y-71681119D02*
X104084140Y-70681119D01*
X104988902Y-71585880D02*
X104941283Y-71633500D01*
X104941283Y-71633500D02*
X104798426Y-71681119D01*
X104798426Y-71681119D02*
X104703188Y-71681119D01*
X104703188Y-71681119D02*
X104560331Y-71633500D01*
X104560331Y-71633500D02*
X104465093Y-71538261D01*
X104465093Y-71538261D02*
X104417474Y-71443023D01*
X104417474Y-71443023D02*
X104369855Y-71252547D01*
X104369855Y-71252547D02*
X104369855Y-71109690D01*
X104369855Y-71109690D02*
X104417474Y-70919214D01*
X104417474Y-70919214D02*
X104465093Y-70823976D01*
X104465093Y-70823976D02*
X104560331Y-70728738D01*
X104560331Y-70728738D02*
X104703188Y-70681119D01*
X104703188Y-70681119D02*
X104798426Y-70681119D01*
X104798426Y-70681119D02*
X104941283Y-70728738D01*
X104941283Y-70728738D02*
X104988902Y-70776357D01*
X105988902Y-71585880D02*
X105941283Y-71633500D01*
X105941283Y-71633500D02*
X105798426Y-71681119D01*
X105798426Y-71681119D02*
X105703188Y-71681119D01*
X105703188Y-71681119D02*
X105560331Y-71633500D01*
X105560331Y-71633500D02*
X105465093Y-71538261D01*
X105465093Y-71538261D02*
X105417474Y-71443023D01*
X105417474Y-71443023D02*
X105369855Y-71252547D01*
X105369855Y-71252547D02*
X105369855Y-71109690D01*
X105369855Y-71109690D02*
X105417474Y-70919214D01*
X105417474Y-70919214D02*
X105465093Y-70823976D01*
X105465093Y-70823976D02*
X105560331Y-70728738D01*
X105560331Y-70728738D02*
X105703188Y-70681119D01*
X105703188Y-70681119D02*
X105798426Y-70681119D01*
X105798426Y-70681119D02*
X105941283Y-70728738D01*
X105941283Y-70728738D02*
X105988902Y-70776357D01*
X119587712Y-49705595D02*
X119587712Y-48905595D01*
X120425807Y-49629404D02*
X120387711Y-49667500D01*
X120387711Y-49667500D02*
X120273426Y-49705595D01*
X120273426Y-49705595D02*
X120197235Y-49705595D01*
X120197235Y-49705595D02*
X120082949Y-49667500D01*
X120082949Y-49667500D02*
X120006759Y-49591309D01*
X120006759Y-49591309D02*
X119968664Y-49515119D01*
X119968664Y-49515119D02*
X119930568Y-49362738D01*
X119930568Y-49362738D02*
X119930568Y-49248452D01*
X119930568Y-49248452D02*
X119968664Y-49096071D01*
X119968664Y-49096071D02*
X120006759Y-49019880D01*
X120006759Y-49019880D02*
X120082949Y-48943690D01*
X120082949Y-48943690D02*
X120197235Y-48905595D01*
X120197235Y-48905595D02*
X120273426Y-48905595D01*
X120273426Y-48905595D02*
X120387711Y-48943690D01*
X120387711Y-48943690D02*
X120425807Y-48981785D01*
X120730568Y-49667500D02*
X120844854Y-49705595D01*
X120844854Y-49705595D02*
X121035330Y-49705595D01*
X121035330Y-49705595D02*
X121111521Y-49667500D01*
X121111521Y-49667500D02*
X121149616Y-49629404D01*
X121149616Y-49629404D02*
X121187711Y-49553214D01*
X121187711Y-49553214D02*
X121187711Y-49477023D01*
X121187711Y-49477023D02*
X121149616Y-49400833D01*
X121149616Y-49400833D02*
X121111521Y-49362738D01*
X121111521Y-49362738D02*
X121035330Y-49324642D01*
X121035330Y-49324642D02*
X120882949Y-49286547D01*
X120882949Y-49286547D02*
X120806759Y-49248452D01*
X120806759Y-49248452D02*
X120768664Y-49210357D01*
X120768664Y-49210357D02*
X120730568Y-49134166D01*
X120730568Y-49134166D02*
X120730568Y-49057976D01*
X120730568Y-49057976D02*
X120768664Y-48981785D01*
X120768664Y-48981785D02*
X120806759Y-48943690D01*
X120806759Y-48943690D02*
X120882949Y-48905595D01*
X120882949Y-48905595D02*
X121073426Y-48905595D01*
X121073426Y-48905595D02*
X121187711Y-48943690D01*
X121530569Y-49705595D02*
X121530569Y-48905595D01*
X121530569Y-48905595D02*
X121835331Y-48905595D01*
X121835331Y-48905595D02*
X121911521Y-48943690D01*
X121911521Y-48943690D02*
X121949616Y-48981785D01*
X121949616Y-48981785D02*
X121987712Y-49057976D01*
X121987712Y-49057976D02*
X121987712Y-49172261D01*
X121987712Y-49172261D02*
X121949616Y-49248452D01*
X121949616Y-49248452D02*
X121911521Y-49286547D01*
X121911521Y-49286547D02*
X121835331Y-49324642D01*
X121835331Y-49324642D02*
X121530569Y-49324642D01*
X96340093Y-70606119D02*
X97006759Y-70606119D01*
X97006759Y-70606119D02*
X96578188Y-71606119D01*
X86215093Y-70581119D02*
X86834140Y-70581119D01*
X86834140Y-70581119D02*
X86500807Y-70962071D01*
X86500807Y-70962071D02*
X86643664Y-70962071D01*
X86643664Y-70962071D02*
X86738902Y-71009690D01*
X86738902Y-71009690D02*
X86786521Y-71057309D01*
X86786521Y-71057309D02*
X86834140Y-71152547D01*
X86834140Y-71152547D02*
X86834140Y-71390642D01*
X86834140Y-71390642D02*
X86786521Y-71485880D01*
X86786521Y-71485880D02*
X86738902Y-71533500D01*
X86738902Y-71533500D02*
X86643664Y-71581119D01*
X86643664Y-71581119D02*
X86357950Y-71581119D01*
X86357950Y-71581119D02*
X86262712Y-71533500D01*
X86262712Y-71533500D02*
X86215093Y-71485880D01*
D12*
X111748333Y-57889819D02*
X111415000Y-57413628D01*
X111176905Y-57889819D02*
X111176905Y-56889819D01*
X111176905Y-56889819D02*
X111557857Y-56889819D01*
X111557857Y-56889819D02*
X111653095Y-56937438D01*
X111653095Y-56937438D02*
X111700714Y-56985057D01*
X111700714Y-56985057D02*
X111748333Y-57080295D01*
X111748333Y-57080295D02*
X111748333Y-57223152D01*
X111748333Y-57223152D02*
X111700714Y-57318390D01*
X111700714Y-57318390D02*
X111653095Y-57366009D01*
X111653095Y-57366009D02*
X111557857Y-57413628D01*
X111557857Y-57413628D02*
X111176905Y-57413628D01*
X112605476Y-57223152D02*
X112605476Y-57889819D01*
X112367381Y-56842200D02*
X112129286Y-57556485D01*
X112129286Y-57556485D02*
X112748333Y-57556485D01*
X110266190Y-53863152D02*
X110266190Y-54529819D01*
X110028095Y-53482200D02*
X109790000Y-54196485D01*
X109790000Y-54196485D02*
X110409047Y-54196485D01*
X110790000Y-54434580D02*
X110837619Y-54482200D01*
X110837619Y-54482200D02*
X110790000Y-54529819D01*
X110790000Y-54529819D02*
X110742381Y-54482200D01*
X110742381Y-54482200D02*
X110790000Y-54434580D01*
X110790000Y-54434580D02*
X110790000Y-54529819D01*
X111170952Y-53529819D02*
X111837618Y-53529819D01*
X111837618Y-53529819D02*
X111409047Y-54529819D01*
X112218571Y-54529819D02*
X112218571Y-53529819D01*
X112789999Y-54529819D02*
X112361428Y-53958390D01*
X112789999Y-53529819D02*
X112218571Y-54101247D01*
X90928095Y-53139819D02*
X90928095Y-53949342D01*
X90928095Y-53949342D02*
X90975714Y-54044580D01*
X90975714Y-54044580D02*
X91023333Y-54092200D01*
X91023333Y-54092200D02*
X91118571Y-54139819D01*
X91118571Y-54139819D02*
X91309047Y-54139819D01*
X91309047Y-54139819D02*
X91404285Y-54092200D01*
X91404285Y-54092200D02*
X91451904Y-54044580D01*
X91451904Y-54044580D02*
X91499523Y-53949342D01*
X91499523Y-53949342D02*
X91499523Y-53139819D01*
X92499523Y-54139819D02*
X91928095Y-54139819D01*
X92213809Y-54139819D02*
X92213809Y-53139819D01*
X92213809Y-53139819D02*
X92118571Y-53282676D01*
X92118571Y-53282676D02*
X92023333Y-53377914D01*
X92023333Y-53377914D02*
X91928095Y-53425533D01*
X84333571Y-60290057D02*
X84381190Y-60242438D01*
X84381190Y-60242438D02*
X84476428Y-60194819D01*
X84476428Y-60194819D02*
X84714523Y-60194819D01*
X84714523Y-60194819D02*
X84809761Y-60242438D01*
X84809761Y-60242438D02*
X84857380Y-60290057D01*
X84857380Y-60290057D02*
X84904999Y-60385295D01*
X84904999Y-60385295D02*
X84904999Y-60480533D01*
X84904999Y-60480533D02*
X84857380Y-60623390D01*
X84857380Y-60623390D02*
X84285952Y-61194819D01*
X84285952Y-61194819D02*
X84904999Y-61194819D01*
X85762142Y-60528152D02*
X85762142Y-61194819D01*
X85524047Y-60147200D02*
X85285952Y-60861485D01*
X85285952Y-60861485D02*
X85904999Y-60861485D01*
X86762142Y-61194819D02*
X86285952Y-61194819D01*
X86285952Y-61194819D02*
X86285952Y-60194819D01*
X87666904Y-61099580D02*
X87619285Y-61147200D01*
X87619285Y-61147200D02*
X87476428Y-61194819D01*
X87476428Y-61194819D02*
X87381190Y-61194819D01*
X87381190Y-61194819D02*
X87238333Y-61147200D01*
X87238333Y-61147200D02*
X87143095Y-61051961D01*
X87143095Y-61051961D02*
X87095476Y-60956723D01*
X87095476Y-60956723D02*
X87047857Y-60766247D01*
X87047857Y-60766247D02*
X87047857Y-60623390D01*
X87047857Y-60623390D02*
X87095476Y-60432914D01*
X87095476Y-60432914D02*
X87143095Y-60337676D01*
X87143095Y-60337676D02*
X87238333Y-60242438D01*
X87238333Y-60242438D02*
X87381190Y-60194819D01*
X87381190Y-60194819D02*
X87476428Y-60194819D01*
X87476428Y-60194819D02*
X87619285Y-60242438D01*
X87619285Y-60242438D02*
X87666904Y-60290057D01*
X88619285Y-61194819D02*
X88047857Y-61194819D01*
X88333571Y-61194819D02*
X88333571Y-60194819D01*
X88333571Y-60194819D02*
X88238333Y-60337676D01*
X88238333Y-60337676D02*
X88143095Y-60432914D01*
X88143095Y-60432914D02*
X88047857Y-60480533D01*
X89238333Y-60194819D02*
X89333571Y-60194819D01*
X89333571Y-60194819D02*
X89428809Y-60242438D01*
X89428809Y-60242438D02*
X89476428Y-60290057D01*
X89476428Y-60290057D02*
X89524047Y-60385295D01*
X89524047Y-60385295D02*
X89571666Y-60575771D01*
X89571666Y-60575771D02*
X89571666Y-60813866D01*
X89571666Y-60813866D02*
X89524047Y-61004342D01*
X89524047Y-61004342D02*
X89476428Y-61099580D01*
X89476428Y-61099580D02*
X89428809Y-61147200D01*
X89428809Y-61147200D02*
X89333571Y-61194819D01*
X89333571Y-61194819D02*
X89238333Y-61194819D01*
X89238333Y-61194819D02*
X89143095Y-61147200D01*
X89143095Y-61147200D02*
X89095476Y-61099580D01*
X89095476Y-61099580D02*
X89047857Y-61004342D01*
X89047857Y-61004342D02*
X89000238Y-60813866D01*
X89000238Y-60813866D02*
X89000238Y-60575771D01*
X89000238Y-60575771D02*
X89047857Y-60385295D01*
X89047857Y-60385295D02*
X89095476Y-60290057D01*
X89095476Y-60290057D02*
X89143095Y-60242438D01*
X89143095Y-60242438D02*
X89238333Y-60194819D01*
X89952619Y-60290057D02*
X90000238Y-60242438D01*
X90000238Y-60242438D02*
X90095476Y-60194819D01*
X90095476Y-60194819D02*
X90333571Y-60194819D01*
X90333571Y-60194819D02*
X90428809Y-60242438D01*
X90428809Y-60242438D02*
X90476428Y-60290057D01*
X90476428Y-60290057D02*
X90524047Y-60385295D01*
X90524047Y-60385295D02*
X90524047Y-60480533D01*
X90524047Y-60480533D02*
X90476428Y-60623390D01*
X90476428Y-60623390D02*
X89905000Y-61194819D01*
X89905000Y-61194819D02*
X90524047Y-61194819D01*
X91428809Y-60194819D02*
X90952619Y-60194819D01*
X90952619Y-60194819D02*
X90905000Y-60671009D01*
X90905000Y-60671009D02*
X90952619Y-60623390D01*
X90952619Y-60623390D02*
X91047857Y-60575771D01*
X91047857Y-60575771D02*
X91285952Y-60575771D01*
X91285952Y-60575771D02*
X91381190Y-60623390D01*
X91381190Y-60623390D02*
X91428809Y-60671009D01*
X91428809Y-60671009D02*
X91476428Y-60766247D01*
X91476428Y-60766247D02*
X91476428Y-61004342D01*
X91476428Y-61004342D02*
X91428809Y-61099580D01*
X91428809Y-61099580D02*
X91381190Y-61147200D01*
X91381190Y-61147200D02*
X91285952Y-61194819D01*
X91285952Y-61194819D02*
X91047857Y-61194819D01*
X91047857Y-61194819D02*
X90952619Y-61147200D01*
X90952619Y-61147200D02*
X90905000Y-61099580D01*
D11*
X88431666Y-70211109D02*
X88265000Y-69973014D01*
X88145952Y-70211109D02*
X88145952Y-69711109D01*
X88145952Y-69711109D02*
X88336428Y-69711109D01*
X88336428Y-69711109D02*
X88384047Y-69734919D01*
X88384047Y-69734919D02*
X88407857Y-69758728D01*
X88407857Y-69758728D02*
X88431666Y-69806347D01*
X88431666Y-69806347D02*
X88431666Y-69877776D01*
X88431666Y-69877776D02*
X88407857Y-69925395D01*
X88407857Y-69925395D02*
X88384047Y-69949204D01*
X88384047Y-69949204D02*
X88336428Y-69973014D01*
X88336428Y-69973014D02*
X88145952Y-69973014D01*
X88622143Y-69758728D02*
X88645952Y-69734919D01*
X88645952Y-69734919D02*
X88693571Y-69711109D01*
X88693571Y-69711109D02*
X88812619Y-69711109D01*
X88812619Y-69711109D02*
X88860238Y-69734919D01*
X88860238Y-69734919D02*
X88884047Y-69758728D01*
X88884047Y-69758728D02*
X88907857Y-69806347D01*
X88907857Y-69806347D02*
X88907857Y-69853966D01*
X88907857Y-69853966D02*
X88884047Y-69925395D01*
X88884047Y-69925395D02*
X88598333Y-70211109D01*
X88598333Y-70211109D02*
X88907857Y-70211109D01*
D13*
X122173333Y-70338059D02*
X122173333Y-70695202D01*
X122173333Y-70695202D02*
X122149524Y-70766630D01*
X122149524Y-70766630D02*
X122101905Y-70814250D01*
X122101905Y-70814250D02*
X122030476Y-70838059D01*
X122030476Y-70838059D02*
X121982857Y-70838059D01*
X122673333Y-70838059D02*
X122387619Y-70838059D01*
X122530476Y-70838059D02*
X122530476Y-70338059D01*
X122530476Y-70338059D02*
X122482857Y-70409488D01*
X122482857Y-70409488D02*
X122435238Y-70457107D01*
X122435238Y-70457107D02*
X122387619Y-70480916D01*
D12*
X99023333Y-46144580D02*
X98975714Y-46192200D01*
X98975714Y-46192200D02*
X98832857Y-46239819D01*
X98832857Y-46239819D02*
X98737619Y-46239819D01*
X98737619Y-46239819D02*
X98594762Y-46192200D01*
X98594762Y-46192200D02*
X98499524Y-46096961D01*
X98499524Y-46096961D02*
X98451905Y-46001723D01*
X98451905Y-46001723D02*
X98404286Y-45811247D01*
X98404286Y-45811247D02*
X98404286Y-45668390D01*
X98404286Y-45668390D02*
X98451905Y-45477914D01*
X98451905Y-45477914D02*
X98499524Y-45382676D01*
X98499524Y-45382676D02*
X98594762Y-45287438D01*
X98594762Y-45287438D02*
X98737619Y-45239819D01*
X98737619Y-45239819D02*
X98832857Y-45239819D01*
X98832857Y-45239819D02*
X98975714Y-45287438D01*
X98975714Y-45287438D02*
X99023333Y-45335057D01*
X99975714Y-46239819D02*
X99404286Y-46239819D01*
X99690000Y-46239819D02*
X99690000Y-45239819D01*
X99690000Y-45239819D02*
X99594762Y-45382676D01*
X99594762Y-45382676D02*
X99499524Y-45477914D01*
X99499524Y-45477914D02*
X99404286Y-45525533D01*
X94297143Y-48589819D02*
X94392381Y-48589819D01*
X94392381Y-48589819D02*
X94487619Y-48637438D01*
X94487619Y-48637438D02*
X94535238Y-48685057D01*
X94535238Y-48685057D02*
X94582857Y-48780295D01*
X94582857Y-48780295D02*
X94630476Y-48970771D01*
X94630476Y-48970771D02*
X94630476Y-49208866D01*
X94630476Y-49208866D02*
X94582857Y-49399342D01*
X94582857Y-49399342D02*
X94535238Y-49494580D01*
X94535238Y-49494580D02*
X94487619Y-49542200D01*
X94487619Y-49542200D02*
X94392381Y-49589819D01*
X94392381Y-49589819D02*
X94297143Y-49589819D01*
X94297143Y-49589819D02*
X94201905Y-49542200D01*
X94201905Y-49542200D02*
X94154286Y-49494580D01*
X94154286Y-49494580D02*
X94106667Y-49399342D01*
X94106667Y-49399342D02*
X94059048Y-49208866D01*
X94059048Y-49208866D02*
X94059048Y-48970771D01*
X94059048Y-48970771D02*
X94106667Y-48780295D01*
X94106667Y-48780295D02*
X94154286Y-48685057D01*
X94154286Y-48685057D02*
X94201905Y-48637438D01*
X94201905Y-48637438D02*
X94297143Y-48589819D01*
X95059048Y-49494580D02*
X95106667Y-49542200D01*
X95106667Y-49542200D02*
X95059048Y-49589819D01*
X95059048Y-49589819D02*
X95011429Y-49542200D01*
X95011429Y-49542200D02*
X95059048Y-49494580D01*
X95059048Y-49494580D02*
X95059048Y-49589819D01*
X96059047Y-49589819D02*
X95487619Y-49589819D01*
X95773333Y-49589819D02*
X95773333Y-48589819D01*
X95773333Y-48589819D02*
X95678095Y-48732676D01*
X95678095Y-48732676D02*
X95582857Y-48827914D01*
X95582857Y-48827914D02*
X95487619Y-48875533D01*
X96916190Y-48923152D02*
X96916190Y-49589819D01*
X96487619Y-48923152D02*
X96487619Y-49446961D01*
X96487619Y-49446961D02*
X96535238Y-49542200D01*
X96535238Y-49542200D02*
X96630476Y-49589819D01*
X96630476Y-49589819D02*
X96773333Y-49589819D01*
X96773333Y-49589819D02*
X96868571Y-49542200D01*
X96868571Y-49542200D02*
X96916190Y-49494580D01*
X97725714Y-49066009D02*
X97392381Y-49066009D01*
X97392381Y-49589819D02*
X97392381Y-48589819D01*
X97392381Y-48589819D02*
X97868571Y-48589819D01*
X107648333Y-69394580D02*
X107600714Y-69442200D01*
X107600714Y-69442200D02*
X107457857Y-69489819D01*
X107457857Y-69489819D02*
X107362619Y-69489819D01*
X107362619Y-69489819D02*
X107219762Y-69442200D01*
X107219762Y-69442200D02*
X107124524Y-69346961D01*
X107124524Y-69346961D02*
X107076905Y-69251723D01*
X107076905Y-69251723D02*
X107029286Y-69061247D01*
X107029286Y-69061247D02*
X107029286Y-68918390D01*
X107029286Y-68918390D02*
X107076905Y-68727914D01*
X107076905Y-68727914D02*
X107124524Y-68632676D01*
X107124524Y-68632676D02*
X107219762Y-68537438D01*
X107219762Y-68537438D02*
X107362619Y-68489819D01*
X107362619Y-68489819D02*
X107457857Y-68489819D01*
X107457857Y-68489819D02*
X107600714Y-68537438D01*
X107600714Y-68537438D02*
X107648333Y-68585057D01*
X108505476Y-68823152D02*
X108505476Y-69489819D01*
X108267381Y-68442200D02*
X108029286Y-69156485D01*
X108029286Y-69156485D02*
X108648333Y-69156485D01*
X107272143Y-67089819D02*
X107367381Y-67089819D01*
X107367381Y-67089819D02*
X107462619Y-67137438D01*
X107462619Y-67137438D02*
X107510238Y-67185057D01*
X107510238Y-67185057D02*
X107557857Y-67280295D01*
X107557857Y-67280295D02*
X107605476Y-67470771D01*
X107605476Y-67470771D02*
X107605476Y-67708866D01*
X107605476Y-67708866D02*
X107557857Y-67899342D01*
X107557857Y-67899342D02*
X107510238Y-67994580D01*
X107510238Y-67994580D02*
X107462619Y-68042200D01*
X107462619Y-68042200D02*
X107367381Y-68089819D01*
X107367381Y-68089819D02*
X107272143Y-68089819D01*
X107272143Y-68089819D02*
X107176905Y-68042200D01*
X107176905Y-68042200D02*
X107129286Y-67994580D01*
X107129286Y-67994580D02*
X107081667Y-67899342D01*
X107081667Y-67899342D02*
X107034048Y-67708866D01*
X107034048Y-67708866D02*
X107034048Y-67470771D01*
X107034048Y-67470771D02*
X107081667Y-67280295D01*
X107081667Y-67280295D02*
X107129286Y-67185057D01*
X107129286Y-67185057D02*
X107176905Y-67137438D01*
X107176905Y-67137438D02*
X107272143Y-67089819D01*
X108034048Y-67994580D02*
X108081667Y-68042200D01*
X108081667Y-68042200D02*
X108034048Y-68089819D01*
X108034048Y-68089819D02*
X107986429Y-68042200D01*
X107986429Y-68042200D02*
X108034048Y-67994580D01*
X108034048Y-67994580D02*
X108034048Y-68089819D01*
X109034047Y-68089819D02*
X108462619Y-68089819D01*
X108748333Y-68089819D02*
X108748333Y-67089819D01*
X108748333Y-67089819D02*
X108653095Y-67232676D01*
X108653095Y-67232676D02*
X108557857Y-67327914D01*
X108557857Y-67327914D02*
X108462619Y-67375533D01*
X109891190Y-67423152D02*
X109891190Y-68089819D01*
X109462619Y-67423152D02*
X109462619Y-67946961D01*
X109462619Y-67946961D02*
X109510238Y-68042200D01*
X109510238Y-68042200D02*
X109605476Y-68089819D01*
X109605476Y-68089819D02*
X109748333Y-68089819D01*
X109748333Y-68089819D02*
X109843571Y-68042200D01*
X109843571Y-68042200D02*
X109891190Y-67994580D01*
X110700714Y-67566009D02*
X110367381Y-67566009D01*
X110367381Y-68089819D02*
X110367381Y-67089819D01*
X110367381Y-67089819D02*
X110843571Y-67089819D01*
X117651905Y-45989819D02*
X117651905Y-44989819D01*
X117651905Y-44989819D02*
X117890000Y-44989819D01*
X117890000Y-44989819D02*
X118032857Y-45037438D01*
X118032857Y-45037438D02*
X118128095Y-45132676D01*
X118128095Y-45132676D02*
X118175714Y-45227914D01*
X118175714Y-45227914D02*
X118223333Y-45418390D01*
X118223333Y-45418390D02*
X118223333Y-45561247D01*
X118223333Y-45561247D02*
X118175714Y-45751723D01*
X118175714Y-45751723D02*
X118128095Y-45846961D01*
X118128095Y-45846961D02*
X118032857Y-45942200D01*
X118032857Y-45942200D02*
X117890000Y-45989819D01*
X117890000Y-45989819D02*
X117651905Y-45989819D01*
X119175714Y-45989819D02*
X118604286Y-45989819D01*
X118890000Y-45989819D02*
X118890000Y-44989819D01*
X118890000Y-44989819D02*
X118794762Y-45132676D01*
X118794762Y-45132676D02*
X118699524Y-45227914D01*
X118699524Y-45227914D02*
X118604286Y-45275533D01*
X115547142Y-49344819D02*
X115070952Y-49344819D01*
X115070952Y-49344819D02*
X115070952Y-48344819D01*
X115880476Y-48821009D02*
X116213809Y-48821009D01*
X116356666Y-49344819D02*
X115880476Y-49344819D01*
X115880476Y-49344819D02*
X115880476Y-48344819D01*
X115880476Y-48344819D02*
X116356666Y-48344819D01*
X116785238Y-49344819D02*
X116785238Y-48344819D01*
X116785238Y-48344819D02*
X117023333Y-48344819D01*
X117023333Y-48344819D02*
X117166190Y-48392438D01*
X117166190Y-48392438D02*
X117261428Y-48487676D01*
X117261428Y-48487676D02*
X117309047Y-48582914D01*
X117309047Y-48582914D02*
X117356666Y-48773390D01*
X117356666Y-48773390D02*
X117356666Y-48916247D01*
X117356666Y-48916247D02*
X117309047Y-49106723D01*
X117309047Y-49106723D02*
X117261428Y-49201961D01*
X117261428Y-49201961D02*
X117166190Y-49297200D01*
X117166190Y-49297200D02*
X117023333Y-49344819D01*
X117023333Y-49344819D02*
X116785238Y-49344819D01*
X104638809Y-67463628D02*
X104638809Y-67939819D01*
X104305476Y-66939819D02*
X104638809Y-67463628D01*
X104638809Y-67463628D02*
X104972142Y-66939819D01*
X105257857Y-67035057D02*
X105305476Y-66987438D01*
X105305476Y-66987438D02*
X105400714Y-66939819D01*
X105400714Y-66939819D02*
X105638809Y-66939819D01*
X105638809Y-66939819D02*
X105734047Y-66987438D01*
X105734047Y-66987438D02*
X105781666Y-67035057D01*
X105781666Y-67035057D02*
X105829285Y-67130295D01*
X105829285Y-67130295D02*
X105829285Y-67225533D01*
X105829285Y-67225533D02*
X105781666Y-67368390D01*
X105781666Y-67368390D02*
X105210238Y-67939819D01*
X105210238Y-67939819D02*
X105829285Y-67939819D01*
X97468571Y-65189819D02*
X96897143Y-65189819D01*
X97182857Y-65189819D02*
X97182857Y-64189819D01*
X97182857Y-64189819D02*
X97087619Y-64332676D01*
X97087619Y-64332676D02*
X96992381Y-64427914D01*
X96992381Y-64427914D02*
X96897143Y-64475533D01*
X98325714Y-64189819D02*
X98135238Y-64189819D01*
X98135238Y-64189819D02*
X98040000Y-64237438D01*
X98040000Y-64237438D02*
X97992381Y-64285057D01*
X97992381Y-64285057D02*
X97897143Y-64427914D01*
X97897143Y-64427914D02*
X97849524Y-64618390D01*
X97849524Y-64618390D02*
X97849524Y-64999342D01*
X97849524Y-64999342D02*
X97897143Y-65094580D01*
X97897143Y-65094580D02*
X97944762Y-65142200D01*
X97944762Y-65142200D02*
X98040000Y-65189819D01*
X98040000Y-65189819D02*
X98230476Y-65189819D01*
X98230476Y-65189819D02*
X98325714Y-65142200D01*
X98325714Y-65142200D02*
X98373333Y-65094580D01*
X98373333Y-65094580D02*
X98420952Y-64999342D01*
X98420952Y-64999342D02*
X98420952Y-64761247D01*
X98420952Y-64761247D02*
X98373333Y-64666009D01*
X98373333Y-64666009D02*
X98325714Y-64618390D01*
X98325714Y-64618390D02*
X98230476Y-64570771D01*
X98230476Y-64570771D02*
X98040000Y-64570771D01*
X98040000Y-64570771D02*
X97944762Y-64618390D01*
X97944762Y-64618390D02*
X97897143Y-64666009D01*
X97897143Y-64666009D02*
X97849524Y-64761247D01*
X99611429Y-65189819D02*
X99611429Y-64189819D01*
X99611429Y-64189819D02*
X99944762Y-64904104D01*
X99944762Y-64904104D02*
X100278095Y-64189819D01*
X100278095Y-64189819D02*
X100278095Y-65189819D01*
X100754286Y-65189819D02*
X100754286Y-64189819D01*
X100754286Y-64666009D02*
X101325714Y-64666009D01*
X101325714Y-65189819D02*
X101325714Y-64189819D01*
X101706667Y-64523152D02*
X102230476Y-64523152D01*
X102230476Y-64523152D02*
X101706667Y-65189819D01*
X101706667Y-65189819D02*
X102230476Y-65189819D01*
X114573333Y-56964819D02*
X114240000Y-56488628D01*
X114001905Y-56964819D02*
X114001905Y-55964819D01*
X114001905Y-55964819D02*
X114382857Y-55964819D01*
X114382857Y-55964819D02*
X114478095Y-56012438D01*
X114478095Y-56012438D02*
X114525714Y-56060057D01*
X114525714Y-56060057D02*
X114573333Y-56155295D01*
X114573333Y-56155295D02*
X114573333Y-56298152D01*
X114573333Y-56298152D02*
X114525714Y-56393390D01*
X114525714Y-56393390D02*
X114478095Y-56441009D01*
X114478095Y-56441009D02*
X114382857Y-56488628D01*
X114382857Y-56488628D02*
X114001905Y-56488628D01*
X115430476Y-55964819D02*
X115240000Y-55964819D01*
X115240000Y-55964819D02*
X115144762Y-56012438D01*
X115144762Y-56012438D02*
X115097143Y-56060057D01*
X115097143Y-56060057D02*
X115001905Y-56202914D01*
X115001905Y-56202914D02*
X114954286Y-56393390D01*
X114954286Y-56393390D02*
X114954286Y-56774342D01*
X114954286Y-56774342D02*
X115001905Y-56869580D01*
X115001905Y-56869580D02*
X115049524Y-56917200D01*
X115049524Y-56917200D02*
X115144762Y-56964819D01*
X115144762Y-56964819D02*
X115335238Y-56964819D01*
X115335238Y-56964819D02*
X115430476Y-56917200D01*
X115430476Y-56917200D02*
X115478095Y-56869580D01*
X115478095Y-56869580D02*
X115525714Y-56774342D01*
X115525714Y-56774342D02*
X115525714Y-56536247D01*
X115525714Y-56536247D02*
X115478095Y-56441009D01*
X115478095Y-56441009D02*
X115430476Y-56393390D01*
X115430476Y-56393390D02*
X115335238Y-56345771D01*
X115335238Y-56345771D02*
X115144762Y-56345771D01*
X115144762Y-56345771D02*
X115049524Y-56393390D01*
X115049524Y-56393390D02*
X115001905Y-56441009D01*
X115001905Y-56441009D02*
X114954286Y-56536247D01*
X116399523Y-56939819D02*
X115828095Y-56939819D01*
X116113809Y-56939819D02*
X116113809Y-55939819D01*
X116113809Y-55939819D02*
X116018571Y-56082676D01*
X116018571Y-56082676D02*
X115923333Y-56177914D01*
X115923333Y-56177914D02*
X115828095Y-56225533D01*
X117018571Y-55939819D02*
X117113809Y-55939819D01*
X117113809Y-55939819D02*
X117209047Y-55987438D01*
X117209047Y-55987438D02*
X117256666Y-56035057D01*
X117256666Y-56035057D02*
X117304285Y-56130295D01*
X117304285Y-56130295D02*
X117351904Y-56320771D01*
X117351904Y-56320771D02*
X117351904Y-56558866D01*
X117351904Y-56558866D02*
X117304285Y-56749342D01*
X117304285Y-56749342D02*
X117256666Y-56844580D01*
X117256666Y-56844580D02*
X117209047Y-56892200D01*
X117209047Y-56892200D02*
X117113809Y-56939819D01*
X117113809Y-56939819D02*
X117018571Y-56939819D01*
X117018571Y-56939819D02*
X116923333Y-56892200D01*
X116923333Y-56892200D02*
X116875714Y-56844580D01*
X116875714Y-56844580D02*
X116828095Y-56749342D01*
X116828095Y-56749342D02*
X116780476Y-56558866D01*
X116780476Y-56558866D02*
X116780476Y-56320771D01*
X116780476Y-56320771D02*
X116828095Y-56130295D01*
X116828095Y-56130295D02*
X116875714Y-56035057D01*
X116875714Y-56035057D02*
X116923333Y-55987438D01*
X116923333Y-55987438D02*
X117018571Y-55939819D01*
X117780476Y-56939819D02*
X117780476Y-55939819D01*
X118351904Y-56939819D02*
X117923333Y-56368390D01*
X118351904Y-55939819D02*
X117780476Y-56511247D01*
X109273333Y-62339819D02*
X108940000Y-61863628D01*
X108701905Y-62339819D02*
X108701905Y-61339819D01*
X108701905Y-61339819D02*
X109082857Y-61339819D01*
X109082857Y-61339819D02*
X109178095Y-61387438D01*
X109178095Y-61387438D02*
X109225714Y-61435057D01*
X109225714Y-61435057D02*
X109273333Y-61530295D01*
X109273333Y-61530295D02*
X109273333Y-61673152D01*
X109273333Y-61673152D02*
X109225714Y-61768390D01*
X109225714Y-61768390D02*
X109178095Y-61816009D01*
X109178095Y-61816009D02*
X109082857Y-61863628D01*
X109082857Y-61863628D02*
X108701905Y-61863628D01*
X109606667Y-61339819D02*
X110225714Y-61339819D01*
X110225714Y-61339819D02*
X109892381Y-61720771D01*
X109892381Y-61720771D02*
X110035238Y-61720771D01*
X110035238Y-61720771D02*
X110130476Y-61768390D01*
X110130476Y-61768390D02*
X110178095Y-61816009D01*
X110178095Y-61816009D02*
X110225714Y-61911247D01*
X110225714Y-61911247D02*
X110225714Y-62149342D01*
X110225714Y-62149342D02*
X110178095Y-62244580D01*
X110178095Y-62244580D02*
X110130476Y-62292200D01*
X110130476Y-62292200D02*
X110035238Y-62339819D01*
X110035238Y-62339819D02*
X109749524Y-62339819D01*
X109749524Y-62339819D02*
X109654286Y-62292200D01*
X109654286Y-62292200D02*
X109606667Y-62244580D01*
X111066190Y-61698152D02*
X111066190Y-62364819D01*
X110828095Y-61317200D02*
X110590000Y-62031485D01*
X110590000Y-62031485D02*
X111209047Y-62031485D01*
X111590000Y-62269580D02*
X111637619Y-62317200D01*
X111637619Y-62317200D02*
X111590000Y-62364819D01*
X111590000Y-62364819D02*
X111542381Y-62317200D01*
X111542381Y-62317200D02*
X111590000Y-62269580D01*
X111590000Y-62269580D02*
X111590000Y-62364819D01*
X111970952Y-61364819D02*
X112637618Y-61364819D01*
X112637618Y-61364819D02*
X112209047Y-62364819D01*
X113018571Y-62364819D02*
X113018571Y-61364819D01*
X113589999Y-62364819D02*
X113161428Y-61793390D01*
X113589999Y-61364819D02*
X113018571Y-61936247D01*
X78954285Y-59541009D02*
X79097142Y-59588628D01*
X79097142Y-59588628D02*
X79144761Y-59636247D01*
X79144761Y-59636247D02*
X79192380Y-59731485D01*
X79192380Y-59731485D02*
X79192380Y-59874342D01*
X79192380Y-59874342D02*
X79144761Y-59969580D01*
X79144761Y-59969580D02*
X79097142Y-60017200D01*
X79097142Y-60017200D02*
X79001904Y-60064819D01*
X79001904Y-60064819D02*
X78620952Y-60064819D01*
X78620952Y-60064819D02*
X78620952Y-59064819D01*
X78620952Y-59064819D02*
X78954285Y-59064819D01*
X78954285Y-59064819D02*
X79049523Y-59112438D01*
X79049523Y-59112438D02*
X79097142Y-59160057D01*
X79097142Y-59160057D02*
X79144761Y-59255295D01*
X79144761Y-59255295D02*
X79144761Y-59350533D01*
X79144761Y-59350533D02*
X79097142Y-59445771D01*
X79097142Y-59445771D02*
X79049523Y-59493390D01*
X79049523Y-59493390D02*
X78954285Y-59541009D01*
X78954285Y-59541009D02*
X78620952Y-59541009D01*
X79478095Y-59064819D02*
X80049523Y-59064819D01*
X79763809Y-60064819D02*
X79763809Y-59064819D01*
X80906666Y-60064819D02*
X80335238Y-60064819D01*
X80620952Y-60064819D02*
X80620952Y-59064819D01*
X80620952Y-59064819D02*
X80525714Y-59207676D01*
X80525714Y-59207676D02*
X80430476Y-59302914D01*
X80430476Y-59302914D02*
X80335238Y-59350533D01*
X77818570Y-51841009D02*
X77961427Y-51888628D01*
X77961427Y-51888628D02*
X78009046Y-51936247D01*
X78009046Y-51936247D02*
X78056665Y-52031485D01*
X78056665Y-52031485D02*
X78056665Y-52174342D01*
X78056665Y-52174342D02*
X78009046Y-52269580D01*
X78009046Y-52269580D02*
X77961427Y-52317200D01*
X77961427Y-52317200D02*
X77866189Y-52364819D01*
X77866189Y-52364819D02*
X77485237Y-52364819D01*
X77485237Y-52364819D02*
X77485237Y-51364819D01*
X77485237Y-51364819D02*
X77818570Y-51364819D01*
X77818570Y-51364819D02*
X77913808Y-51412438D01*
X77913808Y-51412438D02*
X77961427Y-51460057D01*
X77961427Y-51460057D02*
X78009046Y-51555295D01*
X78009046Y-51555295D02*
X78009046Y-51650533D01*
X78009046Y-51650533D02*
X77961427Y-51745771D01*
X77961427Y-51745771D02*
X77913808Y-51793390D01*
X77913808Y-51793390D02*
X77818570Y-51841009D01*
X77818570Y-51841009D02*
X77485237Y-51841009D01*
X78913808Y-52364819D02*
X78913808Y-51841009D01*
X78913808Y-51841009D02*
X78866189Y-51745771D01*
X78866189Y-51745771D02*
X78770951Y-51698152D01*
X78770951Y-51698152D02*
X78580475Y-51698152D01*
X78580475Y-51698152D02*
X78485237Y-51745771D01*
X78913808Y-52317200D02*
X78818570Y-52364819D01*
X78818570Y-52364819D02*
X78580475Y-52364819D01*
X78580475Y-52364819D02*
X78485237Y-52317200D01*
X78485237Y-52317200D02*
X78437618Y-52221961D01*
X78437618Y-52221961D02*
X78437618Y-52126723D01*
X78437618Y-52126723D02*
X78485237Y-52031485D01*
X78485237Y-52031485D02*
X78580475Y-51983866D01*
X78580475Y-51983866D02*
X78818570Y-51983866D01*
X78818570Y-51983866D02*
X78913808Y-51936247D01*
X79247142Y-51698152D02*
X79628094Y-51698152D01*
X79389999Y-51364819D02*
X79389999Y-52221961D01*
X79389999Y-52221961D02*
X79437618Y-52317200D01*
X79437618Y-52317200D02*
X79532856Y-52364819D01*
X79532856Y-52364819D02*
X79628094Y-52364819D01*
X79818571Y-51698152D02*
X80199523Y-51698152D01*
X79961428Y-51364819D02*
X79961428Y-52221961D01*
X79961428Y-52221961D02*
X80009047Y-52317200D01*
X80009047Y-52317200D02*
X80104285Y-52364819D01*
X80104285Y-52364819D02*
X80199523Y-52364819D01*
X80913809Y-52317200D02*
X80818571Y-52364819D01*
X80818571Y-52364819D02*
X80628095Y-52364819D01*
X80628095Y-52364819D02*
X80532857Y-52317200D01*
X80532857Y-52317200D02*
X80485238Y-52221961D01*
X80485238Y-52221961D02*
X80485238Y-51841009D01*
X80485238Y-51841009D02*
X80532857Y-51745771D01*
X80532857Y-51745771D02*
X80628095Y-51698152D01*
X80628095Y-51698152D02*
X80818571Y-51698152D01*
X80818571Y-51698152D02*
X80913809Y-51745771D01*
X80913809Y-51745771D02*
X80961428Y-51841009D01*
X80961428Y-51841009D02*
X80961428Y-51936247D01*
X80961428Y-51936247D02*
X80485238Y-52031485D01*
X81390000Y-52364819D02*
X81390000Y-51698152D01*
X81390000Y-51888628D02*
X81437619Y-51793390D01*
X81437619Y-51793390D02*
X81485238Y-51745771D01*
X81485238Y-51745771D02*
X81580476Y-51698152D01*
X81580476Y-51698152D02*
X81675714Y-51698152D01*
X81913810Y-51698152D02*
X82151905Y-52364819D01*
X82390000Y-51698152D02*
X82151905Y-52364819D01*
X82151905Y-52364819D02*
X82056667Y-52602914D01*
X82056667Y-52602914D02*
X82009048Y-52650533D01*
X82009048Y-52650533D02*
X81913810Y-52698152D01*
X98078095Y-48889819D02*
X98078095Y-49699342D01*
X98078095Y-49699342D02*
X98125714Y-49794580D01*
X98125714Y-49794580D02*
X98173333Y-49842200D01*
X98173333Y-49842200D02*
X98268571Y-49889819D01*
X98268571Y-49889819D02*
X98459047Y-49889819D01*
X98459047Y-49889819D02*
X98554285Y-49842200D01*
X98554285Y-49842200D02*
X98601904Y-49794580D01*
X98601904Y-49794580D02*
X98649523Y-49699342D01*
X98649523Y-49699342D02*
X98649523Y-48889819D01*
X99554285Y-49223152D02*
X99554285Y-49889819D01*
X99316190Y-48842200D02*
X99078095Y-49556485D01*
X99078095Y-49556485D02*
X99697142Y-49556485D01*
X95843571Y-62679104D02*
X96319761Y-62679104D01*
X95748333Y-62964819D02*
X96081666Y-61964819D01*
X96081666Y-61964819D02*
X96414999Y-62964819D01*
X96605476Y-61964819D02*
X97176904Y-61964819D01*
X96891190Y-62964819D02*
X96891190Y-61964819D01*
X97510238Y-62964819D02*
X97510238Y-61964819D01*
X97510238Y-61964819D02*
X97843571Y-62679104D01*
X97843571Y-62679104D02*
X98176904Y-61964819D01*
X98176904Y-61964819D02*
X98176904Y-62964819D01*
X98653095Y-62441009D02*
X98986428Y-62441009D01*
X99129285Y-62964819D02*
X98653095Y-62964819D01*
X98653095Y-62964819D02*
X98653095Y-61964819D01*
X98653095Y-61964819D02*
X99129285Y-61964819D01*
X100081666Y-62012438D02*
X99986428Y-61964819D01*
X99986428Y-61964819D02*
X99843571Y-61964819D01*
X99843571Y-61964819D02*
X99700714Y-62012438D01*
X99700714Y-62012438D02*
X99605476Y-62107676D01*
X99605476Y-62107676D02*
X99557857Y-62202914D01*
X99557857Y-62202914D02*
X99510238Y-62393390D01*
X99510238Y-62393390D02*
X99510238Y-62536247D01*
X99510238Y-62536247D02*
X99557857Y-62726723D01*
X99557857Y-62726723D02*
X99605476Y-62821961D01*
X99605476Y-62821961D02*
X99700714Y-62917200D01*
X99700714Y-62917200D02*
X99843571Y-62964819D01*
X99843571Y-62964819D02*
X99938809Y-62964819D01*
X99938809Y-62964819D02*
X100081666Y-62917200D01*
X100081666Y-62917200D02*
X100129285Y-62869580D01*
X100129285Y-62869580D02*
X100129285Y-62536247D01*
X100129285Y-62536247D02*
X99938809Y-62536247D01*
X100510238Y-62679104D02*
X100986428Y-62679104D01*
X100415000Y-62964819D02*
X100748333Y-61964819D01*
X100748333Y-61964819D02*
X101081666Y-62964819D01*
X101319762Y-61964819D02*
X101938809Y-61964819D01*
X101938809Y-61964819D02*
X101605476Y-62345771D01*
X101605476Y-62345771D02*
X101748333Y-62345771D01*
X101748333Y-62345771D02*
X101843571Y-62393390D01*
X101843571Y-62393390D02*
X101891190Y-62441009D01*
X101891190Y-62441009D02*
X101938809Y-62536247D01*
X101938809Y-62536247D02*
X101938809Y-62774342D01*
X101938809Y-62774342D02*
X101891190Y-62869580D01*
X101891190Y-62869580D02*
X101843571Y-62917200D01*
X101843571Y-62917200D02*
X101748333Y-62964819D01*
X101748333Y-62964819D02*
X101462619Y-62964819D01*
X101462619Y-62964819D02*
X101367381Y-62917200D01*
X101367381Y-62917200D02*
X101319762Y-62869580D01*
X102319762Y-62060057D02*
X102367381Y-62012438D01*
X102367381Y-62012438D02*
X102462619Y-61964819D01*
X102462619Y-61964819D02*
X102700714Y-61964819D01*
X102700714Y-61964819D02*
X102795952Y-62012438D01*
X102795952Y-62012438D02*
X102843571Y-62060057D01*
X102843571Y-62060057D02*
X102891190Y-62155295D01*
X102891190Y-62155295D02*
X102891190Y-62250533D01*
X102891190Y-62250533D02*
X102843571Y-62393390D01*
X102843571Y-62393390D02*
X102272143Y-62964819D01*
X102272143Y-62964819D02*
X102891190Y-62964819D01*
X103462619Y-62393390D02*
X103367381Y-62345771D01*
X103367381Y-62345771D02*
X103319762Y-62298152D01*
X103319762Y-62298152D02*
X103272143Y-62202914D01*
X103272143Y-62202914D02*
X103272143Y-62155295D01*
X103272143Y-62155295D02*
X103319762Y-62060057D01*
X103319762Y-62060057D02*
X103367381Y-62012438D01*
X103367381Y-62012438D02*
X103462619Y-61964819D01*
X103462619Y-61964819D02*
X103653095Y-61964819D01*
X103653095Y-61964819D02*
X103748333Y-62012438D01*
X103748333Y-62012438D02*
X103795952Y-62060057D01*
X103795952Y-62060057D02*
X103843571Y-62155295D01*
X103843571Y-62155295D02*
X103843571Y-62202914D01*
X103843571Y-62202914D02*
X103795952Y-62298152D01*
X103795952Y-62298152D02*
X103748333Y-62345771D01*
X103748333Y-62345771D02*
X103653095Y-62393390D01*
X103653095Y-62393390D02*
X103462619Y-62393390D01*
X103462619Y-62393390D02*
X103367381Y-62441009D01*
X103367381Y-62441009D02*
X103319762Y-62488628D01*
X103319762Y-62488628D02*
X103272143Y-62583866D01*
X103272143Y-62583866D02*
X103272143Y-62774342D01*
X103272143Y-62774342D02*
X103319762Y-62869580D01*
X103319762Y-62869580D02*
X103367381Y-62917200D01*
X103367381Y-62917200D02*
X103462619Y-62964819D01*
X103462619Y-62964819D02*
X103653095Y-62964819D01*
X103653095Y-62964819D02*
X103748333Y-62917200D01*
X103748333Y-62917200D02*
X103795952Y-62869580D01*
X103795952Y-62869580D02*
X103843571Y-62774342D01*
X103843571Y-62774342D02*
X103843571Y-62583866D01*
X103843571Y-62583866D02*
X103795952Y-62488628D01*
X103795952Y-62488628D02*
X103748333Y-62441009D01*
X103748333Y-62441009D02*
X103653095Y-62393390D01*
X104272143Y-62964819D02*
X104272143Y-61964819D01*
X104272143Y-61964819D02*
X104653095Y-61964819D01*
X104653095Y-61964819D02*
X104748333Y-62012438D01*
X104748333Y-62012438D02*
X104795952Y-62060057D01*
X104795952Y-62060057D02*
X104843571Y-62155295D01*
X104843571Y-62155295D02*
X104843571Y-62298152D01*
X104843571Y-62298152D02*
X104795952Y-62393390D01*
X104795952Y-62393390D02*
X104748333Y-62441009D01*
X104748333Y-62441009D02*
X104653095Y-62488628D01*
X104653095Y-62488628D02*
X104272143Y-62488628D01*
X105272143Y-62583866D02*
X106034048Y-62583866D01*
X106462619Y-62679104D02*
X106938809Y-62679104D01*
X106367381Y-62964819D02*
X106700714Y-61964819D01*
X106700714Y-61964819D02*
X107034047Y-62964819D01*
X107367381Y-61964819D02*
X107367381Y-62774342D01*
X107367381Y-62774342D02*
X107415000Y-62869580D01*
X107415000Y-62869580D02*
X107462619Y-62917200D01*
X107462619Y-62917200D02*
X107557857Y-62964819D01*
X107557857Y-62964819D02*
X107748333Y-62964819D01*
X107748333Y-62964819D02*
X107843571Y-62917200D01*
X107843571Y-62917200D02*
X107891190Y-62869580D01*
X107891190Y-62869580D02*
X107938809Y-62774342D01*
X107938809Y-62774342D02*
X107938809Y-61964819D01*
X106356666Y-73139819D02*
X106356666Y-73854104D01*
X106356666Y-73854104D02*
X106309047Y-73996961D01*
X106309047Y-73996961D02*
X106213809Y-74092200D01*
X106213809Y-74092200D02*
X106070952Y-74139819D01*
X106070952Y-74139819D02*
X105975714Y-74139819D01*
X106737619Y-73139819D02*
X107356666Y-73139819D01*
X107356666Y-73139819D02*
X107023333Y-73520771D01*
X107023333Y-73520771D02*
X107166190Y-73520771D01*
X107166190Y-73520771D02*
X107261428Y-73568390D01*
X107261428Y-73568390D02*
X107309047Y-73616009D01*
X107309047Y-73616009D02*
X107356666Y-73711247D01*
X107356666Y-73711247D02*
X107356666Y-73949342D01*
X107356666Y-73949342D02*
X107309047Y-74044580D01*
X107309047Y-74044580D02*
X107261428Y-74092200D01*
X107261428Y-74092200D02*
X107166190Y-74139819D01*
X107166190Y-74139819D02*
X106880476Y-74139819D01*
X106880476Y-74139819D02*
X106785238Y-74092200D01*
X106785238Y-74092200D02*
X106737619Y-74044580D01*
X91653095Y-61864819D02*
X91653095Y-62674342D01*
X91653095Y-62674342D02*
X91700714Y-62769580D01*
X91700714Y-62769580D02*
X91748333Y-62817200D01*
X91748333Y-62817200D02*
X91843571Y-62864819D01*
X91843571Y-62864819D02*
X92034047Y-62864819D01*
X92034047Y-62864819D02*
X92129285Y-62817200D01*
X92129285Y-62817200D02*
X92176904Y-62769580D01*
X92176904Y-62769580D02*
X92224523Y-62674342D01*
X92224523Y-62674342D02*
X92224523Y-61864819D01*
X92653095Y-61960057D02*
X92700714Y-61912438D01*
X92700714Y-61912438D02*
X92795952Y-61864819D01*
X92795952Y-61864819D02*
X93034047Y-61864819D01*
X93034047Y-61864819D02*
X93129285Y-61912438D01*
X93129285Y-61912438D02*
X93176904Y-61960057D01*
X93176904Y-61960057D02*
X93224523Y-62055295D01*
X93224523Y-62055295D02*
X93224523Y-62150533D01*
X93224523Y-62150533D02*
X93176904Y-62293390D01*
X93176904Y-62293390D02*
X92605476Y-62864819D01*
X92605476Y-62864819D02*
X93224523Y-62864819D01*
X87328095Y-44814819D02*
X87328095Y-45624342D01*
X87328095Y-45624342D02*
X87375714Y-45719580D01*
X87375714Y-45719580D02*
X87423333Y-45767200D01*
X87423333Y-45767200D02*
X87518571Y-45814819D01*
X87518571Y-45814819D02*
X87709047Y-45814819D01*
X87709047Y-45814819D02*
X87804285Y-45767200D01*
X87804285Y-45767200D02*
X87851904Y-45719580D01*
X87851904Y-45719580D02*
X87899523Y-45624342D01*
X87899523Y-45624342D02*
X87899523Y-44814819D01*
X88280476Y-44814819D02*
X88899523Y-44814819D01*
X88899523Y-44814819D02*
X88566190Y-45195771D01*
X88566190Y-45195771D02*
X88709047Y-45195771D01*
X88709047Y-45195771D02*
X88804285Y-45243390D01*
X88804285Y-45243390D02*
X88851904Y-45291009D01*
X88851904Y-45291009D02*
X88899523Y-45386247D01*
X88899523Y-45386247D02*
X88899523Y-45624342D01*
X88899523Y-45624342D02*
X88851904Y-45719580D01*
X88851904Y-45719580D02*
X88804285Y-45767200D01*
X88804285Y-45767200D02*
X88709047Y-45814819D01*
X88709047Y-45814819D02*
X88423333Y-45814819D01*
X88423333Y-45814819D02*
X88328095Y-45767200D01*
X88328095Y-45767200D02*
X88280476Y-45719580D01*
X84333571Y-51970057D02*
X84381190Y-51922438D01*
X84381190Y-51922438D02*
X84476428Y-51874819D01*
X84476428Y-51874819D02*
X84714523Y-51874819D01*
X84714523Y-51874819D02*
X84809761Y-51922438D01*
X84809761Y-51922438D02*
X84857380Y-51970057D01*
X84857380Y-51970057D02*
X84904999Y-52065295D01*
X84904999Y-52065295D02*
X84904999Y-52160533D01*
X84904999Y-52160533D02*
X84857380Y-52303390D01*
X84857380Y-52303390D02*
X84285952Y-52874819D01*
X84285952Y-52874819D02*
X84904999Y-52874819D01*
X85762142Y-52208152D02*
X85762142Y-52874819D01*
X85524047Y-51827200D02*
X85285952Y-52541485D01*
X85285952Y-52541485D02*
X85904999Y-52541485D01*
X86762142Y-52874819D02*
X86285952Y-52874819D01*
X86285952Y-52874819D02*
X86285952Y-51874819D01*
X87666904Y-52779580D02*
X87619285Y-52827200D01*
X87619285Y-52827200D02*
X87476428Y-52874819D01*
X87476428Y-52874819D02*
X87381190Y-52874819D01*
X87381190Y-52874819D02*
X87238333Y-52827200D01*
X87238333Y-52827200D02*
X87143095Y-52731961D01*
X87143095Y-52731961D02*
X87095476Y-52636723D01*
X87095476Y-52636723D02*
X87047857Y-52446247D01*
X87047857Y-52446247D02*
X87047857Y-52303390D01*
X87047857Y-52303390D02*
X87095476Y-52112914D01*
X87095476Y-52112914D02*
X87143095Y-52017676D01*
X87143095Y-52017676D02*
X87238333Y-51922438D01*
X87238333Y-51922438D02*
X87381190Y-51874819D01*
X87381190Y-51874819D02*
X87476428Y-51874819D01*
X87476428Y-51874819D02*
X87619285Y-51922438D01*
X87619285Y-51922438D02*
X87666904Y-51970057D01*
X88619285Y-52874819D02*
X88047857Y-52874819D01*
X88333571Y-52874819D02*
X88333571Y-51874819D01*
X88333571Y-51874819D02*
X88238333Y-52017676D01*
X88238333Y-52017676D02*
X88143095Y-52112914D01*
X88143095Y-52112914D02*
X88047857Y-52160533D01*
X89238333Y-51874819D02*
X89333571Y-51874819D01*
X89333571Y-51874819D02*
X89428809Y-51922438D01*
X89428809Y-51922438D02*
X89476428Y-51970057D01*
X89476428Y-51970057D02*
X89524047Y-52065295D01*
X89524047Y-52065295D02*
X89571666Y-52255771D01*
X89571666Y-52255771D02*
X89571666Y-52493866D01*
X89571666Y-52493866D02*
X89524047Y-52684342D01*
X89524047Y-52684342D02*
X89476428Y-52779580D01*
X89476428Y-52779580D02*
X89428809Y-52827200D01*
X89428809Y-52827200D02*
X89333571Y-52874819D01*
X89333571Y-52874819D02*
X89238333Y-52874819D01*
X89238333Y-52874819D02*
X89143095Y-52827200D01*
X89143095Y-52827200D02*
X89095476Y-52779580D01*
X89095476Y-52779580D02*
X89047857Y-52684342D01*
X89047857Y-52684342D02*
X89000238Y-52493866D01*
X89000238Y-52493866D02*
X89000238Y-52255771D01*
X89000238Y-52255771D02*
X89047857Y-52065295D01*
X89047857Y-52065295D02*
X89095476Y-51970057D01*
X89095476Y-51970057D02*
X89143095Y-51922438D01*
X89143095Y-51922438D02*
X89238333Y-51874819D01*
X89952619Y-51970057D02*
X90000238Y-51922438D01*
X90000238Y-51922438D02*
X90095476Y-51874819D01*
X90095476Y-51874819D02*
X90333571Y-51874819D01*
X90333571Y-51874819D02*
X90428809Y-51922438D01*
X90428809Y-51922438D02*
X90476428Y-51970057D01*
X90476428Y-51970057D02*
X90524047Y-52065295D01*
X90524047Y-52065295D02*
X90524047Y-52160533D01*
X90524047Y-52160533D02*
X90476428Y-52303390D01*
X90476428Y-52303390D02*
X89905000Y-52874819D01*
X89905000Y-52874819D02*
X90524047Y-52874819D01*
X91428809Y-51874819D02*
X90952619Y-51874819D01*
X90952619Y-51874819D02*
X90905000Y-52351009D01*
X90905000Y-52351009D02*
X90952619Y-52303390D01*
X90952619Y-52303390D02*
X91047857Y-52255771D01*
X91047857Y-52255771D02*
X91285952Y-52255771D01*
X91285952Y-52255771D02*
X91381190Y-52303390D01*
X91381190Y-52303390D02*
X91428809Y-52351009D01*
X91428809Y-52351009D02*
X91476428Y-52446247D01*
X91476428Y-52446247D02*
X91476428Y-52684342D01*
X91476428Y-52684342D02*
X91428809Y-52779580D01*
X91428809Y-52779580D02*
X91381190Y-52827200D01*
X91381190Y-52827200D02*
X91285952Y-52874819D01*
X91285952Y-52874819D02*
X91047857Y-52874819D01*
X91047857Y-52874819D02*
X90952619Y-52827200D01*
X90952619Y-52827200D02*
X90905000Y-52779580D01*
X77468628Y-65286190D02*
X77944819Y-65286190D01*
X76944819Y-65619523D02*
X77468628Y-65286190D01*
X77468628Y-65286190D02*
X76944819Y-64952857D01*
X77944819Y-64095714D02*
X77944819Y-64667142D01*
X77944819Y-64381428D02*
X76944819Y-64381428D01*
X76944819Y-64381428D02*
X77087676Y-64476666D01*
X77087676Y-64476666D02*
X77182914Y-64571904D01*
X77182914Y-64571904D02*
X77230533Y-64667142D01*
X82264819Y-69055713D02*
X82264819Y-68436666D01*
X82264819Y-68436666D02*
X82645771Y-68769999D01*
X82645771Y-68769999D02*
X82645771Y-68627142D01*
X82645771Y-68627142D02*
X82693390Y-68531904D01*
X82693390Y-68531904D02*
X82741009Y-68484285D01*
X82741009Y-68484285D02*
X82836247Y-68436666D01*
X82836247Y-68436666D02*
X83074342Y-68436666D01*
X83074342Y-68436666D02*
X83169580Y-68484285D01*
X83169580Y-68484285D02*
X83217200Y-68531904D01*
X83217200Y-68531904D02*
X83264819Y-68627142D01*
X83264819Y-68627142D02*
X83264819Y-68912856D01*
X83264819Y-68912856D02*
X83217200Y-69008094D01*
X83217200Y-69008094D02*
X83169580Y-69055713D01*
X82360057Y-68055713D02*
X82312438Y-68008094D01*
X82312438Y-68008094D02*
X82264819Y-67912856D01*
X82264819Y-67912856D02*
X82264819Y-67674761D01*
X82264819Y-67674761D02*
X82312438Y-67579523D01*
X82312438Y-67579523D02*
X82360057Y-67531904D01*
X82360057Y-67531904D02*
X82455295Y-67484285D01*
X82455295Y-67484285D02*
X82550533Y-67484285D01*
X82550533Y-67484285D02*
X82693390Y-67531904D01*
X82693390Y-67531904D02*
X83264819Y-68103332D01*
X83264819Y-68103332D02*
X83264819Y-67484285D01*
X83169580Y-67055713D02*
X83217200Y-67008094D01*
X83217200Y-67008094D02*
X83264819Y-67055713D01*
X83264819Y-67055713D02*
X83217200Y-67103332D01*
X83217200Y-67103332D02*
X83169580Y-67055713D01*
X83169580Y-67055713D02*
X83264819Y-67055713D01*
X82264819Y-66674761D02*
X82264819Y-66008095D01*
X82264819Y-66008095D02*
X83264819Y-66436666D01*
X82264819Y-65198571D02*
X82264819Y-65389047D01*
X82264819Y-65389047D02*
X82312438Y-65484285D01*
X82312438Y-65484285D02*
X82360057Y-65531904D01*
X82360057Y-65531904D02*
X82502914Y-65627142D01*
X82502914Y-65627142D02*
X82693390Y-65674761D01*
X82693390Y-65674761D02*
X83074342Y-65674761D01*
X83074342Y-65674761D02*
X83169580Y-65627142D01*
X83169580Y-65627142D02*
X83217200Y-65579523D01*
X83217200Y-65579523D02*
X83264819Y-65484285D01*
X83264819Y-65484285D02*
X83264819Y-65293809D01*
X83264819Y-65293809D02*
X83217200Y-65198571D01*
X83217200Y-65198571D02*
X83169580Y-65150952D01*
X83169580Y-65150952D02*
X83074342Y-65103333D01*
X83074342Y-65103333D02*
X82836247Y-65103333D01*
X82836247Y-65103333D02*
X82741009Y-65150952D01*
X82741009Y-65150952D02*
X82693390Y-65198571D01*
X82693390Y-65198571D02*
X82645771Y-65293809D01*
X82645771Y-65293809D02*
X82645771Y-65484285D01*
X82645771Y-65484285D02*
X82693390Y-65579523D01*
X82693390Y-65579523D02*
X82741009Y-65627142D01*
X82741009Y-65627142D02*
X82836247Y-65674761D01*
X82693390Y-64531904D02*
X82645771Y-64627142D01*
X82645771Y-64627142D02*
X82598152Y-64674761D01*
X82598152Y-64674761D02*
X82502914Y-64722380D01*
X82502914Y-64722380D02*
X82455295Y-64722380D01*
X82455295Y-64722380D02*
X82360057Y-64674761D01*
X82360057Y-64674761D02*
X82312438Y-64627142D01*
X82312438Y-64627142D02*
X82264819Y-64531904D01*
X82264819Y-64531904D02*
X82264819Y-64341428D01*
X82264819Y-64341428D02*
X82312438Y-64246190D01*
X82312438Y-64246190D02*
X82360057Y-64198571D01*
X82360057Y-64198571D02*
X82455295Y-64150952D01*
X82455295Y-64150952D02*
X82502914Y-64150952D01*
X82502914Y-64150952D02*
X82598152Y-64198571D01*
X82598152Y-64198571D02*
X82645771Y-64246190D01*
X82645771Y-64246190D02*
X82693390Y-64341428D01*
X82693390Y-64341428D02*
X82693390Y-64531904D01*
X82693390Y-64531904D02*
X82741009Y-64627142D01*
X82741009Y-64627142D02*
X82788628Y-64674761D01*
X82788628Y-64674761D02*
X82883866Y-64722380D01*
X82883866Y-64722380D02*
X83074342Y-64722380D01*
X83074342Y-64722380D02*
X83169580Y-64674761D01*
X83169580Y-64674761D02*
X83217200Y-64627142D01*
X83217200Y-64627142D02*
X83264819Y-64531904D01*
X83264819Y-64531904D02*
X83264819Y-64341428D01*
X83264819Y-64341428D02*
X83217200Y-64246190D01*
X83217200Y-64246190D02*
X83169580Y-64198571D01*
X83169580Y-64198571D02*
X83074342Y-64150952D01*
X83074342Y-64150952D02*
X82883866Y-64150952D01*
X82883866Y-64150952D02*
X82788628Y-64198571D01*
X82788628Y-64198571D02*
X82741009Y-64246190D01*
X82741009Y-64246190D02*
X82693390Y-64341428D01*
X83264819Y-62960475D02*
X82264819Y-62960475D01*
X83264819Y-62389047D02*
X82693390Y-62817618D01*
X82264819Y-62389047D02*
X82836247Y-62960475D01*
X83264819Y-61960475D02*
X82264819Y-61960475D01*
X82741009Y-61960475D02*
X82741009Y-61389047D01*
X83264819Y-61389047D02*
X82264819Y-61389047D01*
X82598152Y-61008094D02*
X82598152Y-60484285D01*
X82598152Y-60484285D02*
X83264819Y-61008094D01*
X83264819Y-61008094D02*
X83264819Y-60484285D01*
X108573333Y-45969580D02*
X108525714Y-46017200D01*
X108525714Y-46017200D02*
X108382857Y-46064819D01*
X108382857Y-46064819D02*
X108287619Y-46064819D01*
X108287619Y-46064819D02*
X108144762Y-46017200D01*
X108144762Y-46017200D02*
X108049524Y-45921961D01*
X108049524Y-45921961D02*
X108001905Y-45826723D01*
X108001905Y-45826723D02*
X107954286Y-45636247D01*
X107954286Y-45636247D02*
X107954286Y-45493390D01*
X107954286Y-45493390D02*
X108001905Y-45302914D01*
X108001905Y-45302914D02*
X108049524Y-45207676D01*
X108049524Y-45207676D02*
X108144762Y-45112438D01*
X108144762Y-45112438D02*
X108287619Y-45064819D01*
X108287619Y-45064819D02*
X108382857Y-45064819D01*
X108382857Y-45064819D02*
X108525714Y-45112438D01*
X108525714Y-45112438D02*
X108573333Y-45160057D01*
X109478095Y-45064819D02*
X109001905Y-45064819D01*
X109001905Y-45064819D02*
X108954286Y-45541009D01*
X108954286Y-45541009D02*
X109001905Y-45493390D01*
X109001905Y-45493390D02*
X109097143Y-45445771D01*
X109097143Y-45445771D02*
X109335238Y-45445771D01*
X109335238Y-45445771D02*
X109430476Y-45493390D01*
X109430476Y-45493390D02*
X109478095Y-45541009D01*
X109478095Y-45541009D02*
X109525714Y-45636247D01*
X109525714Y-45636247D02*
X109525714Y-45874342D01*
X109525714Y-45874342D02*
X109478095Y-45969580D01*
X109478095Y-45969580D02*
X109430476Y-46017200D01*
X109430476Y-46017200D02*
X109335238Y-46064819D01*
X109335238Y-46064819D02*
X109097143Y-46064819D01*
X109097143Y-46064819D02*
X109001905Y-46017200D01*
X109001905Y-46017200D02*
X108954286Y-45969580D01*
X106092380Y-49439819D02*
X105520952Y-49439819D01*
X105806666Y-49439819D02*
X105806666Y-48439819D01*
X105806666Y-48439819D02*
X105711428Y-48582676D01*
X105711428Y-48582676D02*
X105616190Y-48677914D01*
X105616190Y-48677914D02*
X105520952Y-48725533D01*
X106711428Y-48439819D02*
X106806666Y-48439819D01*
X106806666Y-48439819D02*
X106901904Y-48487438D01*
X106901904Y-48487438D02*
X106949523Y-48535057D01*
X106949523Y-48535057D02*
X106997142Y-48630295D01*
X106997142Y-48630295D02*
X107044761Y-48820771D01*
X107044761Y-48820771D02*
X107044761Y-49058866D01*
X107044761Y-49058866D02*
X106997142Y-49249342D01*
X106997142Y-49249342D02*
X106949523Y-49344580D01*
X106949523Y-49344580D02*
X106901904Y-49392200D01*
X106901904Y-49392200D02*
X106806666Y-49439819D01*
X106806666Y-49439819D02*
X106711428Y-49439819D01*
X106711428Y-49439819D02*
X106616190Y-49392200D01*
X106616190Y-49392200D02*
X106568571Y-49344580D01*
X106568571Y-49344580D02*
X106520952Y-49249342D01*
X106520952Y-49249342D02*
X106473333Y-49058866D01*
X106473333Y-49058866D02*
X106473333Y-48820771D01*
X106473333Y-48820771D02*
X106520952Y-48630295D01*
X106520952Y-48630295D02*
X106568571Y-48535057D01*
X106568571Y-48535057D02*
X106616190Y-48487438D01*
X106616190Y-48487438D02*
X106711428Y-48439819D01*
X107663809Y-48439819D02*
X107759047Y-48439819D01*
X107759047Y-48439819D02*
X107854285Y-48487438D01*
X107854285Y-48487438D02*
X107901904Y-48535057D01*
X107901904Y-48535057D02*
X107949523Y-48630295D01*
X107949523Y-48630295D02*
X107997142Y-48820771D01*
X107997142Y-48820771D02*
X107997142Y-49058866D01*
X107997142Y-49058866D02*
X107949523Y-49249342D01*
X107949523Y-49249342D02*
X107901904Y-49344580D01*
X107901904Y-49344580D02*
X107854285Y-49392200D01*
X107854285Y-49392200D02*
X107759047Y-49439819D01*
X107759047Y-49439819D02*
X107663809Y-49439819D01*
X107663809Y-49439819D02*
X107568571Y-49392200D01*
X107568571Y-49392200D02*
X107520952Y-49344580D01*
X107520952Y-49344580D02*
X107473333Y-49249342D01*
X107473333Y-49249342D02*
X107425714Y-49058866D01*
X107425714Y-49058866D02*
X107425714Y-48820771D01*
X107425714Y-48820771D02*
X107473333Y-48630295D01*
X107473333Y-48630295D02*
X107520952Y-48535057D01*
X107520952Y-48535057D02*
X107568571Y-48487438D01*
X107568571Y-48487438D02*
X107663809Y-48439819D01*
X108425714Y-48773152D02*
X108425714Y-49439819D01*
X108425714Y-48868390D02*
X108473333Y-48820771D01*
X108473333Y-48820771D02*
X108568571Y-48773152D01*
X108568571Y-48773152D02*
X108711428Y-48773152D01*
X108711428Y-48773152D02*
X108806666Y-48820771D01*
X108806666Y-48820771D02*
X108854285Y-48916009D01*
X108854285Y-48916009D02*
X108854285Y-49439819D01*
X109663809Y-48916009D02*
X109330476Y-48916009D01*
X109330476Y-49439819D02*
X109330476Y-48439819D01*
X109330476Y-48439819D02*
X109806666Y-48439819D01*
X114498333Y-52964819D02*
X114165000Y-52488628D01*
X113926905Y-52964819D02*
X113926905Y-51964819D01*
X113926905Y-51964819D02*
X114307857Y-51964819D01*
X114307857Y-51964819D02*
X114403095Y-52012438D01*
X114403095Y-52012438D02*
X114450714Y-52060057D01*
X114450714Y-52060057D02*
X114498333Y-52155295D01*
X114498333Y-52155295D02*
X114498333Y-52298152D01*
X114498333Y-52298152D02*
X114450714Y-52393390D01*
X114450714Y-52393390D02*
X114403095Y-52441009D01*
X114403095Y-52441009D02*
X114307857Y-52488628D01*
X114307857Y-52488628D02*
X113926905Y-52488628D01*
X115403095Y-51964819D02*
X114926905Y-51964819D01*
X114926905Y-51964819D02*
X114879286Y-52441009D01*
X114879286Y-52441009D02*
X114926905Y-52393390D01*
X114926905Y-52393390D02*
X115022143Y-52345771D01*
X115022143Y-52345771D02*
X115260238Y-52345771D01*
X115260238Y-52345771D02*
X115355476Y-52393390D01*
X115355476Y-52393390D02*
X115403095Y-52441009D01*
X115403095Y-52441009D02*
X115450714Y-52536247D01*
X115450714Y-52536247D02*
X115450714Y-52774342D01*
X115450714Y-52774342D02*
X115403095Y-52869580D01*
X115403095Y-52869580D02*
X115355476Y-52917200D01*
X115355476Y-52917200D02*
X115260238Y-52964819D01*
X115260238Y-52964819D02*
X115022143Y-52964819D01*
X115022143Y-52964819D02*
X114926905Y-52917200D01*
X114926905Y-52917200D02*
X114879286Y-52869580D01*
X115704286Y-51964819D02*
X116323333Y-51964819D01*
X116323333Y-51964819D02*
X115990000Y-52345771D01*
X115990000Y-52345771D02*
X116132857Y-52345771D01*
X116132857Y-52345771D02*
X116228095Y-52393390D01*
X116228095Y-52393390D02*
X116275714Y-52441009D01*
X116275714Y-52441009D02*
X116323333Y-52536247D01*
X116323333Y-52536247D02*
X116323333Y-52774342D01*
X116323333Y-52774342D02*
X116275714Y-52869580D01*
X116275714Y-52869580D02*
X116228095Y-52917200D01*
X116228095Y-52917200D02*
X116132857Y-52964819D01*
X116132857Y-52964819D02*
X115847143Y-52964819D01*
X115847143Y-52964819D02*
X115751905Y-52917200D01*
X115751905Y-52917200D02*
X115704286Y-52869580D01*
X116656667Y-51964819D02*
X117275714Y-51964819D01*
X117275714Y-51964819D02*
X116942381Y-52345771D01*
X116942381Y-52345771D02*
X117085238Y-52345771D01*
X117085238Y-52345771D02*
X117180476Y-52393390D01*
X117180476Y-52393390D02*
X117228095Y-52441009D01*
X117228095Y-52441009D02*
X117275714Y-52536247D01*
X117275714Y-52536247D02*
X117275714Y-52774342D01*
X117275714Y-52774342D02*
X117228095Y-52869580D01*
X117228095Y-52869580D02*
X117180476Y-52917200D01*
X117180476Y-52917200D02*
X117085238Y-52964819D01*
X117085238Y-52964819D02*
X116799524Y-52964819D01*
X116799524Y-52964819D02*
X116704286Y-52917200D01*
X116704286Y-52917200D02*
X116656667Y-52869580D01*
X117894762Y-51964819D02*
X117990000Y-51964819D01*
X117990000Y-51964819D02*
X118085238Y-52012438D01*
X118085238Y-52012438D02*
X118132857Y-52060057D01*
X118132857Y-52060057D02*
X118180476Y-52155295D01*
X118180476Y-52155295D02*
X118228095Y-52345771D01*
X118228095Y-52345771D02*
X118228095Y-52583866D01*
X118228095Y-52583866D02*
X118180476Y-52774342D01*
X118180476Y-52774342D02*
X118132857Y-52869580D01*
X118132857Y-52869580D02*
X118085238Y-52917200D01*
X118085238Y-52917200D02*
X117990000Y-52964819D01*
X117990000Y-52964819D02*
X117894762Y-52964819D01*
X117894762Y-52964819D02*
X117799524Y-52917200D01*
X117799524Y-52917200D02*
X117751905Y-52869580D01*
X117751905Y-52869580D02*
X117704286Y-52774342D01*
X117704286Y-52774342D02*
X117656667Y-52583866D01*
X117656667Y-52583866D02*
X117656667Y-52345771D01*
X117656667Y-52345771D02*
X117704286Y-52155295D01*
X117704286Y-52155295D02*
X117751905Y-52060057D01*
X117751905Y-52060057D02*
X117799524Y-52012438D01*
X117799524Y-52012438D02*
X117894762Y-51964819D01*
X104348333Y-46044580D02*
X104300714Y-46092200D01*
X104300714Y-46092200D02*
X104157857Y-46139819D01*
X104157857Y-46139819D02*
X104062619Y-46139819D01*
X104062619Y-46139819D02*
X103919762Y-46092200D01*
X103919762Y-46092200D02*
X103824524Y-45996961D01*
X103824524Y-45996961D02*
X103776905Y-45901723D01*
X103776905Y-45901723D02*
X103729286Y-45711247D01*
X103729286Y-45711247D02*
X103729286Y-45568390D01*
X103729286Y-45568390D02*
X103776905Y-45377914D01*
X103776905Y-45377914D02*
X103824524Y-45282676D01*
X103824524Y-45282676D02*
X103919762Y-45187438D01*
X103919762Y-45187438D02*
X104062619Y-45139819D01*
X104062619Y-45139819D02*
X104157857Y-45139819D01*
X104157857Y-45139819D02*
X104300714Y-45187438D01*
X104300714Y-45187438D02*
X104348333Y-45235057D01*
X104681667Y-45139819D02*
X105300714Y-45139819D01*
X105300714Y-45139819D02*
X104967381Y-45520771D01*
X104967381Y-45520771D02*
X105110238Y-45520771D01*
X105110238Y-45520771D02*
X105205476Y-45568390D01*
X105205476Y-45568390D02*
X105253095Y-45616009D01*
X105253095Y-45616009D02*
X105300714Y-45711247D01*
X105300714Y-45711247D02*
X105300714Y-45949342D01*
X105300714Y-45949342D02*
X105253095Y-46044580D01*
X105253095Y-46044580D02*
X105205476Y-46092200D01*
X105205476Y-46092200D02*
X105110238Y-46139819D01*
X105110238Y-46139819D02*
X104824524Y-46139819D01*
X104824524Y-46139819D02*
X104729286Y-46092200D01*
X104729286Y-46092200D02*
X104681667Y-46044580D01*
X100297143Y-48590057D02*
X100344762Y-48542438D01*
X100344762Y-48542438D02*
X100440000Y-48494819D01*
X100440000Y-48494819D02*
X100678095Y-48494819D01*
X100678095Y-48494819D02*
X100773333Y-48542438D01*
X100773333Y-48542438D02*
X100820952Y-48590057D01*
X100820952Y-48590057D02*
X100868571Y-48685295D01*
X100868571Y-48685295D02*
X100868571Y-48780533D01*
X100868571Y-48780533D02*
X100820952Y-48923390D01*
X100820952Y-48923390D02*
X100249524Y-49494819D01*
X100249524Y-49494819D02*
X100868571Y-49494819D01*
X101249524Y-48590057D02*
X101297143Y-48542438D01*
X101297143Y-48542438D02*
X101392381Y-48494819D01*
X101392381Y-48494819D02*
X101630476Y-48494819D01*
X101630476Y-48494819D02*
X101725714Y-48542438D01*
X101725714Y-48542438D02*
X101773333Y-48590057D01*
X101773333Y-48590057D02*
X101820952Y-48685295D01*
X101820952Y-48685295D02*
X101820952Y-48780533D01*
X101820952Y-48780533D02*
X101773333Y-48923390D01*
X101773333Y-48923390D02*
X101201905Y-49494819D01*
X101201905Y-49494819D02*
X101820952Y-49494819D01*
X102249524Y-48828152D02*
X102249524Y-49828152D01*
X102249524Y-48875771D02*
X102344762Y-48828152D01*
X102344762Y-48828152D02*
X102535238Y-48828152D01*
X102535238Y-48828152D02*
X102630476Y-48875771D01*
X102630476Y-48875771D02*
X102678095Y-48923390D01*
X102678095Y-48923390D02*
X102725714Y-49018628D01*
X102725714Y-49018628D02*
X102725714Y-49304342D01*
X102725714Y-49304342D02*
X102678095Y-49399580D01*
X102678095Y-49399580D02*
X102630476Y-49447200D01*
X102630476Y-49447200D02*
X102535238Y-49494819D01*
X102535238Y-49494819D02*
X102344762Y-49494819D01*
X102344762Y-49494819D02*
X102249524Y-49447200D01*
X103487619Y-48971009D02*
X103154286Y-48971009D01*
X103154286Y-49494819D02*
X103154286Y-48494819D01*
X103154286Y-48494819D02*
X103630476Y-48494819D01*
D11*
X86906666Y-70261109D02*
X86740000Y-70023014D01*
X86620952Y-70261109D02*
X86620952Y-69761109D01*
X86620952Y-69761109D02*
X86811428Y-69761109D01*
X86811428Y-69761109D02*
X86859047Y-69784919D01*
X86859047Y-69784919D02*
X86882857Y-69808728D01*
X86882857Y-69808728D02*
X86906666Y-69856347D01*
X86906666Y-69856347D02*
X86906666Y-69927776D01*
X86906666Y-69927776D02*
X86882857Y-69975395D01*
X86882857Y-69975395D02*
X86859047Y-69999204D01*
X86859047Y-69999204D02*
X86811428Y-70023014D01*
X86811428Y-70023014D02*
X86620952Y-70023014D01*
X87382857Y-70261109D02*
X87097143Y-70261109D01*
X87240000Y-70261109D02*
X87240000Y-69761109D01*
X87240000Y-69761109D02*
X87192381Y-69832538D01*
X87192381Y-69832538D02*
X87144762Y-69880157D01*
X87144762Y-69880157D02*
X87097143Y-69903966D01*
D12*
X119523333Y-58997295D02*
X119523333Y-59568723D01*
X119523333Y-59568723D02*
X119485238Y-59683009D01*
X119485238Y-59683009D02*
X119409047Y-59759200D01*
X119409047Y-59759200D02*
X119294762Y-59797295D01*
X119294762Y-59797295D02*
X119218571Y-59797295D01*
X120247143Y-59263961D02*
X120247143Y-59797295D01*
X120056667Y-58959200D02*
X119866190Y-59530628D01*
X119866190Y-59530628D02*
X120361429Y-59530628D01*
X109448333Y-66719580D02*
X109400714Y-66767200D01*
X109400714Y-66767200D02*
X109257857Y-66814819D01*
X109257857Y-66814819D02*
X109162619Y-66814819D01*
X109162619Y-66814819D02*
X109019762Y-66767200D01*
X109019762Y-66767200D02*
X108924524Y-66671961D01*
X108924524Y-66671961D02*
X108876905Y-66576723D01*
X108876905Y-66576723D02*
X108829286Y-66386247D01*
X108829286Y-66386247D02*
X108829286Y-66243390D01*
X108829286Y-66243390D02*
X108876905Y-66052914D01*
X108876905Y-66052914D02*
X108924524Y-65957676D01*
X108924524Y-65957676D02*
X109019762Y-65862438D01*
X109019762Y-65862438D02*
X109162619Y-65814819D01*
X109162619Y-65814819D02*
X109257857Y-65814819D01*
X109257857Y-65814819D02*
X109400714Y-65862438D01*
X109400714Y-65862438D02*
X109448333Y-65910057D01*
X109829286Y-65910057D02*
X109876905Y-65862438D01*
X109876905Y-65862438D02*
X109972143Y-65814819D01*
X109972143Y-65814819D02*
X110210238Y-65814819D01*
X110210238Y-65814819D02*
X110305476Y-65862438D01*
X110305476Y-65862438D02*
X110353095Y-65910057D01*
X110353095Y-65910057D02*
X110400714Y-66005295D01*
X110400714Y-66005295D02*
X110400714Y-66100533D01*
X110400714Y-66100533D02*
X110353095Y-66243390D01*
X110353095Y-66243390D02*
X109781667Y-66814819D01*
X109781667Y-66814819D02*
X110400714Y-66814819D01*
X110972143Y-65960057D02*
X111019762Y-65912438D01*
X111019762Y-65912438D02*
X111115000Y-65864819D01*
X111115000Y-65864819D02*
X111353095Y-65864819D01*
X111353095Y-65864819D02*
X111448333Y-65912438D01*
X111448333Y-65912438D02*
X111495952Y-65960057D01*
X111495952Y-65960057D02*
X111543571Y-66055295D01*
X111543571Y-66055295D02*
X111543571Y-66150533D01*
X111543571Y-66150533D02*
X111495952Y-66293390D01*
X111495952Y-66293390D02*
X110924524Y-66864819D01*
X110924524Y-66864819D02*
X111543571Y-66864819D01*
X111924524Y-65960057D02*
X111972143Y-65912438D01*
X111972143Y-65912438D02*
X112067381Y-65864819D01*
X112067381Y-65864819D02*
X112305476Y-65864819D01*
X112305476Y-65864819D02*
X112400714Y-65912438D01*
X112400714Y-65912438D02*
X112448333Y-65960057D01*
X112448333Y-65960057D02*
X112495952Y-66055295D01*
X112495952Y-66055295D02*
X112495952Y-66150533D01*
X112495952Y-66150533D02*
X112448333Y-66293390D01*
X112448333Y-66293390D02*
X111876905Y-66864819D01*
X111876905Y-66864819D02*
X112495952Y-66864819D01*
X112924524Y-66198152D02*
X112924524Y-67198152D01*
X112924524Y-66245771D02*
X113019762Y-66198152D01*
X113019762Y-66198152D02*
X113210238Y-66198152D01*
X113210238Y-66198152D02*
X113305476Y-66245771D01*
X113305476Y-66245771D02*
X113353095Y-66293390D01*
X113353095Y-66293390D02*
X113400714Y-66388628D01*
X113400714Y-66388628D02*
X113400714Y-66674342D01*
X113400714Y-66674342D02*
X113353095Y-66769580D01*
X113353095Y-66769580D02*
X113305476Y-66817200D01*
X113305476Y-66817200D02*
X113210238Y-66864819D01*
X113210238Y-66864819D02*
X113019762Y-66864819D01*
X113019762Y-66864819D02*
X112924524Y-66817200D01*
X114162619Y-66341009D02*
X113829286Y-66341009D01*
X113829286Y-66864819D02*
X113829286Y-65864819D01*
X113829286Y-65864819D02*
X114305476Y-65864819D01*
X113751905Y-46044819D02*
X113751905Y-45044819D01*
X113751905Y-45044819D02*
X113990000Y-45044819D01*
X113990000Y-45044819D02*
X114132857Y-45092438D01*
X114132857Y-45092438D02*
X114228095Y-45187676D01*
X114228095Y-45187676D02*
X114275714Y-45282914D01*
X114275714Y-45282914D02*
X114323333Y-45473390D01*
X114323333Y-45473390D02*
X114323333Y-45616247D01*
X114323333Y-45616247D02*
X114275714Y-45806723D01*
X114275714Y-45806723D02*
X114228095Y-45901961D01*
X114228095Y-45901961D02*
X114132857Y-45997200D01*
X114132857Y-45997200D02*
X113990000Y-46044819D01*
X113990000Y-46044819D02*
X113751905Y-46044819D01*
X114704286Y-45140057D02*
X114751905Y-45092438D01*
X114751905Y-45092438D02*
X114847143Y-45044819D01*
X114847143Y-45044819D02*
X115085238Y-45044819D01*
X115085238Y-45044819D02*
X115180476Y-45092438D01*
X115180476Y-45092438D02*
X115228095Y-45140057D01*
X115228095Y-45140057D02*
X115275714Y-45235295D01*
X115275714Y-45235295D02*
X115275714Y-45330533D01*
X115275714Y-45330533D02*
X115228095Y-45473390D01*
X115228095Y-45473390D02*
X114656667Y-46044819D01*
X114656667Y-46044819D02*
X115275714Y-46044819D01*
X110769642Y-49344819D02*
X110293452Y-49344819D01*
X110293452Y-49344819D02*
X110293452Y-48344819D01*
X111102976Y-48821009D02*
X111436309Y-48821009D01*
X111579166Y-49344819D02*
X111102976Y-49344819D01*
X111102976Y-49344819D02*
X111102976Y-48344819D01*
X111102976Y-48344819D02*
X111579166Y-48344819D01*
X112007738Y-49344819D02*
X112007738Y-48344819D01*
X112007738Y-48344819D02*
X112245833Y-48344819D01*
X112245833Y-48344819D02*
X112388690Y-48392438D01*
X112388690Y-48392438D02*
X112483928Y-48487676D01*
X112483928Y-48487676D02*
X112531547Y-48582914D01*
X112531547Y-48582914D02*
X112579166Y-48773390D01*
X112579166Y-48773390D02*
X112579166Y-48916247D01*
X112579166Y-48916247D02*
X112531547Y-49106723D01*
X112531547Y-49106723D02*
X112483928Y-49201961D01*
X112483928Y-49201961D02*
X112388690Y-49297200D01*
X112388690Y-49297200D02*
X112245833Y-49344819D01*
X112245833Y-49344819D02*
X112007738Y-49344819D01*
X81231666Y-70714819D02*
X81231666Y-71429104D01*
X81231666Y-71429104D02*
X81184047Y-71571961D01*
X81184047Y-71571961D02*
X81088809Y-71667200D01*
X81088809Y-71667200D02*
X80945952Y-71714819D01*
X80945952Y-71714819D02*
X80850714Y-71714819D01*
X81660238Y-70810057D02*
X81707857Y-70762438D01*
X81707857Y-70762438D02*
X81803095Y-70714819D01*
X81803095Y-70714819D02*
X82041190Y-70714819D01*
X82041190Y-70714819D02*
X82136428Y-70762438D01*
X82136428Y-70762438D02*
X82184047Y-70810057D01*
X82184047Y-70810057D02*
X82231666Y-70905295D01*
X82231666Y-70905295D02*
X82231666Y-71000533D01*
X82231666Y-71000533D02*
X82184047Y-71143390D01*
X82184047Y-71143390D02*
X81612619Y-71714819D01*
X81612619Y-71714819D02*
X82231666Y-71714819D01*
X108773333Y-53064819D02*
X108440000Y-52588628D01*
X108201905Y-53064819D02*
X108201905Y-52064819D01*
X108201905Y-52064819D02*
X108582857Y-52064819D01*
X108582857Y-52064819D02*
X108678095Y-52112438D01*
X108678095Y-52112438D02*
X108725714Y-52160057D01*
X108725714Y-52160057D02*
X108773333Y-52255295D01*
X108773333Y-52255295D02*
X108773333Y-52398152D01*
X108773333Y-52398152D02*
X108725714Y-52493390D01*
X108725714Y-52493390D02*
X108678095Y-52541009D01*
X108678095Y-52541009D02*
X108582857Y-52588628D01*
X108582857Y-52588628D02*
X108201905Y-52588628D01*
X109106667Y-52064819D02*
X109773333Y-52064819D01*
X109773333Y-52064819D02*
X109344762Y-53064819D01*
X110004286Y-52079819D02*
X110623333Y-52079819D01*
X110623333Y-52079819D02*
X110290000Y-52460771D01*
X110290000Y-52460771D02*
X110432857Y-52460771D01*
X110432857Y-52460771D02*
X110528095Y-52508390D01*
X110528095Y-52508390D02*
X110575714Y-52556009D01*
X110575714Y-52556009D02*
X110623333Y-52651247D01*
X110623333Y-52651247D02*
X110623333Y-52889342D01*
X110623333Y-52889342D02*
X110575714Y-52984580D01*
X110575714Y-52984580D02*
X110528095Y-53032200D01*
X110528095Y-53032200D02*
X110432857Y-53079819D01*
X110432857Y-53079819D02*
X110147143Y-53079819D01*
X110147143Y-53079819D02*
X110051905Y-53032200D01*
X110051905Y-53032200D02*
X110004286Y-52984580D01*
X110956667Y-52079819D02*
X111575714Y-52079819D01*
X111575714Y-52079819D02*
X111242381Y-52460771D01*
X111242381Y-52460771D02*
X111385238Y-52460771D01*
X111385238Y-52460771D02*
X111480476Y-52508390D01*
X111480476Y-52508390D02*
X111528095Y-52556009D01*
X111528095Y-52556009D02*
X111575714Y-52651247D01*
X111575714Y-52651247D02*
X111575714Y-52889342D01*
X111575714Y-52889342D02*
X111528095Y-52984580D01*
X111528095Y-52984580D02*
X111480476Y-53032200D01*
X111480476Y-53032200D02*
X111385238Y-53079819D01*
X111385238Y-53079819D02*
X111099524Y-53079819D01*
X111099524Y-53079819D02*
X111004286Y-53032200D01*
X111004286Y-53032200D02*
X110956667Y-52984580D01*
X112194762Y-52079819D02*
X112290000Y-52079819D01*
X112290000Y-52079819D02*
X112385238Y-52127438D01*
X112385238Y-52127438D02*
X112432857Y-52175057D01*
X112432857Y-52175057D02*
X112480476Y-52270295D01*
X112480476Y-52270295D02*
X112528095Y-52460771D01*
X112528095Y-52460771D02*
X112528095Y-52698866D01*
X112528095Y-52698866D02*
X112480476Y-52889342D01*
X112480476Y-52889342D02*
X112432857Y-52984580D01*
X112432857Y-52984580D02*
X112385238Y-53032200D01*
X112385238Y-53032200D02*
X112290000Y-53079819D01*
X112290000Y-53079819D02*
X112194762Y-53079819D01*
X112194762Y-53079819D02*
X112099524Y-53032200D01*
X112099524Y-53032200D02*
X112051905Y-52984580D01*
X112051905Y-52984580D02*
X112004286Y-52889342D01*
X112004286Y-52889342D02*
X111956667Y-52698866D01*
X111956667Y-52698866D02*
X111956667Y-52460771D01*
X111956667Y-52460771D02*
X112004286Y-52270295D01*
X112004286Y-52270295D02*
X112051905Y-52175057D01*
X112051905Y-52175057D02*
X112099524Y-52127438D01*
X112099524Y-52127438D02*
X112194762Y-52079819D01*
D14*
%TO.C,R4*%
X111517064Y-56460000D02*
X111062936Y-56460000D01*
X111517064Y-54990000D02*
X111062936Y-54990000D01*
%TO.C,U1*%
X85180000Y-54455000D02*
X85180000Y-54715000D01*
X85180000Y-54715000D02*
X83505000Y-54715000D01*
X85180000Y-59905000D02*
X85180000Y-59645000D01*
X87905000Y-54455000D02*
X85180000Y-54455000D01*
X87905000Y-54455000D02*
X90630000Y-54455000D01*
X87905000Y-59905000D02*
X85180000Y-59905000D01*
X87905000Y-59905000D02*
X90630000Y-59905000D01*
X90630000Y-54455000D02*
X90630000Y-54715000D01*
X90630000Y-59905000D02*
X90630000Y-59645000D01*
%TO.C,R2*%
X89762064Y-69345000D02*
X89307936Y-69345000D01*
X89762064Y-67875000D02*
X89307936Y-67875000D01*
%TO.C,J1*%
X122375000Y-59395000D02*
X123705000Y-59395000D01*
X122375000Y-60725000D02*
X122375000Y-59395000D01*
X122375000Y-61995000D02*
X122375000Y-69675000D01*
X122375000Y-61995000D02*
X125035000Y-61995000D01*
X122375000Y-69675000D02*
X125035000Y-69675000D01*
X125035000Y-61995000D02*
X125035000Y-69675000D01*
%TO.C,C1*%
X96178748Y-46625000D02*
X96701252Y-46625000D01*
X96178748Y-48095000D02*
X96701252Y-48095000D01*
%TO.C,C4*%
X111701252Y-69845000D02*
X111178748Y-69845000D01*
X111701252Y-68375000D02*
X111178748Y-68375000D01*
%TO.C,D1*%
X114505000Y-46280000D02*
X114505000Y-48200000D01*
X114505000Y-48200000D02*
X117190000Y-48200000D01*
X117190000Y-46280000D02*
X114505000Y-46280000D01*
%TO.C,Y2*%
X103990000Y-69160000D02*
X103990000Y-65560000D01*
X103990000Y-65560000D02*
X96740000Y-65560000D01*
X96740000Y-69160000D02*
X103990000Y-69160000D01*
%TO.C,R6*%
X115962936Y-54125000D02*
X116417064Y-54125000D01*
X115962936Y-55595000D02*
X116417064Y-55595000D01*
%TO.C,R3*%
X111062936Y-59490000D02*
X111517064Y-59490000D01*
X111062936Y-60960000D02*
X111517064Y-60960000D01*
%TO.C,BT1*%
X78680000Y-53280000D02*
X80010000Y-53280000D01*
X78680000Y-54610000D02*
X78680000Y-53280000D01*
X78680000Y-55880000D02*
X78680000Y-58480000D01*
X78680000Y-55880000D02*
X81340000Y-55880000D01*
X78680000Y-58480000D02*
X81340000Y-58480000D01*
X81340000Y-55880000D02*
X81340000Y-58480000D01*
D15*
%TO.C,U4*%
X97370000Y-52910000D02*
X97370000Y-53015000D01*
X97370000Y-52910000D02*
X97475000Y-52910000D01*
X97370000Y-59910000D02*
X97370000Y-59805000D01*
X97370000Y-59910000D02*
X97475000Y-59910000D01*
X104370000Y-52910000D02*
X104265000Y-52910000D01*
X104370000Y-52910000D02*
X104370000Y-53015000D01*
X104370000Y-59910000D02*
X104265000Y-59910000D01*
X104370000Y-59910000D02*
X104370000Y-59805000D01*
D16*
X95130000Y-53610000D02*
G75*
G03*
X94930000Y-53610000I-100000J0D01*
G01*
X94930000Y-53610000D02*
G75*
G03*
X95130000Y-53610000I100000J0D01*
G01*
D14*
%TO.C,J3*%
X107890000Y-74990000D02*
X107890000Y-73660000D01*
X109220000Y-74990000D02*
X107890000Y-74990000D01*
X110490000Y-74990000D02*
X118170000Y-74990000D01*
X110490000Y-74990000D02*
X110490000Y-72330000D01*
X118170000Y-74990000D02*
X118170000Y-72330000D01*
X110490000Y-72330000D02*
X118170000Y-72330000D01*
D15*
%TO.C,U2*%
X85715000Y-61645000D02*
X89715000Y-61645000D01*
X85715000Y-66685000D02*
X89715000Y-66685000D01*
D16*
X83370000Y-61670000D02*
G75*
G03*
X83170000Y-61670000I-100000J0D01*
G01*
X83170000Y-61670000D02*
G75*
G03*
X83370000Y-61670000I100000J0D01*
G01*
D14*
%TO.C,U3*%
X85180000Y-46135000D02*
X85180000Y-46395000D01*
X85180000Y-46395000D02*
X83505000Y-46395000D01*
X85180000Y-51585000D02*
X85180000Y-51325000D01*
X87905000Y-46135000D02*
X85180000Y-46135000D01*
X87905000Y-46135000D02*
X90630000Y-46135000D01*
X87905000Y-51585000D02*
X85180000Y-51585000D01*
X87905000Y-51585000D02*
X90630000Y-51585000D01*
X90630000Y-46135000D02*
X90630000Y-46395000D01*
X90630000Y-51585000D02*
X90630000Y-51325000D01*
%TO.C,Y1*%
X78210000Y-69320000D02*
X81810000Y-69320000D01*
X81810000Y-69320000D02*
X81810000Y-62070000D01*
X78210000Y-62070000D02*
X78210000Y-69320000D01*
%TO.C,C5*%
X106678748Y-46625000D02*
X107201252Y-46625000D01*
X106678748Y-48095000D02*
X107201252Y-48095000D01*
%TO.C,R5*%
X116417064Y-51595000D02*
X115962936Y-51595000D01*
X116417064Y-50125000D02*
X115962936Y-50125000D01*
%TO.C,C3*%
X101678748Y-46625000D02*
X102201252Y-46625000D01*
X101678748Y-48095000D02*
X102201252Y-48095000D01*
%TO.C,R1*%
X85497936Y-67875000D02*
X85952064Y-67875000D01*
X85497936Y-69345000D02*
X85952064Y-69345000D01*
%TO.C,J4*%
X119835000Y-50505000D02*
X121165000Y-50505000D01*
X119835000Y-51835000D02*
X119835000Y-50505000D01*
X119835000Y-53105000D02*
X119835000Y-58245000D01*
X119835000Y-53105000D02*
X122435000Y-53105000D01*
X119835000Y-58245000D02*
X125035000Y-58245000D01*
X122435000Y-50505000D02*
X125035000Y-50505000D01*
X122435000Y-53105000D02*
X122435000Y-50505000D01*
X125035000Y-50505000D02*
X125035000Y-58245000D01*
%TO.C,C2*%
X111551252Y-65460000D02*
X111028748Y-65460000D01*
X111551252Y-63990000D02*
X111028748Y-63990000D01*
%TO.C,D2*%
X109727500Y-46280000D02*
X109727500Y-48200000D01*
X109727500Y-48200000D02*
X112412500Y-48200000D01*
X112412500Y-46280000D02*
X109727500Y-46280000D01*
%TO.C,J2*%
X82610000Y-74990000D02*
X82610000Y-73660000D01*
X83940000Y-74990000D02*
X82610000Y-74990000D01*
X85210000Y-74990000D02*
X105590000Y-74990000D01*
X85210000Y-74990000D02*
X85210000Y-72330000D01*
X105590000Y-74990000D02*
X105590000Y-72330000D01*
X85210000Y-72330000D02*
X105590000Y-72330000D01*
%TO.C,R7*%
X111062936Y-50240000D02*
X111517064Y-50240000D01*
X111062936Y-51710000D02*
X111517064Y-51710000D01*
%TD*%
M02*
